<svg width="52" height="52" viewBox="0 0 52 52" fill="none" xmlns="http://www.w3.org/2000/svg">
<path d="M51.6008 25.9839C51.6008 40.1336 40.1337 51.6009 25.9842 51.6009C15.7241 51.6009 6.87225 45.5319 2.78163 36.8141C1.64162 34.3329 2.71457 31.4158 5.16224 30.2423C7.64343 29.1022 10.594 30.1752 11.7341 32.6564C14.4835 40.7036 22.1283 46.4708 31.1142 46.4708C42.4137 46.4708 51.6008 37.3171 51.6008 25.9839Z" fill="#E9B3C4"/>
<path d="M20.9212 27.124C20.2506 24.6763 17.6017 23.0669 15.1541 23.4693C12.3376 23.9051 10.4599 26.554 10.8958 29.337C12.5052 39.0607 20.9547 46.4708 31.1142 46.4708C42.4137 46.4708 51.6008 37.3171 51.6008 25.984C51.6008 34.4671 44.7272 41.3407 36.2442 41.3407C28.1301 41.3407 21.4912 35.0706 20.9212 27.124Z" fill="#9F6EE0"/>
<path d="M0.400879 25.9839C0.400879 17.5008 7.27446 10.6271 15.7575 10.6271C24.2405 10.6271 31.1141 17.5008 31.1141 25.9839C31.1141 31.6504 35.7076 36.244 41.3406 36.244C47.0071 36.244 51.6007 31.6504 51.6007 25.9839C51.6007 34.4669 44.7271 41.3406 36.2441 41.3406C27.7611 41.3406 20.8875 34.4669 20.8875 25.9839C20.8875 20.3508 16.2939 15.7572 10.6274 15.7572C4.99444 15.7572 0.400879 20.3508 0.400879 25.9839Z" fill="#4FBCC9"/>
<path d="M31.0805 24.8776C31.7511 27.3253 34.3664 28.9347 36.8476 28.5324C39.6306 28.063 41.5418 25.4476 41.0724 22.6646C39.4965 12.9409 31.047 5.5308 20.8875 5.5308C9.55448 5.5308 0.400879 14.6845 0.400879 25.9841C0.400879 17.501 7.27446 10.6274 15.7575 10.6274C23.8716 10.6274 30.5105 16.931 31.0805 24.8776Z" fill="#85E4D9"/>
<path d="M0.400879 25.9839C0.400879 11.8678 11.868 0.400497 25.984 0.400497C36.2776 0.400497 45.1295 6.43589 49.1865 15.1872C50.3601 17.6349 49.2871 20.5856 46.8059 21.7256C44.3583 22.8991 41.4077 21.8262 40.2341 19.3449C37.4847 11.2977 29.8735 5.53059 20.8875 5.53059C9.55448 5.53059 0.400879 14.6843 0.400879 25.9839Z" fill="#F1E4B6"/>
</svg>
