<svg width="80" height="80" viewBox="0 0 80 80" fill="none" xmlns="http://www.w3.org/2000/svg">
<ellipse cx="40" cy="39.8135" rx="32" ry="31.8135" fill="#CDF0F4"/>
<path d="M40.6152 71.9884C38.1146 72.0973 35.6407 71.4379 33.5262 70.0989C32.4443 69.311 31.6083 68.2321 31.1156 66.9878C30.6229 65.7436 30.4935 64.385 30.7427 63.0702C31.194 59.3623 33.6108 57.1074 37.2033 57.0386H37.3612C41.1364 57.0386 45.5221 59.5631 46.1404 63.4063C47.0667 69.1593 50.0533 68.8919 50.1796 68.8807C50.2791 68.8686 50.3796 68.8923 50.4632 68.9474C50.5469 69.0026 50.6082 69.0856 50.6364 69.1817C50.6646 69.2778 50.6577 69.3808 50.617 69.4723C50.5764 69.5639 50.5045 69.638 50.4143 69.6816C47.3572 71.1612 44.0114 71.9489 40.6152 71.9884ZM37.3567 57.8823H37.219C35.7703 57.84 34.3638 58.3727 33.3067 59.364C32.2496 60.3554 31.628 61.7247 31.5776 63.1728C31.3429 64.3366 31.4479 65.5433 31.88 66.6491C32.3121 67.7549 33.0531 68.7132 34.0147 69.4097C37.2552 71.7346 43.305 71.7199 48.7952 69.4684C47.5722 68.9698 45.9384 67.5406 45.2976 63.5372C44.7639 60.1734 40.7156 57.8823 37.3567 57.8823Z" fill="#1D4386" stroke="#1D4386"/>
<path d="M38.6848 67.0064C38.6231 67.007 38.5622 66.9935 38.5065 66.9669C38.4219 66.9275 29.9101 62.8778 28.3373 53.2253C28.3197 53.1148 28.3465 53.002 28.4119 52.9113C28.4773 52.8206 28.576 52.7595 28.6863 52.7413C28.7966 52.7231 28.9097 52.7493 29.0007 52.8142C29.0918 52.8791 29.1535 52.9774 29.1722 53.0876C30.674 62.3048 38.7807 66.1615 38.8631 66.1999C38.9504 66.2405 39.0212 66.3097 39.0639 66.396C39.1066 66.4824 39.1185 66.5807 39.0977 66.6747C39.0769 66.7687 39.0247 66.8528 38.9496 66.9132C38.8745 66.9735 38.7811 67.0064 38.6848 67.0064Z" fill="#1D4386" stroke="#1D4386"/>
<path d="M10.6907 50.6406C10.6113 50.6405 10.5337 50.618 10.4666 50.5757C10.3995 50.5333 10.3458 50.4729 10.3116 50.4014C7.39381 44.3405 7.22119 37.2407 9.8907 33.5182C10.6799 32.4373 11.7593 31.6022 13.0037 31.1095C14.2482 30.6167 15.6068 30.4866 16.9222 30.7342C20.632 31.1854 22.8874 33.6039 22.9551 37.1955C23.0262 41.0038 20.4853 45.5024 16.5882 46.1296C10.8339 47.0557 11.098 50.0405 11.1126 50.1679C11.1229 50.2668 11.0982 50.3661 11.0427 50.4485C10.9872 50.531 10.9046 50.5914 10.8091 50.6191C10.771 50.6323 10.731 50.6396 10.6907 50.6406ZM15.6664 31.5012C14.6754 31.4602 13.69 31.6692 12.801 32.1087C11.912 32.5483 11.1478 33.2045 10.579 34.0167C8.25469 37.2553 8.27049 43.305 10.5214 48.794C11.0201 47.5723 12.4497 45.9401 16.4539 45.2971C19.8659 44.7489 22.1721 40.5966 22.1089 37.2147C22.1512 35.7665 21.6185 34.3604 20.6272 33.3036C19.636 32.2468 18.2666 31.6252 16.8184 31.5746C16.4362 31.5268 16.0515 31.5023 15.6664 31.5012Z" fill="#1D4386" stroke="#1D4386"/>
<path d="M13.4067 39.092C13.3451 39.0916 13.2843 39.0782 13.2284 39.0526C13.1776 39.0293 13.132 38.9961 13.0942 38.9551C13.0563 38.9141 13.027 38.8659 13.0079 38.8134C12.9888 38.761 12.9803 38.7052 12.9829 38.6495C12.9855 38.5937 12.9991 38.539 13.023 38.4885C13.0625 38.4039 17.1142 29.8952 26.7678 28.3227C26.8782 28.3051 26.9911 28.3319 27.0818 28.3973C27.1725 28.4627 27.2337 28.5613 27.2518 28.6716C27.27 28.782 27.2438 28.895 27.1789 28.986C27.114 29.077 27.0157 29.1387 26.9054 29.1575C17.702 30.6623 13.8252 38.7694 13.7903 38.8506C13.7557 38.923 13.7013 38.9841 13.6334 39.0269C13.5655 39.0696 13.4869 39.0922 13.4067 39.092Z" fill="#1D4386" stroke="#1D4386"/>
<path d="M42.643 22.9538C38.8678 22.9538 34.4822 20.4292 33.865 16.586C32.9387 10.8353 29.9589 11.1049 29.8235 11.1173C29.7246 11.1276 29.6253 11.1029 29.5428 11.0474C29.4603 10.992 29.3999 10.9093 29.3722 10.8139C29.3442 10.7177 29.3516 10.6146 29.3929 10.5234C29.4343 10.4322 29.507 10.3587 29.5978 10.3164C35.6511 7.3948 42.7559 7.21883 46.4781 9.89114C47.5602 10.679 48.3963 11.7578 48.8893 13.002C49.3822 14.2463 49.5117 15.6049 49.2627 16.9199C48.8113 20.6289 46.3923 22.8838 42.7999 22.9515L42.643 22.9538ZM31.2 10.5206C32.423 11.0192 34.0557 12.4484 34.6977 16.4518C35.2392 19.8167 39.2875 22.1077 42.6453 22.1077H42.7829C44.2316 22.1497 45.6379 21.6169 46.695 20.6257C47.752 19.6344 48.3737 18.2653 48.4243 16.8173C48.6587 15.6527 48.5529 14.4452 48.1196 13.3391C47.6862 12.233 46.9436 11.2749 45.9805 10.5792C42.7457 8.25436 36.697 8.27016 31.2 10.5206Z" fill="#1D4386" stroke="#1D4386"/>
<path d="M51.2526 27.2563C51.1523 27.2563 51.0553 27.2206 50.9788 27.1558C50.9023 27.0909 50.8514 27.001 50.8351 26.9021C49.3356 17.6996 41.2266 13.8248 41.1454 13.7898C41.0939 13.7672 41.0474 13.7344 41.0086 13.6936C40.9699 13.6527 40.9397 13.6046 40.9198 13.5519C40.8999 13.4992 40.8908 13.4431 40.8929 13.3869C40.895 13.3306 40.9083 13.2753 40.932 13.2243C40.9557 13.1732 40.9894 13.1274 41.0311 13.0896C41.0727 13.0517 41.1215 13.0225 41.1746 13.0038C41.2277 12.985 41.284 12.977 41.3402 12.9803C41.3964 12.9835 41.4514 12.998 41.5019 13.0227C41.5866 13.0622 50.0972 17.1119 51.67 26.7644C51.6791 26.8193 51.6772 26.8755 51.6645 26.9296C51.6518 26.9838 51.6285 27.0349 51.596 27.0801C51.5635 27.1252 51.5224 27.1635 51.4751 27.1928C51.4278 27.2221 51.3752 27.2417 51.3203 27.2506C51.2979 27.2541 51.2752 27.256 51.2526 27.2563Z" fill="#1D4386" stroke="#1D4386"/>
<path d="M64.3125 49.331C63.9003 49.3305 63.4884 49.3049 63.0793 49.2542C59.3695 48.803 57.1141 46.3845 57.0464 42.7929C56.9753 38.9846 59.5162 34.486 63.4133 33.86C69.1675 32.9327 68.9035 29.948 68.8888 29.8205C68.8785 29.7217 68.9033 29.6223 68.9588 29.5399C69.0142 29.4574 69.0969 29.397 69.1923 29.3693C69.2885 29.3401 69.3921 29.3469 69.4836 29.3884C69.5752 29.4299 69.6485 29.5033 69.6899 29.5949C72.6031 35.6558 72.7803 42.7556 70.1108 46.4782C69.4566 47.397 68.5842 48.1388 67.572 48.6368C66.5599 49.1347 65.4398 49.3733 64.3125 49.331ZM69.48 31.1967C68.9813 32.4184 67.5518 34.0506 63.5475 34.6936C60.1356 35.2418 57.8294 39.3941 57.8926 42.776C57.8503 44.2241 58.3829 45.6302 59.3742 46.687C60.3655 47.7438 61.7349 48.3655 63.1831 48.4161C64.3474 48.6502 65.5545 48.5449 66.6606 48.1127C67.7668 47.6805 68.7254 46.9397 69.4225 45.9784C71.7468 42.7387 71.731 36.6891 69.48 31.1967Z" fill="#1D4386" stroke="#1D4386"/>
<path d="M53.1672 51.6641C53.061 51.6641 52.9586 51.6242 52.8805 51.5522C52.8024 51.4802 52.7542 51.3815 52.7456 51.2756C52.7369 51.1698 52.7684 51.0645 52.8337 50.9808C52.8991 50.8971 52.9936 50.841 53.0984 50.8237C62.3018 49.3246 66.1752 41.2174 66.2135 41.1362C66.2362 41.0847 66.2689 41.0382 66.3098 40.9994C66.3506 40.9607 66.3988 40.9305 66.4515 40.9107C66.5042 40.8908 66.5603 40.8816 66.6166 40.8837C66.6728 40.8858 66.7281 40.8991 66.7792 40.9228C66.8302 40.9465 66.8761 40.9802 66.9139 41.0219C66.9518 41.0635 66.981 41.1123 66.9998 41.1654C67.0185 41.2185 67.0265 41.2747 67.0233 41.3309C67.02 41.3871 67.0056 41.4421 66.9808 41.4927C66.9413 41.5773 62.8896 50.086 53.236 51.6585C53.2133 51.662 53.1903 51.6638 53.1672 51.6641Z" fill="#1D4386" stroke="#1D4386"/>
</svg>
