<svg width="360" height="150" viewBox="0 0 360 150" fill="none" xmlns="http://www.w3.org/2000/svg">
<path d="M422 114.41C422 177.611 370.755 228.821 307.511 228.82C244.266 228.82 193.021 177.611 193.021 114.41C193.021 72.1932 158.774 37.9699 116.778 37.9699C74.5321 37.9699 40.2852 72.193 40.2852 114.41C40.2852 51.2095 91.5305 -0.000324858 154.775 -0.000271449C218.019 -0.000218039 269.264 51.2097 269.264 114.41C269.264 156.377 303.511 190.6 345.757 190.6C387.753 190.6 422 156.377 422 114.41Z" fill="#E9B3C4"/>
<path d="M392.899 148.313C392.899 211.513 341.654 262.723 278.41 262.723C215.166 262.723 163.921 211.513 163.921 148.313C163.921 106.096 129.674 71.8724 87.6776 71.8724C45.4315 71.8723 11.1846 106.095 11.1846 148.312C11.1846 85.1119 62.4299 33.9021 125.674 33.9022C188.918 33.9022 240.164 85.1121 240.164 148.313C240.164 190.28 274.41 224.503 316.656 224.503C358.653 224.503 392.899 190.28 392.899 148.313Z" fill="#9F6EE0"/>
<path d="M363.805 182.213C363.805 245.414 312.559 296.623 249.315 296.623C186.071 296.623 134.826 245.413 134.826 182.213C134.826 139.996 100.579 105.773 58.5829 105.773C16.3368 105.773 -17.9101 139.996 -17.9101 182.213C-17.9101 119.012 33.3352 67.8025 96.5793 67.8026C159.824 67.8026 211.069 119.013 211.069 182.213C211.069 224.18 245.316 258.403 287.562 258.403C329.558 258.403 363.805 224.18 363.805 182.213Z" fill="#4FBCC9"/>
<path d="M341.897 210.113C341.897 273.314 290.652 324.524 227.408 324.524C164.164 324.524 112.919 273.314 112.919 210.113C112.919 167.896 78.6718 133.673 36.6757 133.673C-5.57047 133.673 -39.8173 167.896 -39.8173 210.113C-39.8173 146.913 11.428 95.7028 74.6721 95.7029C137.916 95.7029 189.162 146.913 189.162 210.113C189.162 252.08 223.408 286.304 265.655 286.304C307.651 286.304 341.897 252.08 341.897 210.113Z" fill="#85E4D9"/>
<path d="M320.883 243.156C320.883 306.357 269.638 357.567 206.393 357.567C143.149 357.567 91.9039 306.357 91.9039 243.156C91.904 200.939 57.6571 166.716 15.661 166.716C-26.5851 166.716 -60.832 200.939 -60.832 243.156C-60.832 179.956 -9.58667 128.746 53.6575 128.746C116.902 128.746 168.147 179.956 168.147 243.156C168.147 285.123 202.394 319.347 244.64 319.347C286.636 319.347 320.883 285.124 320.883 243.156Z" fill="#F2E4B7"/>
</svg>
