<svg width="396" height="824" viewBox="0 0 396 824" fill="none" xmlns="http://www.w3.org/2000/svg">
<path d="M-73.8265 -27.7758C48.2673 4.9391 120.671 130.446 87.933 252.624C55.1953 374.802 -70.261 447.292 -192.355 414.577C-273.912 392.724 -357.753 441.169 -379.492 522.299C-401.36 603.912 -352.974 687.787 -271.417 709.641C-393.511 676.926 -465.914 551.419 -433.176 429.241C-400.439 307.062 -274.982 234.572 -152.889 267.287C-71.8144 289.011 12.0272 240.566 33.8954 158.953C55.6343 77.8229 7.24768 -6.05208 -73.8265 -27.7758Z" fill="#E9B3C4"/>
<path d="M-23.3986 45.9888C98.6952 78.7038 171.098 204.21 138.361 326.388C105.623 448.567 -19.8332 521.057 -141.927 488.342C-223.484 466.489 -307.325 514.934 -329.064 596.064C-350.932 677.677 -302.546 761.552 -220.989 783.405C-343.083 750.69 -415.486 625.184 -382.748 503.005C-350.011 380.827 -224.554 308.337 -102.461 341.052C-21.3865 362.776 62.4551 314.331 84.3233 232.718C106.062 151.588 57.6755 67.7126 -23.3986 45.9888Z" fill="#9F6EE0"/>
<path d="M27.0277 119.753C149.122 152.468 221.525 277.975 188.787 400.153C156.05 522.331 30.5932 594.821 -91.5007 562.106C-173.057 540.253 -256.899 588.698 -278.638 669.828C-300.506 751.441 -252.119 835.317 -170.563 857.17C-292.657 824.455 -365.06 698.948 -332.322 576.77C-299.584 454.591 -174.128 382.101 -52.0343 414.816C29.0398 436.54 112.881 388.095 134.75 306.482C156.488 225.352 108.102 141.477 27.0277 119.753Z" fill="#4FBCC9"/>
<path d="M69.5925 176.503C191.686 209.218 264.09 334.725 231.352 456.903C198.614 579.081 73.1579 651.572 -48.9359 618.857C-130.493 597.004 -214.334 645.448 -236.073 726.578C-257.941 808.192 -209.555 892.067 -127.998 913.92C-250.092 881.205 -322.495 755.698 -289.757 633.52C-257.02 511.342 -131.563 438.852 -9.46958 471.567C71.6046 493.29 155.446 444.846 177.314 363.233C199.053 282.102 150.667 198.227 69.5925 176.503Z" fill="#85E4D9"/>
<path d="M122.547 234.21C244.641 266.925 317.044 392.432 284.306 514.61C251.568 636.788 126.112 709.279 4.01833 676.564C-77.5384 654.711 -161.38 703.155 -183.119 784.285C-204.987 865.899 -156.6 949.774 -75.0437 971.627C-197.138 938.912 -269.541 813.405 -236.803 691.227C-204.065 569.049 -78.6092 496.559 43.4846 529.274C124.559 550.997 208.4 502.553 230.269 420.94C252.007 339.809 203.621 255.934 122.547 234.21Z" fill="#F2E4B7"/>
</svg>
