<svg width="899" height="365" viewBox="0 0 899 365" fill="none" xmlns="http://www.w3.org/2000/svg">
<path d="M364.602 73.3143C351.459 25.3404 300.199 -6.20422 251.568 1.68188C197.023 10.8824 159.564 62.1422 168.765 116.688C172.326 138.666 177.68 160.041 184.67 180.659C238.293 338.835 388.223 452.505 564.383 452.505C786.508 452.505 965.917 272.77 965.917 51.3019C965.917 217.568 831.196 352.614 664.931 352.614C544.329 352.614 440.355 281.565 392.272 179.303C376.949 146.713 367.302 110.954 364.602 73.3143Z" fill="url(#paint0_linear_36_196)"/>
<path d="M965.917 51.3019C965.917 327.973 740.835 553.055 464.164 553.055C262.412 553.055 88.7557 434.763 9.23757 263.24C8.88131 262.497 8.53585 261.751 8.20089 261.004C-13.0903 213.483 8.50986 157.088 56.3877 135.09C104.001 112.262 161.325 132.806 184.67 180.659C184.847 181.021 185.021 181.385 185.194 181.75C239.082 339.472 388.261 452.507 564.383 452.507C786.508 452.507 965.917 272.77 965.917 51.3019Z" fill="url(#paint1_linear_36_196)"/>
<defs>
<linearGradient id="paint0_linear_36_196" x1="482.958" y1="553.055" x2="482.958" y2="0.474933" gradientUnits="userSpaceOnUse">
<stop stop-color="#4FBCC9"/>
<stop offset="1" stop-color="#9F6EE0" stop-opacity="0"/>
</linearGradient>
<linearGradient id="paint1_linear_36_196" x1="482.958" y1="553.055" x2="482.958" y2="0.474933" gradientUnits="userSpaceOnUse">
<stop stop-color="#F1E4B6"/>
<stop offset="1" stop-color="#E9B3C4" stop-opacity="0"/>
</linearGradient>
</defs>
</svg>
