<svg width="419" height="1342" viewBox="0 0 419 1342" fill="none" xmlns="http://www.w3.org/2000/svg">
<path d="M-144.855 71.2839C1.65817 110.542 88.5422 261.149 49.257 407.763C9.97188 554.377 -140.576 641.366 -287.089 602.108C-384.957 575.884 -485.567 634.018 -511.653 731.374C-537.895 829.31 -479.831 929.96 -381.963 956.184C-528.476 916.926 -615.36 766.318 -576.074 619.704C-536.789 473.09 -386.242 386.102 -239.729 425.36C-142.44 451.428 -41.83 393.295 -15.5881 295.359C10.4985 198.002 -47.5655 97.3524 -144.855 71.2839Z" fill="#E9B3C4"/>
<path d="M-84.3409 159.801C62.1718 199.059 149.056 349.667 109.771 496.281C70.4856 642.895 -80.0621 729.883 -226.575 690.625C-324.443 664.402 -425.053 722.535 -451.14 819.892C-477.381 917.827 -419.317 1018.48 -321.449 1044.7C-467.962 1005.44 -554.846 854.835 -515.561 708.221C-476.276 561.607 -325.728 474.619 -179.215 513.877C-81.9262 539.946 18.6837 481.812 44.9256 383.876C71.0122 286.52 12.9482 185.87 -84.3409 159.801Z" fill="#9F6EE0"/>
<path d="M-23.8291 248.319C122.684 287.577 209.568 438.185 170.282 584.799C130.997 731.413 -19.5504 818.401 -166.063 779.143C-263.931 752.919 -364.541 811.053 -390.628 908.409C-416.87 1006.34 -358.806 1107 -260.938 1133.22C-407.45 1093.96 -494.334 943.353 -455.049 796.739C-415.764 650.125 -265.216 563.137 -118.704 602.395C-21.4145 628.463 79.1954 570.33 105.437 472.394C131.524 375.038 73.4599 274.388 -23.8291 248.319Z" fill="#4FBCC9"/>
<path d="M27.248 316.42C173.761 355.678 260.645 506.285 221.36 652.899C182.074 799.513 31.5267 886.501 -114.986 847.243C-212.854 821.02 -313.464 879.153 -339.551 976.51C-365.793 1074.45 -307.729 1175.1 -209.86 1201.32C-356.373 1162.06 -443.257 1011.45 -403.972 864.84C-364.687 718.226 -214.139 631.237 -67.6264 670.495C29.6627 696.564 130.273 638.43 156.514 540.494C182.601 443.138 124.537 342.488 27.248 316.42Z" fill="#85E4D9"/>
<path d="M90.7929 385.667C237.306 424.925 324.19 575.532 284.904 722.146C245.619 868.76 95.0716 955.748 -51.4411 916.491C-149.309 890.267 -249.919 948.4 -276.006 1045.76C-302.248 1143.69 -244.184 1244.34 -146.316 1270.57C-292.828 1231.31 -379.712 1080.7 -340.427 934.087C-301.142 787.473 -150.594 700.485 -4.08149 739.742C93.2076 765.811 193.818 707.677 220.059 609.742C246.146 512.385 188.082 411.735 90.7929 385.667Z" fill="#F2E4B7"/>
</svg>
