<svg width="384" height="727" viewBox="0 0 384 727" fill="none" xmlns="http://www.w3.org/2000/svg">
<path d="M470.956 59.223C593.05 91.9379 665.453 217.444 632.716 339.623C599.978 461.801 474.522 534.291 352.428 501.576C270.871 479.723 187.03 528.168 165.291 609.298C143.423 690.911 191.809 774.786 273.366 796.639C151.272 763.925 78.869 638.418 111.607 516.24C144.344 394.061 269.801 321.571 391.894 354.286C472.969 376.01 556.81 327.565 578.678 245.952C600.417 164.822 552.031 80.9467 470.956 59.223Z" fill="#E9B3C4"/>
<path d="M521.384 132.988C643.478 165.703 715.881 291.209 683.144 413.387C650.406 535.566 524.95 608.056 402.856 575.341C321.299 553.488 237.458 601.932 215.719 683.063C193.851 764.676 242.237 848.551 323.794 870.404C201.7 837.689 129.297 712.183 162.034 590.004C194.772 467.826 320.228 395.336 442.322 428.051C523.396 449.775 607.238 401.33 629.106 319.717C650.845 238.586 602.458 154.711 521.384 132.988Z" fill="#9F6EE0"/>
<path d="M571.811 206.752C693.904 239.467 766.308 364.974 733.57 487.152C700.832 609.33 575.376 681.82 453.282 649.106C371.726 627.252 287.884 675.697 266.145 756.827C244.277 838.441 292.664 922.316 374.22 944.169C252.127 911.454 179.723 785.947 212.461 663.769C245.198 541.591 370.655 469.101 492.749 501.815C573.823 523.539 657.664 475.095 679.533 393.481C701.271 312.351 652.885 228.476 571.811 206.752Z" fill="#4FBCC9"/>
<path d="M614.375 263.503C736.469 296.218 808.872 421.725 776.135 543.903C743.397 666.081 617.941 738.571 495.847 705.856C414.29 684.003 330.449 732.448 308.71 813.578C286.842 895.192 335.228 979.067 416.785 1000.92C294.691 968.205 222.288 842.698 255.026 720.52C287.763 598.342 413.219 525.852 535.313 558.566C616.387 580.29 700.229 531.846 722.097 450.232C743.836 369.102 695.449 285.227 614.375 263.503Z" fill="#85E4D9"/>
<path d="M667.329 321.209C789.423 353.924 861.826 479.431 829.089 601.609C796.351 723.787 670.895 796.277 548.801 763.563C467.244 741.71 383.403 790.154 361.664 871.284C339.796 952.898 388.182 1036.77 469.739 1058.63C347.645 1025.91 275.242 900.404 307.979 778.226C340.717 656.048 466.173 583.558 588.267 616.272C669.341 637.996 753.183 589.552 775.051 507.938C796.79 426.808 748.403 342.933 667.329 321.209Z" fill="#F2E4B7"/>
</svg>
