<svg width="607" height="554" viewBox="0 0 607 554" fill="none" xmlns="http://www.w3.org/2000/svg">
<path d="M364.685 73.3143C351.542 25.3404 300.282 -6.20421 251.651 1.6819C197.106 10.8824 159.647 62.1422 168.848 116.688C172.409 138.666 177.763 160.041 184.753 180.659C238.376 338.835 388.306 452.505 564.466 452.505C786.591 452.505 966 272.77 966 51.3019C966 217.568 831.279 352.614 665.014 352.614C544.412 352.614 440.438 281.565 392.355 179.303C377.032 146.713 367.385 110.954 364.685 73.3143Z" fill="url(#paint0_linear_87_698)"/>
<path d="M966 51.3019C966 327.973 740.918 553.055 464.247 553.055C262.495 553.055 88.8387 434.763 9.32057 263.24C8.96434 262.497 8.61884 261.751 8.2839 261.004C-13.0073 213.483 8.59289 157.088 56.4707 135.09C104.084 112.262 161.408 132.806 184.753 180.659C184.93 181.021 185.104 181.385 185.277 181.75C239.165 339.472 388.344 452.507 564.466 452.507C786.591 452.507 966 272.77 966 51.3019Z" fill="url(#paint1_linear_87_698)"/>
<defs>
<linearGradient id="paint0_linear_87_698" x1="483.041" y1="553.055" x2="483.041" y2="0.474933" gradientUnits="userSpaceOnUse">
<stop stop-color="#9F6EE0"/>
<stop offset="1" stop-color="#9F6EE0" stop-opacity="0"/>
</linearGradient>
<linearGradient id="paint1_linear_87_698" x1="483.041" y1="553.055" x2="483.041" y2="0.474933" gradientUnits="userSpaceOnUse">
<stop stop-color="#E9B3C4"/>
<stop offset="1" stop-color="#E9B3C4" stop-opacity="0"/>
</linearGradient>
</defs>
</svg>
