<svg width="66" height="66" viewBox="0 0 66 66" fill="none" xmlns="http://www.w3.org/2000/svg">
<ellipse cx="33" cy="32.8135" rx="32" ry="31.8135" fill="#CDF0F4"/>
<path d="M33.6152 64.9884C31.1146 65.0973 28.6407 64.4379 26.5262 63.0989C25.4443 62.311 24.6083 61.2321 24.1156 59.9878C23.6229 58.7436 23.4935 57.385 23.7427 56.0702C24.194 52.3623 26.6108 50.1074 30.2033 50.0386H30.3612C34.1364 50.0386 38.5221 52.5631 39.1404 56.4063C40.0667 62.1593 43.0533 61.8919 43.1796 61.8807C43.2791 61.8686 43.3796 61.8923 43.4632 61.9474C43.5469 62.0026 43.6082 62.0856 43.6364 62.1817C43.6646 62.2778 43.6577 62.3808 43.617 62.4723C43.5764 62.5639 43.5045 62.638 43.4143 62.6816C40.3572 64.1612 37.0114 64.9489 33.6152 64.9884ZM30.3567 50.8823H30.219C28.7703 50.84 27.3638 51.3727 26.3067 52.364C25.2496 53.3554 24.628 54.7247 24.5776 56.1728C24.3429 57.3366 24.4479 58.5433 24.88 59.6491C25.3121 60.7549 26.0531 61.7132 27.0147 62.4097C30.2552 64.7346 36.305 64.7199 41.7952 62.4684C40.5722 61.9698 38.9384 60.5406 38.2976 56.5372C37.7639 53.1734 33.7156 50.8823 30.3567 50.8823Z" fill="#1D4386" stroke="#1D4386"/>
<path d="M31.6848 60.0065C31.6231 60.0071 31.5622 59.9936 31.5065 59.967C31.4219 59.9275 22.9101 55.8779 21.3373 46.2253C21.3197 46.1149 21.3465 46.002 21.4119 45.9113C21.4773 45.8207 21.576 45.7595 21.6863 45.7414C21.7966 45.7232 21.9097 45.7494 22.0007 45.8143C22.0918 45.8792 22.1535 45.9775 22.1722 46.0877C23.674 55.3048 31.7807 59.1616 31.8631 59.1999C31.9504 59.2406 32.0212 59.3098 32.0639 59.3961C32.1066 59.4824 32.1185 59.5807 32.0977 59.6748C32.0769 59.7688 32.0247 59.8529 31.9496 59.9132C31.8745 59.9735 31.7811 60.0064 31.6848 60.0065Z" fill="#1D4386" stroke="#1D4386"/>
<path d="M3.69066 43.6406C3.61135 43.6405 3.53368 43.618 3.46661 43.5757C3.39954 43.5333 3.34579 43.4729 3.31155 43.4014C0.393814 37.3405 0.221187 30.2407 2.8907 26.5182C3.6799 25.4373 4.75926 24.6022 6.00371 24.1095C7.24816 23.6167 8.60678 23.4866 9.92216 23.7342C13.632 24.1854 15.8874 26.6039 15.9551 30.1955C16.0262 34.0038 13.4853 38.5024 9.58819 39.1296C3.83395 40.0557 4.09797 43.0405 4.11264 43.1679C4.12293 43.2668 4.09819 43.3661 4.04272 43.4485C3.98725 43.531 3.90457 43.5914 3.80913 43.6191C3.77097 43.6323 3.73101 43.6396 3.69066 43.6406ZM8.66639 24.5012C7.67541 24.4602 6.69005 24.6692 5.80101 25.1087C4.91197 25.5483 4.14784 26.2045 3.57896 27.0167C1.25469 30.2553 1.27049 36.305 3.52142 41.794C4.02012 40.5723 5.44965 38.9401 9.45393 38.2971C12.8659 37.7489 15.1721 33.5966 15.1089 30.2147C15.1512 28.7665 14.6185 27.3604 13.6272 26.3036C12.636 25.2468 11.2666 24.6252 9.81836 24.5746C9.43621 24.5268 9.05151 24.5023 8.66639 24.5012Z" fill="#1D4386" stroke="#1D4386"/>
<path d="M6.40665 32.092C6.34511 32.0916 6.28435 32.0781 6.22838 32.0525C6.17763 32.0292 6.13201 31.9961 6.09415 31.955C6.0563 31.914 6.02697 31.8658 6.00787 31.8134C5.98877 31.7609 5.98028 31.7052 5.98288 31.6494C5.98548 31.5936 5.99913 31.5389 6.02304 31.4885C6.06253 31.4039 10.1142 22.8951 19.7678 21.3227C19.8782 21.3051 19.9911 21.3319 20.0818 21.3973C20.1725 21.4627 20.2337 21.5613 20.2518 21.6716C20.27 21.7819 20.2438 21.8949 20.1789 21.986C20.114 22.077 20.0157 22.1386 19.9054 22.1574C10.702 23.6622 6.82524 31.7694 6.79027 31.8506C6.7557 31.923 6.70131 31.9841 6.63341 32.0268C6.56551 32.0695 6.48688 32.0921 6.40665 32.092Z" fill="#1D4386" stroke="#1D4386"/>
<path d="M35.643 15.9538C31.8678 15.9538 27.4822 13.4292 26.865 9.58601C25.9387 3.8353 22.9589 4.1049 22.8235 4.11731C22.7246 4.12761 22.6253 4.10287 22.5428 4.04741C22.4603 3.99195 22.3999 3.9093 22.3722 3.81387C22.3442 3.71767 22.3516 3.61464 22.3929 3.52341C22.4343 3.43217 22.507 3.35875 22.5978 3.31641C28.6511 0.394804 35.7558 0.218831 39.4781 2.89114C40.5602 3.67897 41.3963 4.75776 41.8893 6.00204C42.3822 7.24632 42.5117 8.60495 42.2627 9.91991C41.8113 13.6289 39.3923 15.8838 35.7999 15.9515L35.643 15.9538ZM24.2 3.52058C25.423 4.01917 27.0557 5.44839 27.6977 9.45178C28.2392 12.8167 32.2875 15.1077 35.6453 15.1077H35.7829C37.2316 15.1497 38.6379 14.6169 39.695 13.6257C40.752 12.6344 41.3737 11.2653 41.4243 9.81726C41.6587 8.65266 41.5529 7.44522 41.1196 6.3391C40.6862 5.23298 39.9436 4.2749 38.9805 3.57924C35.7457 1.25436 29.697 1.27016 24.2 3.52058Z" fill="#1D4386" stroke="#1D4386"/>
<path d="M44.2526 20.2562C44.1523 20.2562 44.0553 20.2206 43.9788 20.1557C43.9023 20.0908 43.8514 20.0009 43.8351 19.902C42.3356 10.6995 34.2266 6.82472 34.1454 6.78975C34.0939 6.76709 34.0474 6.73438 34.0086 6.69353C33.9699 6.65268 33.9397 6.6045 33.9198 6.55184C33.8999 6.49917 33.8908 6.44306 33.8929 6.38681C33.895 6.33056 33.9083 6.27529 33.932 6.22424C33.9557 6.17319 33.9894 6.12739 34.0311 6.08952C34.0727 6.05165 34.1215 6.02247 34.1746 6.0037C34.2277 5.98493 34.284 5.97694 34.3402 5.9802C34.3964 5.98346 34.4514 5.9979 34.5019 6.02269C34.5866 6.06217 43.0972 10.1118 44.67 19.7644C44.6791 19.8193 44.6772 19.8754 44.6645 19.9296C44.6518 19.9837 44.6285 20.0348 44.596 20.08C44.5635 20.1252 44.5224 20.1635 44.4751 20.1927C44.4278 20.222 44.3752 20.2417 44.3203 20.2506C44.2979 20.2541 44.2752 20.256 44.2526 20.2562Z" fill="#1D4386" stroke="#1D4386"/>
<path d="M57.3125 42.331C56.9003 42.3305 56.4884 42.3049 56.0793 42.2542C52.3695 41.803 50.1141 39.3845 50.0464 35.7929C49.9753 31.9846 52.5162 27.486 56.4133 26.86C62.1675 25.9327 61.9035 22.948 61.8888 22.8205C61.8785 22.7217 61.9033 22.6223 61.9588 22.5399C62.0142 22.4574 62.0969 22.397 62.1923 22.3693C62.2885 22.3401 62.3921 22.3469 62.4836 22.3884C62.5752 22.4299 62.6485 22.5033 62.6899 22.5949C65.6031 28.6558 65.7803 35.7556 63.1108 39.4782C62.4566 40.397 61.5842 41.1388 60.572 41.6368C59.5599 42.1347 58.4398 42.3733 57.3125 42.331ZM62.48 24.1967C61.9813 25.4184 60.5518 27.0506 56.5475 27.6936C53.1356 28.2418 50.8294 32.3941 50.8926 35.776C50.8503 37.2241 51.3829 38.6302 52.3742 39.687C53.3655 40.7438 54.7349 41.3655 56.1831 41.4161C57.3474 41.6502 58.5545 41.5449 59.6606 41.1127C60.7668 40.6805 61.7254 39.9397 62.4225 38.9784C64.7468 35.7387 64.731 29.6891 62.48 24.1967Z" fill="#1D4386" stroke="#1D4386"/>
<path d="M46.1672 44.6641C46.061 44.6641 45.9586 44.6242 45.8805 44.5522C45.8024 44.4802 45.7542 44.3815 45.7456 44.2756C45.7369 44.1698 45.7684 44.0645 45.8337 43.9808C45.8991 43.8971 45.9936 43.841 46.0984 43.8237C55.3018 42.3246 59.1752 34.2174 59.2135 34.1362C59.2362 34.0847 59.2689 34.0382 59.3098 33.9994C59.3506 33.9607 59.3988 33.9305 59.4515 33.9107C59.5042 33.8908 59.5603 33.8816 59.6166 33.8837C59.6728 33.8858 59.7281 33.8991 59.7792 33.9228C59.8302 33.9465 59.8761 33.9802 59.9139 34.0219C59.9518 34.0635 59.981 34.1123 59.9998 34.1654C60.0185 34.2185 60.0265 34.2747 60.0233 34.3309C60.02 34.3871 60.0056 34.4421 59.9808 34.4927C59.9413 34.5773 55.8896 43.086 46.236 44.6585C46.2133 44.662 46.1903 44.6638 46.1672 44.6641Z" fill="#1D4386" stroke="#1D4386"/>
</svg>
