<svg width="64" height="64" viewBox="0 0 64 64" fill="none" xmlns="http://www.w3.org/2000/svg">
<ellipse cx="32" cy="31.8135" rx="32" ry="31.8135" fill="#CDF0F4"/>
<path d="M28.3094 10.2015L28.0469 10.4124L28.0188 12.9085C27.9907 15.6067 28.0094 15.888 28.2907 16.1517C28.5344 16.3802 29.0688 16.3714 29.3126 16.1429C29.4907 15.9759 29.5001 15.8528 29.5001 13.1634V10.3509L29.2563 10.1751C28.9282 9.92901 28.6282 9.94659 28.3094 10.2015Z" fill="#1D4386"/>
<path d="M41.875 10.7727C41.2562 10.9573 40.6562 11.3088 40.1406 11.7922C39.5125 12.3811 38.725 13.5237 35.9594 17.9006C33.7656 21.3811 32.3687 23.4905 30.8687 25.635C30.2406 26.5315 29.5 27.6126 29.2281 28.0344C28.9562 28.4651 28.6937 28.7815 28.6562 28.7376C28.6281 28.7024 28.3469 27.7532 28.0469 26.6458C27.3812 24.176 26.9969 23.0422 26.4625 21.9876C25.4781 20.0276 24.175 18.718 22.825 18.3225C21.3437 17.9006 19.8812 18.3752 19.2812 19.4739C18.7656 20.4319 18.85 21.7063 19.5625 23.8333C20.0031 25.1692 20.1906 27.1467 20.275 31.6555L20.3312 34.5559L19.9844 37.2366C19.7969 38.7131 19.5062 40.9895 19.3375 42.3079C19.1781 43.6174 19.0187 44.7249 18.9812 44.7512C18.9437 44.7864 18.475 44.593 17.9312 44.3206C16.8812 43.7932 16.4219 43.7053 16.1687 43.9778C15.8312 44.3381 10 53.9446 10 54.1379C10 54.2522 10.0844 54.4543 10.1969 54.5862C10.4312 54.8586 10.9094 54.8938 11.2 54.6565C11.3031 54.5774 12.5969 52.5295 14.0781 50.1125C15.5594 47.6956 16.8344 45.6653 16.9 45.595C17.0031 45.4895 18.4469 46.1926 26.4531 50.2268C31.75 52.9075 35.9875 54.9905 36.1187 54.9905C36.4281 54.9905 36.8125 54.6213 36.8125 54.3313C36.8125 53.9797 36.6719 53.804 36.2031 53.5403L35.7719 53.3118L36.2687 52.9075C37.3469 52.0286 39.7 49.7258 40.1594 49.093C40.7875 48.2317 41.6125 46.7639 42.1094 45.6213C42.5031 44.7161 42.5219 44.6985 43.8062 43.4504C45.3531 41.9563 46.8062 40.3567 47.2562 39.6711C47.6312 39.0823 47.7344 38.5637 47.5937 37.9749C47.3969 37.1663 46.6844 36.4543 45.85 36.261L45.4656 36.1643V35.4963C45.4656 34.6086 45.2031 33.967 44.5844 33.3342C44.0781 32.8157 43.225 32.3499 42.6062 32.262C42.4094 32.2268 42.25 32.1829 42.25 32.1653C42.25 32.1477 42.3156 31.928 42.4 31.6907C42.7281 30.7502 42.4187 29.4846 41.6594 28.6584C41.0969 28.052 39.8781 27.5686 38.9219 27.5686H38.6125L40.7687 23.4553C43.4875 18.2786 45.0156 15.2815 45.2781 14.6047C45.4281 14.218 45.475 13.8665 45.4844 13.2864C45.4844 12.592 45.4469 12.4426 45.2312 12.0471C44.7531 11.1858 43.8437 10.6936 42.7656 10.7024C42.4094 10.7024 42.0062 10.7376 41.875 10.7727ZM43.3844 12.2317C43.7406 12.4075 44.0312 12.8469 44.0312 13.2073C44.0312 13.9543 43.3937 15.2639 38.7344 24.1057C37.3375 26.7776 35.7437 29.6604 35.2 30.5217C32.7437 34.4504 29.9406 39.1174 29.7719 39.5569C29.5094 40.2776 29.5281 41.1213 29.8375 41.7014C30.175 42.343 31.0469 42.9407 31.8531 43.0813L32.1906 43.1428L32.0687 43.4592C31.6844 44.47 32.2937 45.6917 33.4844 46.2717C33.8687 46.4651 34.0844 46.509 34.6562 46.509C35.7062 46.509 36.1937 46.2542 37.2906 45.1204C37.7781 44.6282 38.1812 44.2063 38.2 44.1799C38.2281 44.1536 38.2844 44.2151 38.35 44.303C38.7625 44.9622 39.625 45.4983 40.2625 45.4983H40.5625L40.0844 46.3948C39.8219 46.8958 39.3719 47.6252 39.1 48.0295C38.5375 48.8293 36.6719 50.6838 35.2094 51.8792L34.3 52.6174L28.6469 49.7522C25.5344 48.179 22.4219 46.6057 21.7281 46.2629L20.4812 45.6301L20.5281 44.9709C20.5656 44.6106 20.8469 42.3167 21.175 39.8733L21.7656 35.4348L21.7562 32.1829C21.7469 27.2961 21.5312 24.9846 20.9219 23.1741C20.7344 22.6204 20.5469 21.8909 20.5 21.5481C20.4156 20.9065 20.5094 20.1682 20.7062 19.9485C21.1375 19.4563 22.15 19.4475 22.9375 19.9221C23.9406 20.5286 25.0469 22.137 25.7125 23.9739C25.9375 24.6067 27.7844 31.3479 28.3281 33.5188C28.4031 33.8001 28.7406 34.0725 29.0406 34.0725C29.3969 34.0725 29.7812 33.7561 29.7812 33.4749C29.7812 33.343 29.65 32.6926 29.4812 32.0334L29.1906 30.8293L30.1469 29.3264C30.6812 28.4915 31.5812 27.1555 32.1531 26.3557C33.5219 24.4045 34.825 22.4446 37.5062 18.217C40.2156 13.9719 40.7969 13.1106 41.2656 12.7239C41.9781 12.1438 42.7937 11.9504 43.3844 12.2317ZM39.6344 29.0715C40.7781 29.3967 41.3594 30.636 40.825 31.6204C40.6187 31.9983 38.3594 34.9602 35.0594 39.1877C34.1687 40.3303 33.3062 41.3586 33.1469 41.4553C32.5656 41.8508 31.6469 41.7102 31.2437 41.1741C31.0469 40.9104 31.0562 40.26 31.2719 39.8293C31.5812 39.179 37.3844 29.7571 37.6469 29.467C38.0312 29.0452 38.9125 28.8694 39.6344 29.0715ZM42.7469 33.7561C43.1406 33.9143 43.5906 34.3186 43.7969 34.6877C43.9937 35.0481 44.0125 35.6985 43.8437 36.1028C43.7687 36.261 43.0562 37.0784 42.25 37.9045C36.6156 43.7317 35.5562 44.8127 35.3312 44.9534C35.0031 45.1555 34.3 45.1467 33.9719 44.9446C33.8312 44.8567 33.6437 44.6545 33.5594 44.4875C33.3625 44.1008 33.475 43.6965 33.9719 43.0198C35.35 41.1389 41.0031 33.9934 41.2469 33.8264C41.5937 33.5979 42.2781 33.5627 42.7469 33.7561ZM45.8219 37.843C46.15 38.1506 46.1875 38.6252 45.9156 39.0383C45.4844 39.7063 42.4187 42.9143 41.7062 43.4504C41.2094 43.8284 40.7687 44.0217 40.3937 44.0305C39.7562 44.0481 39.4187 43.3186 39.775 42.6682C39.9719 42.3079 44.4719 37.6936 44.6687 37.6497C45.1656 37.5266 45.55 37.5881 45.8219 37.843Z" fill="#1D4386"/>
<path d="M21.7095 12.6272C21.4752 12.759 21.3252 13.1721 21.4189 13.427C21.5033 13.6203 24.8408 17.1184 25.3002 17.4787C25.5627 17.6897 26.0783 17.6809 26.3127 17.4612C26.6408 17.1535 26.5658 16.7229 26.097 16.2483C25.8814 16.0197 25.2345 15.3606 24.672 14.7805C22.7595 12.8029 22.4595 12.5393 22.1408 12.5393C21.9908 12.5393 21.7939 12.5832 21.7095 12.6272Z" fill="#1D4386"/>
<path d="M34.7595 12.8733C33.5127 14.1038 31.1314 16.6263 31.0752 16.7757C30.972 17.0218 31.0845 17.3557 31.3095 17.5052C31.5533 17.6634 32.0408 17.6722 32.2283 17.5227C32.3502 17.4348 34.422 15.3255 35.7627 13.928C36.2314 13.427 36.2877 13.0403 35.9408 12.7327C35.5939 12.4251 35.1627 12.4778 34.7595 12.8733Z" fill="#1D4386"/>
</svg>
