<svg width="65" height="64" viewBox="0 0 65 64" fill="none" xmlns="http://www.w3.org/2000/svg">
<ellipse cx="32.1876" cy="32" rx="32.1876" ry="32" fill="#CDF0F4"/>
<path d="M49.0106 59.4248C48.9123 59.424 48.8184 59.3855 48.7492 59.3176C48.68 59.2497 48.6412 59.158 48.6412 59.0624V46.0993C48.6578 42.0672 49.768 38.1108 51.8595 34.6298C54.4132 30.3038 55.1935 25.199 54.0442 20.3372C52.984 15.9936 50.4271 12.1341 46.7989 9.4011C43.1707 6.6681 38.69 5.22635 34.1025 5.3158C29.5149 5.40524 25.0972 7.02047 21.5844 9.89269C18.0716 12.7649 15.6757 16.7209 14.7952 21.1024C13.7266 25.8359 12.1637 30.4508 10.131 34.8752L9.94733 35.3032H17.3373C17.4361 35.3032 17.5308 35.3414 17.6007 35.4094C17.6705 35.4773 17.7097 35.5695 17.7097 35.6656V53.7591L34.3864 49.2075C34.4343 49.1922 34.4848 49.1865 34.535 49.1908C34.5852 49.1951 34.6339 49.2093 34.6783 49.2324C34.7227 49.2555 34.7618 49.2872 34.7932 49.3255C34.8247 49.3637 34.8478 49.4078 34.8613 49.455C34.8747 49.5022 34.8782 49.5516 34.8715 49.6002C34.8647 49.6488 34.8479 49.6955 34.8221 49.7375C34.7963 49.7796 34.762 49.8161 34.7212 49.8449C34.6805 49.8737 34.6341 49.8942 34.585 49.905L17.4357 54.5842C17.3803 54.5993 17.3222 54.6017 17.2657 54.5912C17.2093 54.5808 17.1561 54.5578 17.1103 54.524C17.0646 54.4902 17.0274 54.4466 17.0019 54.3965C16.9763 54.3465 16.963 54.2913 16.963 54.2354V36.0279H9.38726C9.32587 36.0278 9.26546 36.0129 9.21141 35.9846C9.15735 35.9562 9.11133 35.9154 9.07744 35.8656C9.04333 35.816 9.02247 35.7589 9.01675 35.6996C9.01102 35.6402 9.02062 35.5803 9.04467 35.5255L9.44188 34.595C11.4515 30.2159 12.9963 25.6487 14.0525 20.9643C14.9607 16.4146 17.4445 12.3055 21.0897 9.32195C24.7349 6.33844 29.3211 4.66093 34.0835 4.56916C38.846 4.47739 43.4969 5.9769 47.2606 8.81764C51.0243 11.6584 53.6734 15.6687 54.7661 20.1797C55.9578 25.2187 55.1491 30.5096 52.502 34.9931C50.4769 38.3639 49.4017 42.1949 49.3849 46.0993V59.0624C49.3849 59.1102 49.3752 59.1575 49.3564 59.2015C49.3376 59.2456 49.31 59.2856 49.2752 59.3193C49.2404 59.353 49.1991 59.3796 49.1537 59.3977C49.1083 59.4158 49.0596 59.425 49.0106 59.4248Z" fill="#1D7B86" stroke="#1D4386" stroke-width="1.12715"/>
<path d="M24.7171 59.4249C24.6183 59.4249 24.5236 59.3867 24.4538 59.3188C24.384 59.2508 24.3447 59.1587 24.3447 59.0626V52.223C24.3447 52.1269 24.384 52.0348 24.4538 51.9668C24.5236 51.8989 24.6183 51.8607 24.7171 51.8607C24.8159 51.8607 24.9106 51.8989 24.9804 51.9668C25.0503 52.0348 25.0895 52.1269 25.0895 52.223V59.0626C25.0895 59.1587 25.0503 59.2508 24.9804 59.3188C24.9106 59.3867 24.8159 59.4249 24.7171 59.4249Z" fill="#1D7B86" stroke="#1D4386" stroke-width="1.12715"/>
<path d="M50.6553 23.7274C50.564 23.7273 50.4759 23.6946 50.4078 23.6354C50.3397 23.5763 50.2963 23.4949 50.2859 23.4067C49.8941 20.0691 48.3518 16.9591 45.9104 14.5838C43.4691 12.2084 40.2727 10.7078 36.8424 10.3266C36.7938 10.3211 36.7468 10.3063 36.7041 10.2831C36.6614 10.2599 36.6238 10.2288 36.5935 10.1915C36.5632 10.1541 36.5407 10.1114 36.5273 10.0656C36.514 10.0198 36.51 9.97192 36.5157 9.92466C36.5281 9.82963 36.5784 9.74313 36.6556 9.6837C36.7328 9.62428 36.8309 9.59667 36.9288 9.60679C40.5256 10.0068 43.8771 11.5804 46.4369 14.0712C48.9967 16.562 50.6138 19.823 51.0247 23.3226C51.0303 23.3699 51.0264 23.4177 51.013 23.4635C50.9997 23.5093 50.9772 23.5521 50.9469 23.5894C50.9165 23.6267 50.8789 23.6579 50.8362 23.6811C50.7935 23.7042 50.7465 23.719 50.698 23.7245C50.6838 23.7264 50.6695 23.7274 50.6553 23.7274Z" fill="#1D7B86" stroke="#1D4386" stroke-width="1.12715"/>
<path d="M50.6543 23.7262C50.5998 23.7261 50.5459 23.7144 50.4965 23.6918C50.4471 23.6693 50.4033 23.6365 50.3684 23.5957L49.1628 22.1861C49.1208 22.1373 49.0928 22.0785 49.0816 22.0158C49.0705 21.9531 49.0765 21.8886 49.0992 21.8289C49.1219 21.7691 49.1604 21.7163 49.2108 21.6757C49.2612 21.6351 49.3217 21.6082 49.3863 21.5977L51.2432 21.2856C51.3077 21.2749 51.3739 21.2808 51.4353 21.3029C51.4966 21.3249 51.5509 21.3623 51.5927 21.4113C51.6345 21.4603 51.6623 21.5191 51.6732 21.5818C51.6842 21.6446 51.678 21.709 51.6553 21.7687L51.0039 23.4895C50.9814 23.5492 50.9431 23.6021 50.8929 23.6428C50.8427 23.6835 50.7823 23.7106 50.7179 23.7213C50.6969 23.7249 50.6756 23.7265 50.6543 23.7262ZM50.1479 22.2054L50.5282 22.6489L50.7338 22.1069L50.1479 22.2054Z" fill="#1D7B86" stroke="#1D4386" stroke-width="1.12715"/>
<path d="M36.8849 40.7178C36.7905 40.7168 36.7001 40.681 36.6319 40.6176C36.5636 40.5542 36.5226 40.468 36.5172 40.3764C36.5118 40.2847 36.5423 40.1945 36.6026 40.1239C36.663 40.0533 36.7486 40.0076 36.8422 39.9961C40.2724 39.6149 43.4688 38.1143 45.9102 35.7389C48.3515 33.3636 49.8938 30.2536 50.2856 26.916C50.2971 26.8206 50.347 26.7335 50.4245 26.6738C50.502 26.6142 50.6006 26.587 50.6987 26.5982C50.7968 26.6093 50.8863 26.6579 50.9476 26.7333C51.0089 26.8087 51.0369 26.9046 51.0254 27.0001C50.6152 30.5011 48.9977 33.7636 46.4368 36.2552C43.876 38.7469 40.5229 40.3206 36.9246 40.7198L36.8849 40.7178Z" fill="#1D7B86" stroke="#1D4386" stroke-width="1.12715"/>
<path d="M38.6533 41.351C38.6092 41.3512 38.5655 41.3436 38.5242 41.3288L36.7556 40.695C36.6945 40.6727 36.6405 40.6353 36.5989 40.5864C36.5573 40.5375 36.5296 40.4789 36.5186 40.4163C36.5075 40.3538 36.5135 40.2895 36.5359 40.2299C36.5584 40.1703 36.5964 40.1175 36.6464 40.0766L38.0952 38.9037C38.1458 38.8636 38.2062 38.8368 38.2706 38.826C38.3349 38.8151 38.4011 38.8206 38.4626 38.8419C38.5237 38.8643 38.5777 38.9019 38.6194 38.9508C38.661 38.9998 38.6888 39.0585 38.6999 39.1211L39.0207 40.9278C39.03 40.9799 39.0274 41.0333 39.0132 41.0842C38.999 41.1352 38.9735 41.1825 38.9385 41.2229C38.9035 41.2632 38.8598 41.2956 38.8105 41.3177C38.7612 41.3399 38.7075 41.3512 38.6533 41.351ZM37.6185 40.2322L38.1766 40.4322L38.0773 39.8621L37.6185 40.2322Z" fill="#1D7B86" stroke="#1D4386" stroke-width="1.12715"/>
<path d="M33.1895 40.718H33.1458C29.5475 40.3189 26.1944 38.7452 23.6336 36.2535C21.0727 33.7619 19.4552 30.4994 19.045 26.9984C19.0335 26.9029 19.0615 26.8069 19.1228 26.7316C19.1841 26.6562 19.2736 26.6076 19.3717 26.5964C19.4698 26.5853 19.5684 26.6125 19.6459 26.6721C19.7234 26.7317 19.7733 26.8189 19.7848 26.9143C20.1763 30.2528 21.719 33.3637 24.1612 35.7395C26.6034 38.1153 29.8009 39.6158 33.2322 39.9963C33.3258 40.0079 33.4114 40.0535 33.4717 40.1241C33.532 40.1947 33.5626 40.2849 33.5571 40.3766C33.5517 40.4682 33.5108 40.5544 33.4425 40.6178C33.3743 40.6812 33.2838 40.717 33.1895 40.718Z" fill="#1D7B86" stroke="#1D4386" stroke-width="1.12715"/>
<path d="M18.7692 29.0398C18.7097 29.0397 18.651 29.0258 18.5982 28.9991C18.5454 28.9724 18.4999 28.9338 18.4657 28.8864C18.4314 28.8391 18.4093 28.7844 18.4013 28.727C18.3933 28.6696 18.3996 28.6112 18.4197 28.5567L19.0701 26.8359C19.0927 26.7763 19.1311 26.7235 19.1813 26.6828C19.2316 26.6422 19.2919 26.6151 19.3563 26.6044C19.4207 26.5936 19.4869 26.5995 19.5482 26.6215C19.6095 26.6435 19.6638 26.6808 19.7056 26.7296L20.9121 28.1383C20.954 28.1871 20.9819 28.2457 20.9931 28.3083C21.0042 28.3709 20.9982 28.4352 20.9757 28.4948C20.9529 28.5547 20.9144 28.6076 20.8641 28.6485C20.8137 28.6893 20.7533 28.7166 20.6887 28.7277L18.8318 29.0388C18.811 29.0406 18.7901 29.0409 18.7692 29.0398ZM19.5467 27.6717L19.3412 28.2137L19.9271 28.1171L19.5467 27.6717Z" fill="#1D7B86" stroke="#1D4386" stroke-width="1.12715"/>
<path d="M19.4207 23.7269H19.377C19.279 23.7155 19.1896 23.6668 19.1284 23.5915C19.0672 23.5162 19.0391 23.4203 19.0503 23.3249C19.4608 19.8245 21.0782 16.5627 23.6386 14.0715C26.1991 11.5803 29.5515 10.0066 33.1491 9.60718C33.1977 9.60166 33.2469 9.60551 33.2939 9.61849C33.341 9.63148 33.3849 9.65336 33.4233 9.68288C33.4617 9.71239 33.4937 9.74897 33.5175 9.79052C33.5413 9.83208 33.5565 9.87779 33.5622 9.92505C33.5679 9.97232 33.5639 10.0202 33.5506 10.066C33.5372 10.1118 33.5147 10.1545 33.4844 10.1919C33.4541 10.2292 33.4165 10.2603 33.3738 10.2835C33.3311 10.3067 33.2841 10.3215 33.2355 10.327C29.804 10.7078 26.6065 12.2089 24.1647 14.5853C21.7228 16.9617 20.1807 20.0731 19.7901 23.4119C19.7781 23.499 19.734 23.5789 19.6661 23.6368C19.5982 23.6947 19.511 23.7267 19.4207 23.7269Z" fill="#1D7B86" stroke="#1D4386" stroke-width="1.12715"/>
<path d="M31.7446 11.5023C31.7006 11.5024 31.6569 11.4949 31.6155 11.48C31.5543 11.458 31.5 11.4207 31.4582 11.3719C31.4164 11.3231 31.3884 11.2644 31.3772 11.2018L31.0575 9.39504C31.0466 9.33232 31.0528 9.26793 31.0754 9.20826C31.0981 9.14859 31.1364 9.09574 31.1866 9.05495C31.2372 9.01482 31.2976 8.98805 31.3619 8.97722C31.4263 8.96639 31.4924 8.97186 31.554 8.99311L33.3215 9.62789C33.3828 9.64991 33.4371 9.68724 33.4789 9.73613C33.5207 9.78502 33.5485 9.84374 33.5595 9.9064C33.5706 9.96906 33.5645 10.0334 33.5419 10.0931C33.5193 10.1528 33.481 10.2056 33.4308 10.2462L31.983 11.4192C31.9159 11.473 31.8316 11.5024 31.7446 11.5023ZM31.9015 9.89069L32.0008 10.4607L32.4576 10.0907L31.9015 9.89069Z" fill="#1D7B86" stroke="#1D4386" stroke-width="1.12715"/>
<path d="M42.5697 35.3055C42.3949 35.3055 42.2162 35.2968 42.0325 35.2795C41.1422 35.2603 40.295 34.9027 39.6723 34.2833C39.0496 33.6639 38.701 32.8319 38.7009 31.9655C38.6135 29.9916 39.9183 27.6245 42.0007 27.2486C44.796 26.7433 44.658 25.3791 44.6511 25.3163C44.6405 25.2315 44.6607 25.1458 44.7082 25.074C44.7557 25.0022 44.8275 24.9488 44.9112 24.923C44.9946 24.8976 45.0845 24.9016 45.1651 24.9343C45.2458 24.967 45.312 25.0263 45.3521 25.1018C46.9797 28.2051 47.1515 31.7529 45.7672 33.7278C45.4171 34.2346 44.9394 34.6457 44.3797 34.9219C43.8199 35.1981 43.1968 35.3302 42.5697 35.3055ZM45.1158 26.3481C44.7707 26.8127 44.3251 27.1979 43.8104 27.4767C43.2957 27.7555 42.7244 27.921 42.1367 27.9616C40.4605 28.2641 39.3732 30.2979 39.4447 31.9346C39.4418 32.6252 39.7199 33.2889 40.2184 33.7806C40.7169 34.2723 41.3952 34.5521 42.105 34.5587C42.681 34.6574 43.2739 34.5936 43.8138 34.3748C44.3537 34.1559 44.8179 33.7913 45.1515 33.3239C46.2409 31.7693 46.2002 28.952 45.1158 26.3481Z" fill="#1D7B86" stroke="#1D4386" stroke-width="1.12715"/>
<path d="M36.9561 36.6111C36.863 36.6114 36.7732 36.5778 36.7043 36.5168C36.6354 36.4559 36.5925 36.372 36.5841 36.2818C36.5756 36.1916 36.6022 36.1016 36.6585 36.0295C36.7149 35.9574 36.797 35.9084 36.8886 35.8923C38.2904 35.6041 39.6067 35.0102 40.7385 34.1553C41.8703 33.3005 42.788 32.2069 43.4226 30.9571C43.4412 30.912 43.4688 30.8711 43.5039 30.8366C43.539 30.8022 43.5809 30.775 43.627 30.7566C43.6732 30.7382 43.7227 30.729 43.7725 30.7295C43.8224 30.7301 43.8716 30.7404 43.9173 30.7598C43.963 30.7792 44.0042 30.8073 44.0385 30.8425C44.0728 30.8778 44.0995 30.9193 44.117 30.9647C44.1345 31.0102 44.1424 31.0586 44.1403 31.107C44.1382 31.1555 44.1262 31.2031 44.1048 31.2469C43.4295 32.6113 42.4386 33.8049 41.2099 34.7344C39.9812 35.6638 38.548 36.3039 37.0226 36.6044C37.0007 36.6088 36.9784 36.6111 36.9561 36.6111Z" fill="#1D7B86" stroke="#1D4386" stroke-width="1.12715"/>
<path d="M35.7653 24.5288C35.44 24.5284 35.1166 24.4802 34.806 24.3858C34.0887 24.1625 33.4365 23.776 32.9034 23.2583C32.6535 23.0257 32.4313 22.7664 32.2411 22.4854C31.9849 22.1076 31.8047 21.686 31.7098 21.2429C31.4987 20.2463 31.5458 19.2144 31.8469 18.24C31.9216 17.951 32.0145 17.6667 32.1249 17.3888C32.8412 15.6338 33.9001 14.0304 35.243 12.6671C35.2776 12.6308 35.3195 12.6017 35.3662 12.5818C35.4128 12.5618 35.4631 12.5514 35.5141 12.5511C35.5648 12.5517 35.615 12.5619 35.6617 12.5813C35.7084 12.6007 35.7507 12.6289 35.7861 12.6642C36.699 13.5829 37.4964 14.6039 38.1614 15.7057C38.5319 16.3134 38.8443 16.9527 39.0949 17.6158C39.3481 18.2745 39.5062 18.9642 39.5646 19.6651C39.6387 20.4078 39.5368 21.1571 39.2667 21.8554C39.2121 21.9926 39.1564 22.1114 39.0899 22.2419C38.8152 22.8046 38.4136 23.2999 37.915 23.6908C37.4164 24.0817 36.8337 24.3582 36.2102 24.4998C36.0628 24.52 35.9141 24.5297 35.7653 24.5288ZM35.52 13.4478C34.3643 14.6751 33.4493 16.0979 32.82 17.6458C32.7198 17.8983 32.6352 18.1564 32.5668 18.4187C32.3008 19.281 32.2561 20.1937 32.4367 21.0767C32.5117 21.4346 32.6563 21.7754 32.8627 22.0805C33.0231 22.3181 33.2107 22.5372 33.4218 22.7337C33.87 23.1709 34.4187 23.4981 35.0225 23.6882C35.3722 23.7952 35.7419 23.8252 36.1049 23.7762C36.6096 23.6511 37.0794 23.4185 37.4804 23.0952C37.8814 22.7719 38.2036 22.3659 38.4236 21.9066C38.4785 21.8027 38.5275 21.6959 38.5706 21.5868C38.8009 20.9897 38.8869 20.349 38.8218 19.7144V19.7086C38.7677 19.0743 38.6236 18.4504 38.3938 17.8545C38.1587 17.2345 37.8655 16.6368 37.518 16.069C36.9514 15.1275 36.2815 14.2486 35.52 13.4478Z" fill="#1D7B86" stroke="#1D4386" stroke-width="1.12715"/>
<path d="M26.4603 36.611C26.4 36.6108 26.3407 36.5963 26.2874 36.5689C26.2342 36.5415 26.1885 36.5019 26.1543 36.4536C26.1202 36.4053 26.0986 36.3496 26.0913 36.2914C26.0841 36.2332 26.0914 36.1741 26.1128 36.1193L27.788 31.8555H23.7563C23.6827 31.8555 23.6108 31.8342 23.5496 31.7944C23.4884 31.7546 23.4408 31.698 23.4126 31.6318C23.3844 31.5657 23.3771 31.4929 23.3914 31.4226C23.4058 31.3524 23.4412 31.2879 23.4932 31.2372L29.8872 25.016C29.9457 24.9592 30.0219 24.923 30.1038 24.913C30.1858 24.903 30.2688 24.9198 30.3399 24.9607C30.411 25.0016 30.4661 25.0644 30.4965 25.1391C30.5269 25.2139 30.5309 25.2963 30.5078 25.3735L29.4066 29.0546H33.478C33.5516 29.0545 33.6237 29.0756 33.685 29.1154C33.7464 29.1551 33.7942 29.2116 33.8225 29.2779C33.8508 29.3441 33.8582 29.4169 33.8439 29.4873C33.8296 29.5576 33.7942 29.6222 33.7421 29.6729L26.7205 36.5048C26.6513 36.5719 26.558 36.61 26.4603 36.611ZM24.654 31.1309H28.3282C28.3886 31.1307 28.4482 31.1449 28.5017 31.1722C28.5553 31.1995 28.6012 31.2391 28.6354 31.2875C28.6697 31.336 28.6912 31.3918 28.6983 31.4502C28.7053 31.5086 28.6975 31.5678 28.6757 31.6227L27.4305 34.7908L32.5823 29.7792H28.9081C28.8504 29.7791 28.7935 29.7659 28.7419 29.7407C28.6903 29.7154 28.6455 29.6789 28.6109 29.6339C28.5763 29.5889 28.553 29.5368 28.5427 29.4815C28.5324 29.4262 28.5354 29.3694 28.5516 29.3155L29.3847 26.5271L24.654 31.1309Z" fill="#1D7B86" stroke="#1D4386" stroke-width="1.12715"/>
</svg>
