<svg width="64" height="65" viewBox="0 0 64 65" fill="none" xmlns="http://www.w3.org/2000/svg">
<ellipse cx="32" cy="32.4986" rx="32" ry="32.4986" fill="#CDF0F4"/>
<g clip-path="url(#clip0_196_772)">
<path d="M31.6187 12.6201C31.3214 12.7687 29.499 14.5676 29.3426 14.857C29.1314 15.2716 29.4051 15.7018 29.8823 15.7018C30.0622 15.7018 30.2968 15.5219 31.079 14.7475L32.0567 13.7933L35.2166 16.9532L38.3843 20.1209L35.2166 23.2887L32.0488 26.4564L28.8811 23.2887L25.7212 20.1288L27.0821 18.7443C28.3492 17.4694 28.4509 17.3443 28.4509 17.0784C28.4509 16.7186 28.2241 16.4839 27.8878 16.4839C27.6688 16.4839 27.4576 16.6638 26.1592 17.9465C25.3458 18.76 24.634 19.5109 24.5714 19.6282C24.5088 19.7455 24.4619 19.988 24.4619 20.1757V20.5042L27.4185 23.4686C31.8846 27.9503 31.6578 27.7392 32.0488 27.7392C32.1583 27.7392 32.3226 27.7 32.4086 27.6453C32.6511 27.5123 38.9709 21.2942 39.3307 20.8405C39.667 20.4182 39.7296 20.0193 39.5263 19.6282C39.3542 19.2997 32.6667 12.6748 32.4165 12.581C32.1114 12.4636 31.8924 12.4714 31.6187 12.6201Z" fill="#1D4386"/>
<path d="M23.4997 14.7397C21.5756 16.6091 20.5979 19.0181 20.7308 21.5601C20.7856 22.4909 20.989 23.5781 21.208 24.11C21.38 24.5167 21.3722 24.5401 21.0672 24.4854C20.5588 24.4072 20.2068 25.0016 20.5353 25.3927C20.6839 25.5726 21.9354 26.0262 22.2873 26.0262C22.608 26.0262 22.9522 25.8307 23.0851 25.5726C23.2259 25.2988 23.5231 24.1569 23.5231 23.891C23.5231 23.6485 23.1946 23.3669 22.9209 23.3669C22.8192 23.3669 22.6471 23.4529 22.5376 23.5625L22.3421 23.758L22.2639 23.539C21.9432 22.6943 21.8024 21.1847 21.951 20.1522C22.2169 18.3533 23.0147 16.8281 24.3522 15.5532C24.8763 15.0526 25.0092 14.8805 25.0092 14.7006C25.0092 14.3799 24.7511 14.1375 24.407 14.1375C24.1645 14.1375 24.0472 14.2157 23.4997 14.7397Z" fill="#1D4386"/>
<path d="M40.2851 14.5989C39.8236 14.8883 39.7767 15.0448 39.808 16.0537C39.8314 16.9063 39.8471 16.9767 40.0191 17.1175C40.3868 17.4147 40.8639 17.2426 40.9577 16.7811L41.0125 16.523L41.3723 17.1097C42.1935 18.4237 42.4829 19.4952 42.4829 21.1769C42.4829 22.6473 42.3421 23.273 41.7008 24.6105C41.4661 25.0955 41.2784 25.5413 41.2784 25.5961C41.2784 25.6508 41.3488 25.7838 41.4427 25.9011C41.6538 26.167 42.0606 26.1827 42.2952 25.9246C42.3891 25.8307 42.6159 25.4318 42.8036 25.0485C44.188 22.2015 43.9534 18.8539 42.1935 16.2258C41.9745 15.9051 41.8807 15.7018 41.9432 15.7018C42.1544 15.7018 42.436 15.5219 42.522 15.3342C42.6472 15.0604 42.6315 14.9509 42.436 14.7319C42.2718 14.552 42.1857 14.5285 41.3957 14.4894C40.6214 14.4425 40.5119 14.4581 40.2851 14.5989Z" fill="#1D4386"/>
<path d="M31.6814 29.2644L31.4624 29.4521L31.4389 30.9539L31.4077 32.4478L30.8758 31.8925C30.3752 31.3762 30.3205 31.3371 30.0467 31.3606C29.6713 31.3919 29.421 31.6969 29.4992 32.0176C29.5618 32.2679 31.2512 34.0277 31.5954 34.2076C31.7127 34.2702 31.9161 34.3171 32.049 34.3171C32.182 34.3171 32.3854 34.2702 32.5027 34.2076C32.8468 34.0277 34.5363 32.2679 34.5989 32.0176C34.6771 31.6969 34.4268 31.3919 34.0513 31.3606C33.7776 31.3371 33.7228 31.3762 33.2223 31.8925L32.6904 32.4478L32.6591 30.9539L32.6356 29.4521L32.4166 29.2644C32.2993 29.1627 32.1272 29.0767 32.049 29.0767C31.9708 29.0767 31.7987 29.1627 31.6814 29.2644Z" fill="#1D4386"/>
<path d="M24.4229 30.2421C24.2977 30.3203 22.6317 31.955 20.7311 33.8635L17.2661 37.3363V37.6648C17.2661 37.8525 17.313 38.095 17.3756 38.2123C17.4382 38.3296 19.8472 40.7778 22.7256 43.6483L27.9582 48.8731L28.2554 48.8496C28.6387 48.8183 28.889 48.5211 28.8108 48.1926C28.7716 48.0518 28.2007 47.4183 27.2308 46.4406L25.7134 44.9076L28.8811 41.7476L32.0489 38.5799L35.2166 41.7476L38.3844 44.9154L35.2166 48.0831L32.0567 51.243L31.2824 50.4922C30.4924 49.71 30.2343 49.5692 29.9214 49.7335C29.6789 49.8586 29.6242 49.9525 29.6242 50.2732C29.6242 50.5156 29.7181 50.6408 30.5862 51.4933C31.5874 52.4945 31.7908 52.6118 32.2992 52.5023C32.5104 52.4554 33.9417 51.071 39.5811 45.4394C43.4449 41.5756 46.6596 38.3296 46.7221 38.2123C46.7847 38.095 46.8316 37.8525 46.8316 37.6648V37.3285L43.2572 33.754C40.856 31.3606 39.6045 30.1639 39.4637 30.1248C39.3386 30.1013 39.1509 30.1013 39.0335 30.1326C38.8849 30.1639 37.6804 31.3137 35.4278 33.5585L32.0489 36.9374L28.7012 33.5976C26.8632 31.7673 25.2832 30.2265 25.1894 30.1795C24.9391 30.0544 24.6888 30.0779 24.4229 30.2421ZM28.0599 34.5909L31.2276 37.7586L28.0599 40.9264L24.8921 44.0941L21.7088 40.9107L18.5176 37.7195L21.6618 34.5753C23.3982 32.8389 24.8296 31.4232 24.853 31.4232C24.8765 31.4232 26.3157 32.8467 28.0599 34.5909ZM42.4359 34.5753L45.5802 37.7195L42.389 40.9107L39.2056 44.0941L36.0379 40.9264L32.8701 37.7586L36.0379 34.5909C37.7821 32.8467 39.2213 31.4232 39.2447 31.4232C39.2682 31.4232 40.6995 32.8389 42.4359 34.5753Z" fill="#1D4386"/>
</g>
<defs>
<clipPath id="clip0_196_772">
<rect width="40.0464" height="40.0464" fill="white" transform="translate(12.0259 12.495)"/>
</clipPath>
</defs>
</svg>
