<svg width="64" height="66" viewBox="0 0 64 66" fill="none" xmlns="http://www.w3.org/2000/svg">
<ellipse cx="32" cy="33" rx="32" ry="32.4841" fill="#CDF0F4"/>
<g clip-path="url(#clip0_196_747)">
<path d="M15.2555 13.9742C14.8484 14.1102 14.1505 14.8409 14.0259 15.2743C13.8846 15.7756 13.8846 30.9858 14.0259 31.4871C14.1588 31.9544 14.8484 32.6597 15.3053 32.7957C15.5463 32.8637 16.535 32.8976 18.6286 32.8976H21.6113L22.143 33.5604L22.6665 34.2147L19.6921 34.2572C16.9919 34.2997 16.6762 34.3167 16.3937 34.4611C15.9866 34.6651 15.4798 35.2684 15.3552 35.6848C15.2139 36.1691 15.2139 50.0282 15.3552 50.521C15.4881 50.9884 16.1777 51.6936 16.6347 51.8296C16.8839 51.9061 18.0138 51.9316 20.6226 51.9316L24.27 51.9401L25.7904 53.8095C27.4022 55.7978 27.6514 56.0103 28.2995 56.0103C28.6567 56.0103 29.1885 55.7638 29.4377 55.4919C29.8116 55.0756 29.8781 54.7442 29.8781 53.2911V51.9316H33.6666C36.4001 51.9316 37.5549 51.9061 37.8042 51.8296C38.2611 51.6936 38.9507 50.9884 39.0836 50.521C39.1584 50.2576 39.1833 48.6516 39.1833 44.25V38.3359H39.848H40.5127V39.7125C40.5127 40.8766 40.5376 41.1485 40.6705 41.4374C41.0444 42.2786 41.9251 42.6185 42.731 42.2532C43.0051 42.1257 43.3873 41.7008 44.6003 40.2138L46.1208 38.3444L49.7681 38.3359C52.3769 38.3359 53.5068 38.3104 53.7561 38.2339C54.213 38.098 54.9026 37.3927 55.0355 36.9254C55.1768 36.424 55.1768 21.2139 55.0355 20.7295C54.9857 20.5426 54.778 20.2027 54.5786 19.9818C53.9389 19.251 54.6617 19.302 44.3179 19.302H35.1954V17.4666C35.1954 16.2855 35.1621 15.5037 35.0957 15.2913C35.0458 15.1043 34.8381 14.7644 34.6387 14.5435C33.999 13.8128 34.7052 13.8637 24.5275 13.8722C18.2298 13.8807 15.4632 13.9062 15.2555 13.9742ZM33.6583 15.4357L33.866 15.6397V23.3807V31.1217L33.6583 31.3256L33.4589 31.5381H29.6704H25.8901V33.5264C25.8901 35.2939 25.8735 35.5233 25.7571 35.5658C25.5661 35.6423 25.4996 35.5743 23.7549 33.433L22.2095 31.5381H18.936H15.6626L15.4632 31.3256L15.2555 31.1217V23.3807V15.6397L15.4632 15.4357L15.6626 15.2233H24.5608H33.4589L33.6583 15.4357ZM53.5982 20.874L53.8059 21.0779V28.819V36.56L53.5982 36.7639L53.3988 36.9763H49.4607H45.5309L43.9357 38.9222C43.0633 39.9844 42.2906 40.9021 42.2325 40.9616C42.166 41.0126 42.0497 41.038 41.9749 41.0041C41.8586 40.9616 41.842 40.7236 41.842 38.9647V36.9763H37.3971H32.9438L32.7444 36.7639C32.5367 36.56 32.5367 36.56 32.5367 34.7246V32.8976H33.002C33.2595 32.8976 33.6251 32.8552 33.8162 32.7957C34.2731 32.6597 34.9627 31.9544 35.0957 31.4871C35.1704 31.2237 35.1954 29.7621 35.1954 25.8959V20.6616H44.2929H53.3988L53.5982 20.874ZM31.2074 33.5774V34.2572H29.2134H27.2194V33.5774V32.8976H29.2134H31.2074V33.5774ZM24.2367 36.1436C24.918 36.9424 25.5494 37.1548 26.264 36.8149C26.6628 36.628 26.9203 36.356 27.0948 35.9312L27.2194 35.6168H29.2134H31.2074V36.0926C31.2074 36.356 31.2489 36.7299 31.3071 36.9254C31.44 37.3927 32.1296 38.098 32.5866 38.2339C32.8192 38.3019 33.6999 38.3359 35.3948 38.3359H37.854V44.2415V50.1556L37.6463 50.3596L37.4469 50.572H32.9937H28.5487V52.5604C28.5487 54.3278 28.5321 54.5572 28.4158 54.5997C28.2247 54.6762 28.1416 54.5912 26.4052 52.4584L24.8682 50.572H20.93H16.9919L16.7925 50.3596L16.5848 50.1556V43.0944V36.0331L16.7925 35.8292L16.9919 35.6168H20.3983H23.7964L24.2367 36.1436Z" fill="#1D4386"/>
<path d="M20.9129 18.0701C19.4922 18.4779 18.3872 19.693 18.0299 21.2226C17.8638 21.9703 17.9136 23.041 18.1712 23.7887C18.5201 24.8339 18.8441 25.1993 21.7687 27.8589C23.2642 29.227 24.527 30.3486 24.5686 30.3486C24.6599 30.3486 29.8609 25.6072 30.1517 25.2588C30.7582 24.5195 31.1155 23.5763 31.1819 22.5311C31.4063 18.9708 27.7839 16.7105 25.0006 18.6734L24.5602 18.9793L24.1199 18.6734C23.879 18.5034 23.4802 18.2825 23.2309 18.189C22.6327 17.9511 21.5277 17.9001 20.9129 18.0701ZM22.9318 19.5486C23.1561 19.6421 23.5965 19.9904 23.9454 20.3388L24.5602 20.9421L25.1751 20.3388C25.956 19.5571 26.3798 19.3616 27.2272 19.3532C27.7506 19.3532 27.9417 19.3956 28.3239 19.5826C28.8806 19.863 29.3209 20.3473 29.62 20.9931C29.8028 21.401 29.836 21.5794 29.836 22.2762C29.836 22.973 29.8028 23.1514 29.6117 23.5678C29.4871 23.8397 29.2129 24.2561 28.9886 24.494C28.5067 25.0208 24.6599 28.5217 24.5686 28.5217C24.4689 28.5217 20.5224 24.9359 20.0904 24.4515C18.6281 22.8285 19.1599 20.1604 21.0874 19.4551C21.6357 19.2597 22.3752 19.2937 22.9318 19.5486Z" fill="#1D4386"/>
<path d="M44.2433 22.1316C43.5121 22.412 43.1632 22.8284 42.889 23.7546C42.6398 24.5618 42.1911 25.3775 41.6926 25.9299L41.3021 26.3632L41.0363 26.2273C40.8119 26.1083 40.5045 26.0913 39.0672 26.1168C37.2061 26.1423 37.1563 26.1593 36.7409 26.7286C36.5664 26.958 36.5664 27.0515 36.5664 30.8583C36.5664 34.6651 36.5664 34.7585 36.7409 34.988C37.1563 35.5573 37.1978 35.5743 39.0838 35.5998C41.028 35.6253 41.2024 35.5828 41.5846 34.9965L41.784 34.6906L42.0831 34.8435C42.5899 35.1069 43.6949 35.4298 44.4427 35.5318C44.8581 35.5913 45.9714 35.6168 47.1678 35.5998C49.1867 35.5743 49.195 35.5743 49.6187 35.3449C50.2501 35.005 50.5077 34.75 50.8234 34.1552L51.1059 33.6199V30.8583V28.0967L50.8816 27.6633C50.5492 27.0175 50.3 26.7541 49.7184 26.4397C49.2282 26.1763 49.1285 26.1508 48.2562 26.1168L47.309 26.0743L47.3838 25.556C47.55 24.3069 47.3921 23.6186 46.7773 22.8878C46.2123 22.2081 44.991 21.8427 44.2433 22.1316ZM45.3566 23.4996C45.6889 23.6356 46.0462 24.052 46.1209 24.3834C46.1459 24.5193 46.0711 25.2076 45.9548 25.9044C45.8385 26.6097 45.7471 27.2469 45.7471 27.3149C45.7471 27.4339 45.9714 27.4509 47.3589 27.4764C49.1285 27.5019 49.195 27.5189 49.6021 28.0882C49.7683 28.3091 49.7766 28.4281 49.7766 30.8583C49.7766 33.2885 49.7683 33.4075 49.6021 33.6284C49.1867 34.2062 49.1618 34.2147 47.093 34.2402C44.559 34.2742 43.6866 34.1382 42.3656 33.4755L41.8422 33.212V30.4929V27.7738L42.3905 27.179C43.13 26.3887 43.6783 25.4965 43.994 24.6128C44.1353 24.2134 44.2516 23.848 44.2516 23.8055C44.2516 23.6696 44.6836 23.3807 44.8913 23.3807C44.9993 23.3807 45.207 23.4317 45.3566 23.4996ZM40.5128 30.8583V34.2572H39.1835H37.8542V30.8583V27.4594H39.1835H40.5128V30.8583Z" fill="#1D4386"/>
<path d="M26.5967 38.4124C25.8323 38.6163 25.1594 39.1771 24.8104 39.9079C24.6443 40.2563 24.611 40.4687 24.611 41.055C24.611 41.6753 24.6443 41.8368 24.8354 42.2191C24.96 42.4571 25.0929 42.678 25.1428 42.712C25.2923 42.8055 25.2341 42.8989 24.8021 43.1708L24.3784 43.4342L24.4532 43.1623C24.4864 43.0094 24.5196 42.61 24.5113 42.2871C24.5113 41.7773 24.4615 41.6073 24.2288 41.157C23.9214 40.5622 23.6639 40.3073 23.0325 39.9674C22.6669 39.7804 22.509 39.7464 21.9025 39.7464C21.0717 39.7464 20.5732 39.9504 20.0332 40.5027C19.4931 41.055 19.2937 41.5648 19.2937 42.4146C19.2937 43.1368 19.4017 43.4767 19.8504 44.1395C19.9335 44.267 19.9252 44.3095 19.7839 44.3859C19.41 44.6069 18.6623 45.4226 18.4214 45.89C18.0475 46.6122 17.9146 47.241 17.9146 48.2947V49.2124H18.5709H19.2273L19.2605 48.1757C19.2937 47.3005 19.327 47.0626 19.5014 46.7057C20.0581 45.5161 21.3791 44.8958 22.5921 45.2527C22.8497 45.3291 23.0657 45.4226 23.0657 45.4566C23.0657 45.4906 23.0325 45.652 22.9826 45.8135C22.8995 46.1279 22.5589 49.0594 22.6004 49.1019C22.6337 49.1359 23.8467 49.2889 23.8716 49.2634C23.8799 49.2549 23.9713 48.5751 24.0627 47.7594C24.1541 46.9436 24.2621 46.1619 24.3036 46.0174C24.5861 45.0147 25.392 44.199 26.3807 43.9101C27.9842 43.4342 29.6708 44.3859 30.136 46.0174C30.1776 46.1619 30.2856 46.9436 30.377 47.7594C30.4684 48.5751 30.5598 49.2549 30.5681 49.2634C30.593 49.2889 31.806 49.1359 31.8392 49.1019C31.8808 49.0594 31.5401 46.1279 31.4571 45.8135C31.4072 45.652 31.374 45.4906 31.374 45.4566C31.374 45.3121 32.3294 45.1167 32.803 45.1677C33.7086 45.2612 34.4314 45.7625 34.8635 46.5952C35.1293 47.1051 35.1459 47.1816 35.1792 48.1672L35.2124 49.2124H35.8688H36.5251V48.2947C36.5251 47.241 36.3922 46.6122 36.0183 45.89C35.7774 45.4226 35.0296 44.6069 34.6557 44.3859C34.5145 44.3095 34.5062 44.267 34.5893 44.1395C35.0379 43.4767 35.1459 43.1368 35.1459 42.4146C35.1542 41.7518 35.1293 41.6498 34.8718 41.157C34.556 40.5622 34.2902 40.3073 33.6671 39.9674C33.3015 39.7804 33.1436 39.7464 32.5371 39.7464C31.9639 39.7464 31.7562 39.7804 31.4155 39.9504C30.8838 40.2138 30.3853 40.7321 30.136 41.2674C29.92 41.7263 29.8536 42.6185 29.9865 43.1623L30.0613 43.4342L29.6375 43.1708C29.4049 43.0179 29.2138 42.8904 29.2138 42.8734C29.2138 42.8564 29.3052 42.7035 29.4215 42.5335C29.9616 41.7263 30.0031 40.6641 29.5295 39.7634C29.2387 39.2026 28.9646 38.9392 28.3664 38.6248C27.9177 38.3954 27.0454 38.2849 26.5967 38.4124ZM27.7433 39.8144C28.599 40.1798 28.8067 41.3184 28.142 41.9982C27.602 42.5505 26.8376 42.5505 26.2976 41.9982C25.2674 40.953 26.4056 39.2366 27.7433 39.8144ZM22.4259 41.174C23.2817 41.5394 23.4894 42.678 22.8247 43.3578C22.2847 43.9101 21.5203 43.9101 20.9803 43.3578C19.9501 42.3126 21.0883 40.5962 22.4259 41.174ZM33.0606 41.174C33.9163 41.5394 34.124 42.678 33.4594 43.3578C32.9193 43.9101 32.155 43.9101 31.6149 43.3578C30.5847 42.3126 31.7229 40.5962 33.0606 41.174Z" fill="#1D4386"/>
</g>
<defs>
<clipPath id="clip0_196_747">
<rect width="42" height="43" fill="white" transform="translate(14 14)"/>
</clipPath>
</defs>
</svg>
