<svg width="608" height="554" viewBox="0 0 608 554" fill="none" xmlns="http://www.w3.org/2000/svg">
<path d="M242.975 480.69C256.118 528.663 307.378 560.208 356.009 552.322C410.554 543.121 448.013 491.862 438.813 437.316C435.251 415.338 429.897 393.963 422.907 373.344C369.284 215.169 219.355 101.499 43.1937 101.499C-178.931 101.499 -358.34 281.234 -358.34 502.702C-358.34 336.436 -223.619 201.39 -57.354 201.39C63.2484 201.39 167.222 272.439 215.305 374.701C230.628 407.29 240.275 443.05 242.975 480.69Z" fill="url(#paint0_linear_87_697)"/>
<path d="M-358.34 502.702C-358.34 226.031 -133.258 0.949219 143.413 0.949219C345.165 0.949219 518.821 119.241 598.34 290.764C598.696 291.507 599.041 292.252 599.376 293C620.667 340.521 599.067 396.916 551.189 418.913C503.576 441.742 446.252 421.198 422.907 373.344C422.731 372.982 422.556 372.619 422.383 372.254C368.495 214.532 219.316 101.497 43.1937 101.497C-178.931 101.497 -358.34 281.234 -358.34 502.702Z" fill="url(#paint1_linear_87_697)"/>
<defs>
<linearGradient id="paint0_linear_87_697" x1="124.619" y1="0.949219" x2="124.619" y2="553.529" gradientUnits="userSpaceOnUse">
<stop stop-color="#85E4D9"/>
<stop offset="1" stop-color="#85E4D9" stop-opacity="0"/>
</linearGradient>
<linearGradient id="paint1_linear_87_697" x1="124.619" y1="0.949219" x2="124.619" y2="553.529" gradientUnits="userSpaceOnUse">
<stop stop-color="#F1E4B6"/>
<stop offset="1" stop-color="#F1E4B6" stop-opacity="0"/>
</linearGradient>
</defs>
</svg>
