<svg width="66" height="64" viewBox="0 0 66 64" fill="none" xmlns="http://www.w3.org/2000/svg">
<ellipse cx="33.623" cy="32" rx="32" ry="31.8135" fill="#CDF0F4"/>
<path d="M51.291 21.1508H43.4346C43.3224 21.1508 43.2149 21.1068 43.1356 21.0284C43.0563 20.95 43.0117 20.8437 43.0117 20.7329C43.0117 20.622 43.0563 20.5157 43.1356 20.4373C43.2149 20.3589 43.3224 20.3149 43.4346 20.3149H51.291C51.9601 20.3149 52.6142 20.1188 53.1705 19.7514C53.7268 19.384 54.1604 18.8619 54.4165 18.2509C54.6725 17.64 54.7395 16.9677 54.609 16.3191C54.4785 15.6705 54.1563 15.0748 53.6831 14.6072C53.21 14.1396 52.6072 13.8211 51.951 13.6921C51.2948 13.5631 50.6146 13.6293 49.9964 13.8824C49.3782 14.1354 48.8499 14.564 48.4782 15.1138C48.1064 15.6637 47.908 16.3101 47.908 16.9714C47.908 17.0822 47.8635 17.1885 47.7842 17.2669C47.7049 17.3453 47.5973 17.3893 47.4851 17.3893C47.373 17.3893 47.2654 17.3453 47.1861 17.2669C47.1068 17.1885 47.0623 17.0822 47.0623 16.9714C47.0618 16.1435 47.3098 15.3342 47.7749 14.6456C48.2399 13.9571 48.9012 13.4203 49.6749 13.1033C50.4487 12.7862 51.3002 12.7031 52.1218 12.8644C52.9433 13.0257 53.698 13.4242 54.2904 14.0095C54.8828 14.5948 55.2862 15.3406 55.4496 16.1526C55.6131 16.9645 55.5292 17.8061 55.2086 18.5709C54.888 19.3358 54.3451 19.9894 53.6485 20.4492C52.952 20.909 52.1331 21.1544 51.2955 21.1541L51.291 21.1508Z" fill="#1D7B86" stroke="#1D4386"/>
<path d="M29.4564 21.1503H9.92873C9.81658 21.1503 9.70902 21.1063 9.62972 21.0279C9.55041 20.9495 9.50586 20.8432 9.50586 20.7324C9.50586 20.6215 9.55041 20.5152 9.62972 20.4369C9.70902 20.3585 9.81658 20.3145 9.92873 20.3145H29.4564C29.5686 20.3145 29.6761 20.3585 29.7555 20.4369C29.8348 20.5152 29.8793 20.6215 29.8793 20.7324C29.8793 20.8432 29.8348 20.9495 29.7555 21.0279C29.6761 21.1063 29.5686 21.1503 29.4564 21.1503Z" fill="#1D7B86" stroke="#1D4386"/>
<path d="M60.7626 34.4784H45.6201C45.508 34.4784 45.4004 34.4344 45.3211 34.356C45.2418 34.2776 45.1973 34.1713 45.1973 34.0604C45.1973 33.9496 45.2418 33.8433 45.3211 33.7649C45.4004 33.6865 45.508 33.6425 45.6201 33.6425H60.7626C61.4317 33.6425 62.0858 33.4464 62.6421 33.079C63.1984 32.7116 63.632 32.1894 63.8881 31.5785C64.1441 30.9675 64.2111 30.2953 64.0806 29.6467C63.9501 28.9981 63.6279 28.4023 63.1547 27.9347C62.6816 27.4671 62.0788 27.1487 61.4226 27.0197C60.7664 26.8907 60.0862 26.9569 59.468 27.21C58.8498 27.463 58.3215 27.8916 57.9498 28.4414C57.578 28.9913 57.3796 29.6377 57.3796 30.299C57.3796 30.4098 57.3351 30.5161 57.2558 30.5945C57.1765 30.6729 57.0689 30.7169 56.9567 30.7169C56.8446 30.7169 56.737 30.6729 56.6577 30.5945C56.5784 30.5161 56.5339 30.4098 56.5339 30.299C56.5339 29.4715 56.7822 28.6626 57.2473 27.9745C57.7125 27.2865 58.3736 26.7503 59.1471 26.4336C59.9207 26.1169 60.7718 26.0341 61.593 26.1955C62.4141 26.3569 63.1684 26.7554 63.7605 27.3405C64.3525 27.9257 64.7557 28.6712 64.919 29.4827C65.0824 30.2943 64.9985 31.1356 64.6781 31.9001C64.3577 32.6646 63.8151 33.318 63.119 33.7777C62.4228 34.2375 61.6044 34.4828 60.7671 34.4828L60.7626 34.4784Z" fill="#1D7B86" stroke="#1D4386"/>
<path d="M42.7866 50.8114H1.42287C1.31072 50.8114 1.20316 50.7673 1.12386 50.689C1.04455 50.6106 1 50.5043 1 50.3934C1 50.2826 1.04455 50.1763 1.12386 50.0979C1.20316 50.0195 1.31072 49.9755 1.42287 49.9755H42.7866C43.4557 49.9755 44.1098 49.7794 44.6661 49.412C45.2224 49.0446 45.656 48.5224 45.9121 47.9115C46.1681 47.3005 46.2351 46.6282 46.1046 45.9797C45.9741 45.3311 45.6519 44.7353 45.1787 44.2677C44.7056 43.8001 44.1028 43.4817 43.4466 43.3527C42.7904 43.2237 42.1102 43.2899 41.492 43.5429C40.8738 43.796 40.3455 44.2246 39.9738 44.7744C39.602 45.3242 39.4036 45.9707 39.4036 46.632C39.4036 46.7428 39.3591 46.8491 39.2798 46.9275C39.2005 47.0059 39.0929 47.0499 38.9808 47.0499C38.8686 47.0499 38.761 47.0059 38.6817 46.9275C38.6024 46.8491 38.5579 46.7428 38.5579 46.632C38.5568 45.8038 38.8043 44.9939 39.2691 44.3048C39.734 43.6157 40.3953 43.0785 41.1692 42.761C41.9432 42.4436 42.795 42.3602 43.6169 42.5215C44.4389 42.6829 45.1939 43.0815 45.7864 43.6672C46.3789 44.2528 46.7823 44.999 46.9455 45.8113C47.1087 46.6236 47.0244 47.4655 46.7032 48.2305C46.382 48.9954 45.8384 49.649 45.1412 50.1084C44.444 50.5678 43.6246 50.8125 42.7866 50.8114Z" fill="#1D7B86" stroke="#1D4386"/>
<path d="M43.5803 18.6178H30.0484L27.8833 25.3048H21.1173L16.7871 38.6789H23.5531L21.388 45.366H34.9199L37.085 38.679H43.851L48.1812 25.3048L41.4152 25.3048L43.5803 18.6178Z" stroke="#1D4386" stroke-width="2" stroke-linejoin="round"/>
<path d="M12.5802 34.4793H4.62795C4.5158 34.4793 4.40824 34.4353 4.32893 34.3569C4.24963 34.2785 4.20508 34.1722 4.20508 34.0614C4.20508 33.9505 4.24963 33.8442 4.32893 33.7658C4.40824 33.6875 4.5158 33.6434 4.62795 33.6434H12.5802C12.6924 33.6434 12.7999 33.6875 12.8792 33.7658C12.9585 33.8442 13.0031 33.9505 13.0031 34.0614C13.0031 34.1722 12.9585 34.2785 12.8792 34.3569C12.7999 34.4353 12.6924 34.4793 12.5802 34.4793Z" fill="#1D7B86" stroke="#1D4386"/>
<path d="M50.3517 55.8164H22.9326C22.8205 55.8164 22.7129 55.7723 22.6336 55.6939C22.5543 55.6156 22.5098 55.5093 22.5098 55.3984C22.5098 55.2876 22.5543 55.1813 22.6336 55.1029C22.7129 55.0245 22.8205 54.9805 22.9326 54.9805H50.3517C50.4639 54.9805 50.5714 55.0245 50.6507 55.1029C50.73 55.1813 50.7746 55.2876 50.7746 55.3984C50.7746 55.5093 50.73 55.6156 50.6507 55.6939C50.5714 55.7723 50.4639 55.8164 50.3517 55.8164Z" fill="#1D7B86" stroke="#1D4386"/>
<path d="M18.789 55.8164H14.8975C14.7853 55.8164 14.6778 55.7723 14.5985 55.6939C14.5192 55.6156 14.4746 55.5093 14.4746 55.3984C14.4746 55.2876 14.5192 55.1813 14.5985 55.1029C14.6778 55.0245 14.7853 54.9805 14.8975 54.9805H18.789C18.9012 54.9805 19.0088 55.0245 19.0881 55.1029C19.1674 55.1813 19.2119 55.2876 19.2119 55.3984C19.2119 55.5093 19.1674 55.6156 19.0881 55.6939C19.0088 55.7723 18.9012 55.8164 18.789 55.8164Z" fill="#1D7B86" stroke="#1D4386"/>
<path d="M21.3342 43.7812H15.8447C15.7326 43.7812 15.625 43.7372 15.5457 43.6588C15.4664 43.5804 15.4219 43.4741 15.4219 43.3633C15.4219 43.2524 15.4664 43.1461 15.5457 43.0677C15.625 42.9893 15.7326 42.9453 15.8447 42.9453H21.3342C21.4464 42.9453 21.5539 42.9893 21.6332 43.0677C21.7125 43.1461 21.7571 43.2524 21.7571 43.3633C21.7571 43.4741 21.7125 43.5804 21.6332 43.6588C21.5539 43.7372 21.4464 43.7812 21.3342 43.7812Z" fill="#1D7B86" stroke="#1D4386"/>
<path d="M42.4781 11.6523H26.4112C26.299 11.6523 26.1914 11.6083 26.1121 11.5299C26.0328 11.4515 25.9883 11.3452 25.9883 11.2343C25.9883 11.1235 26.0328 11.0172 26.1121 10.9388C26.1914 10.8604 26.299 10.8164 26.4112 10.8164H42.4781C42.5902 10.8164 42.6978 10.8604 42.7771 10.9388C42.8564 11.0172 42.9009 11.1235 42.9009 11.2343C42.9009 11.3452 42.8564 11.4515 42.7771 11.5299C42.6978 11.6083 42.5902 11.6523 42.4781 11.6523Z" fill="#1D7B86" stroke="#1D4386"/>
</svg>
