<svg width="360" height="700" viewBox="0 0 360 700" fill="none" xmlns="http://www.w3.org/2000/svg">
<mask id="mask0_1_1628" style="mask-type:alpha" maskUnits="userSpaceOnUse" x="-233" y="0" width="778" height="700">
<rect x="-233" width="777.5" height="700" fill="url(#paint0_radial_1_1628)"/>
</mask>
<g mask="url(#mask0_1_1628)">
<path d="M466.5 349.797C466.5 521.416 327.415 660.5 155.796 660.5C31.3517 660.5 -76.012 586.891 -125.627 481.154C-139.454 451.06 -126.44 415.679 -96.7528 401.445C-66.6584 387.618 -30.8705 400.632 -17.0434 430.726C16.3045 528.329 109.028 598.278 218.018 598.278C355.069 598.278 466.5 487.255 466.5 349.797Z" fill="#E9B3C4"/>
<path d="M94.3914 363.624C86.2578 333.936 54.1301 314.416 24.4424 319.296C-9.71881 324.583 -32.493 356.71 -27.2061 390.465C-7.68542 508.402 94.7939 598.278 218.018 598.278C355.069 598.278 466.5 487.255 466.5 349.797C466.5 452.687 383.135 536.056 280.245 536.056C181.828 536.056 101.305 460.007 94.3914 363.624Z" fill="#9F6EE0"/>
<path d="M-154.5 349.797C-154.5 246.907 -71.1305 163.538 31.7597 163.538C134.65 163.538 218.019 246.907 218.019 349.797C218.019 418.526 273.735 474.241 342.057 474.241C410.786 474.241 466.5 418.526 466.5 349.797C466.5 452.687 383.135 536.056 280.245 536.056C177.354 536.056 93.9819 452.687 93.9819 349.797C93.9819 281.475 38.2666 225.76 -30.4624 225.76C-98.7847 225.76 -154.5 281.475 -154.5 349.797Z" fill="#4FBCC9"/>
<path d="M217.613 336.377C225.746 366.065 257.468 385.585 287.562 380.705C321.316 375.012 344.497 343.291 338.804 309.536C319.69 191.599 217.206 101.723 93.9819 101.723C-43.4762 101.723 -154.5 212.746 -154.5 349.797C-154.5 246.907 -71.1305 163.538 31.7597 163.538C130.176 163.538 210.699 239.994 217.613 336.377Z" fill="#85E4D9"/>
<path d="M-154.5 349.797C-154.5 178.585 -15.4152 39.5 155.797 39.5C280.648 39.5 388.012 112.702 437.22 218.846C451.454 248.533 438.44 284.321 408.346 298.148C378.658 312.382 342.87 299.368 328.637 269.274C295.289 171.671 202.972 101.723 93.9819 101.723C-43.4762 101.723 -154.5 212.746 -154.5 349.797Z" fill="#F1E4B6"/>
</g>
<rect x="-151" y="34" width="613" height="664" fill="url(#paint1_linear_1_1628)"/>
<defs>
<radialGradient id="paint0_radial_1_1628" cx="0" cy="0" r="1" gradientUnits="userSpaceOnUse" gradientTransform="translate(-139.5 177.5) rotate(28.541) scale(658.243 411.811)">
<stop stop-color="#D9D9D9"/>
<stop offset="0.877904" stop-color="#D9D9D9" stop-opacity="0"/>
</radialGradient>
<linearGradient id="paint1_linear_1_1628" x1="156" y1="72.3623" x2="156" y2="597.595" gradientUnits="userSpaceOnUse">
<stop offset="0.447917" stop-color="white" stop-opacity="0"/>
<stop offset="1" stop-color="white" stop-opacity="0.64"/>
</linearGradient>
</defs>
</svg>
