<svg width="1035" height="1400" viewBox="0 0 1035 1400" fill="none" xmlns="http://www.w3.org/2000/svg">
<mask id="mask0_1_192" style="mask-type:alpha" maskUnits="userSpaceOnUse" x="-520" y="0" width="1555" height="1400">
<rect x="-520" width="1555" height="1400" fill="url(#paint0_radial_1_192)"/>
</mask>
<g mask="url(#mask0_1_192)">
<path d="M879 699.594C879 1042.83 600.83 1321 257.592 1321C8.70331 1321 -206.024 1173.78 -305.254 962.309C-332.908 902.12 -306.881 831.358 -247.506 802.891C-187.317 775.236 -115.741 801.264 -88.0867 861.452C-21.3911 1056.66 164.055 1196.56 382.036 1196.56C656.139 1196.56 879 974.509 879 699.594Z" fill="#E9B3C4"/>
<path d="M134.783 727.248C118.516 667.873 54.2601 628.832 -5.11526 638.592C-73.4376 649.166 -118.986 713.421 -108.412 780.93C-69.3708 1016.8 135.588 1196.56 382.036 1196.56C656.139 1196.56 879 974.509 879 699.594C879 905.374 712.269 1072.11 506.489 1072.11C309.656 1072.11 148.61 920.014 134.783 727.248Z" fill="#9F6EE0"/>
<path d="M-363 699.594C-363 493.814 -196.261 327.076 9.51944 327.076C215.3 327.076 382.039 493.814 382.039 699.594C382.039 837.052 493.469 948.482 630.114 948.482C767.572 948.482 879 837.052 879 699.594C879 905.374 712.269 1072.11 506.489 1072.11C300.709 1072.11 133.964 905.374 133.964 699.594C133.964 562.95 22.5333 451.52 -114.925 451.52C-251.569 451.52 -363 562.95 -363 699.594Z" fill="#4FBCC9"/>
<path d="M381.226 672.754C397.493 732.129 460.935 771.171 521.124 761.41C588.633 750.023 634.994 686.581 623.607 619.073C585.379 383.198 380.412 203.446 133.964 203.446C-140.952 203.446 -363 425.492 -363 699.594C-363 493.814 -196.261 327.076 9.51944 327.076C206.353 327.076 367.398 479.988 381.226 672.754Z" fill="#85E4D9"/>
<path d="M-363 699.594C-363 357.17 -84.8305 79 257.595 79C507.297 79 722.024 225.405 820.441 437.691C848.908 497.066 822.881 568.642 762.692 596.296C703.317 624.764 631.741 598.736 603.273 538.548C536.578 343.342 351.945 203.446 133.964 203.446C-140.952 203.446 -363 425.492 -363 699.594Z" fill="#F1E4B6"/>
</g>
<defs>
<radialGradient id="paint0_radial_1_192" cx="0" cy="0" r="1" gradientUnits="userSpaceOnUse" gradientTransform="translate(-333 355) rotate(28.541) scale(1316.49 823.622)">
<stop stop-color="#D9D9D9"/>
<stop offset="0.877904" stop-color="#D9D9D9" stop-opacity="0"/>
</radialGradient>
</defs>
</svg>
