<svg width="16" height="17" viewBox="0 0 16 17" fill="none" xmlns="http://www.w3.org/2000/svg">
<path d="M13.001 9.7778C13.001 5.2778 8.00098 2.2778 8.00098 2.2778C8.00098 2.2778 3.00098 5.2778 3.00098 9.7778C3.00098 11.1039 3.52776 12.3757 4.46544 13.3133C5.40312 14.251 6.67489 14.7778 8.00098 14.7778C9.32706 14.7778 10.5988 14.251 11.5365 13.3133C12.4742 12.3757 13.001 11.1039 13.001 9.7778Z" stroke="#C92C5D" stroke-linecap="round" stroke-linejoin="round"/>
<path d="M5.50098 12.2778C5.50098 12.9408 5.76437 13.5767 6.23321 14.0456C6.70205 14.5144 7.33794 14.7778 8.00098 14.7778C8.66402 14.7778 9.2999 14.5144 9.76874 14.0456C10.2376 13.5767 10.501 12.9408 10.501 12.2778C10.501 9.7778 8.00098 8.2778 8.00098 8.2778C8.00098 8.2778 5.50098 9.7778 5.50098 12.2778Z" stroke="#C92C5D" stroke-linecap="round" stroke-linejoin="round"/>
</svg>
