<svg width="32" height="33" viewBox="0 0 32 33" fill="none" xmlns="http://www.w3.org/2000/svg">
<path fill-rule="evenodd" clip-rule="evenodd" d="M21.5 5.30566H10.5C7.18629 5.30566 4.5 7.99196 4.5 11.3057V22.3057C4.5 25.6194 7.18629 28.3057 10.5 28.3057H21.5C24.8137 28.3057 27.5 25.6194 27.5 22.3057V11.3057C27.5 7.99196 24.8137 5.30566 21.5 5.30566ZM22.5 11.8057C23.3284 11.8057 24 11.1341 24 10.3057C24 9.47724 23.3284 8.80566 22.5 8.80566C21.6716 8.80566 21 9.47724 21 10.3057C21 11.1341 21.6716 11.8057 22.5 11.8057ZM21 16.8057C21 19.5671 18.7614 21.8057 16 21.8057C13.2386 21.8057 11 19.5671 11 16.8057C11 14.0442 13.2386 11.8057 16 11.8057C18.7614 11.8057 21 14.0442 21 16.8057Z" fill="#4FBCC9"/>
</svg>
