<svg width="24" height="25" viewBox="0 0 24 25" fill="none" xmlns="http://www.w3.org/2000/svg">
<path fill-rule="evenodd" clip-rule="evenodd" d="M16.125 4.18066H7.875C5.38972 4.18066 3.375 6.19538 3.375 8.68066V16.9307C3.375 19.4159 5.38972 21.4307 7.875 21.4307H16.125C18.6103 21.4307 20.625 19.4159 20.625 16.9307V8.68066C20.625 6.19538 18.6103 4.18066 16.125 4.18066ZM16.875 9.05566C17.4963 9.05566 18 8.55198 18 7.93066C18 7.30934 17.4963 6.80566 16.875 6.80566C16.2537 6.80566 15.75 7.30934 15.75 7.93066C15.75 8.55198 16.2537 9.05566 16.875 9.05566ZM15.75 12.8057C15.75 14.8767 14.0711 16.5557 12 16.5557C9.92893 16.5557 8.25 14.8767 8.25 12.8057C8.25 10.7346 9.92893 9.05566 12 9.05566C14.0711 9.05566 15.75 10.7346 15.75 12.8057Z" fill="#4FBCC9"/>
</svg>
