<svg width="795" height="1009" viewBox="0 0 795 1009" fill="none" xmlns="http://www.w3.org/2000/svg">
<mask id="mask0_171_246" style="mask-type:alpha" maskUnits="userSpaceOnUse" x="0" y="0" width="795" height="1009">
<rect x="794.402" y="179.219" width="883" height="524" transform="rotate(110 794.402 179.219)" fill="url(#paint0_linear_171_246)"/>
</mask>
<g mask="url(#mask0_171_246)">
<path d="M401.601 797.099C217.137 729.96 121.69 525.272 188.829 340.809C237.788 206.296 358.797 119.221 492.452 107.828C493.034 107.77 493.614 107.721 494.194 107.679C531.044 105.015 563.402 133.102 566.45 170.361C570.116 207.646 542.509 240.88 504.938 244.832C504.654 244.862 504.369 244.89 504.084 244.917C385.85 242.571 274.286 314.602 231.547 432.028C177.645 580.124 253.942 743.356 401.601 797.099Z" fill="#F1E4B6"/>
<path d="M439.852 879.129C255.388 811.99 159.941 607.302 227.08 422.839C276.039 288.326 397.048 201.251 530.703 189.857C531.285 189.8 531.865 189.751 532.445 189.709C569.295 187.045 601.653 215.132 604.701 252.391C608.367 289.676 580.76 322.91 543.189 326.862C542.905 326.892 542.62 326.92 542.335 326.947C424.101 324.601 312.537 396.632 269.798 514.057C215.896 662.153 292.193 825.385 439.852 879.129Z" fill="#85E4D9"/>
<path d="M478.103 961.158C293.64 894.019 198.193 689.332 265.332 504.869C314.291 370.356 435.299 283.281 568.954 271.887C569.536 271.83 570.117 271.78 570.697 271.739C607.546 269.075 639.904 297.161 642.953 334.421C646.619 371.706 619.011 404.94 581.441 408.892C581.157 408.922 580.872 408.95 580.587 408.976C462.352 406.631 350.789 478.662 308.05 596.087C254.147 744.183 330.445 907.415 478.103 961.158Z" fill="#9F6EE0"/>
<path d="M516.355 1043.19C331.891 976.049 236.444 771.361 303.583 586.898C352.542 452.385 473.551 365.31 607.206 353.917C607.788 353.86 608.368 353.81 608.948 353.768C645.798 351.105 678.156 379.191 681.204 416.451C684.87 453.735 657.263 486.969 619.692 490.921C619.408 490.951 619.123 490.979 618.838 491.006C500.604 488.66 389.04 560.691 346.301 678.117C292.399 826.213 368.696 989.445 516.355 1043.19Z" fill="#E9B3C4"/>
</g>
<defs>
<linearGradient id="paint0_linear_171_246" x1="1677.4" y1="703.218" x2="739.3" y2="311.016" gradientUnits="userSpaceOnUse">
<stop offset="0.437732" stop-color="#D9D9D9"/>
<stop offset="1" stop-color="#D9D9D9" stop-opacity="0"/>
</linearGradient>
</defs>
</svg>
