<svg width="32" height="33" viewBox="0 0 32 33" fill="none" xmlns="http://www.w3.org/2000/svg">
<path d="M21.3332 11.4724C23.4549 11.4724 25.4897 12.3153 26.99 13.8156C28.4903 15.3158 29.3332 17.3507 29.3332 19.4724V28.8057H23.9998V19.4724C23.9998 18.7652 23.7189 18.0869 23.2188 17.5868C22.7187 17.0867 22.0404 16.8057 21.3332 16.8057C20.6259 16.8057 19.9477 17.0867 19.4476 17.5868C18.9475 18.0869 18.6665 18.7652 18.6665 19.4724V28.8057H13.3332V19.4724C13.3332 17.3507 14.176 15.3158 15.6763 13.8156C17.1766 12.3153 19.2114 11.4724 21.3332 11.4724Z" fill="#4FBCC9"/>
<path d="M7.99984 12.8057H2.6665V28.8057H7.99984V12.8057Z" fill="#4FBCC9"/>
<path d="M5.33317 8.80575C6.80593 8.80575 7.99984 7.61184 7.99984 6.13908C7.99984 4.66632 6.80593 3.47241 5.33317 3.47241C3.86041 3.47241 2.6665 4.66632 2.6665 6.13908C2.6665 7.61184 3.86041 8.80575 5.33317 8.80575Z" fill="#4FBCC9"/>
</svg>
