<svg width="24" height="25" viewBox="0 0 24 25" fill="none" xmlns="http://www.w3.org/2000/svg">
<path d="M16 8.80566C17.5913 8.80566 19.1174 9.43781 20.2426 10.563C21.3679 11.6882 22 13.2144 22 14.8057V21.8057H18V14.8057C18 14.2752 17.7893 13.7665 17.4142 13.3915C17.0391 13.0164 16.5304 12.8057 16 12.8057C15.4696 12.8057 14.9609 13.0164 14.5858 13.3915C14.2107 13.7665 14 14.2752 14 14.8057V21.8057H10V14.8057C10 13.2144 10.6321 11.6882 11.7574 10.563C12.8826 9.43781 14.4087 8.80566 16 8.80566Z" fill="#4FBCC9"/>
<path d="M6 9.80566H2V21.8057H6V9.80566Z" fill="#4FBCC9"/>
<path d="M4 6.80566C5.10457 6.80566 6 5.91023 6 4.80566C6 3.70109 5.10457 2.80566 4 2.80566C2.89543 2.80566 2 3.70109 2 4.80566C2 5.91023 2.89543 6.80566 4 6.80566Z" fill="#4FBCC9"/>
</svg>
