<svg width="178" height="32" viewBox="0 0 178 32" fill="none" xmlns="http://www.w3.org/2000/svg">
<path fill-rule="evenodd" clip-rule="evenodd" d="M8.75464 9.32182V9.55539H13.387V14.9489H8.75464V31.3417H3.14487V14.9489H0V9.55539H3.14487V9.32182C3.14487 3.31254 6.45974 -0.212342 13.387 0.212342V5.62706C10.4758 5.41472 8.75464 6.37026 8.75464 9.32182ZM73.0545 9.55539V31.3417H67.4235V28.8997C66.1273 30.8533 63.8536 31.9575 60.9213 31.9575C56.3102 31.9575 52.6766 28.7299 52.6766 22.9329V9.55539H58.3076V22.2322C58.3076 25.205 60.0925 26.7126 62.6212 26.7126C65.3836 26.7126 67.4235 25.0988 67.4235 21.3191V9.55539H73.0545ZM98.5747 17.9641V31.3417H92.9437V18.6649C92.9437 15.6921 91.1588 14.1632 88.6301 14.1632C85.889 14.1632 83.8278 15.777 83.8278 19.5779V31.3417H78.1968V9.55539H83.8278V11.9973C85.1453 10.0225 87.4189 8.9396 90.3301 8.9396C94.9624 8.9396 98.5747 12.1672 98.5747 17.9641ZM110.92 14.9489V24.0159C110.92 26.3729 112.62 26.4153 115.85 26.2455V31.3417C107.946 32.2123 105.289 29.8978 105.289 24.0159V14.9489H101.486V9.55539H105.289V5.13868L110.92 3.43994V9.55539H115.85V14.9489H110.92ZM141.37 9.55539V31.3417H135.739V28.7723C134.167 30.7259 131.808 31.9575 128.621 31.9575C122.82 31.9575 118.018 26.9462 118.018 20.4485C118.018 13.9509 122.82 8.9396 128.621 8.9396C131.808 8.9396 134.167 10.15 135.739 12.1247V9.55539H141.37ZM135.739 20.4485C135.739 16.775 133.168 14.2906 129.683 14.2906C126.241 14.2906 123.649 16.775 123.649 20.4485C123.649 24.1008 126.241 26.5852 129.683 26.5852C133.168 26.5852 135.739 24.1008 135.739 20.4485ZM145.812 3.48241C145.812 1.6138 147.384 0 149.254 0C151.188 0 152.739 1.6138 152.739 3.48241C152.739 5.37225 151.188 6.92235 149.254 6.92235C147.384 6.92235 145.812 5.37225 145.812 3.48241ZM146.47 9.55539H152.101V31.3417H146.47V9.55539ZM177.6 17.9641V31.3417H171.99V18.6649C171.99 15.6921 170.206 14.1632 167.677 14.1632C164.915 14.1632 162.875 15.777 162.875 19.5779V31.3417H157.244V9.55539H162.875V11.9973C164.171 10.0225 166.444 8.9396 169.377 8.9396C173.988 8.9396 177.6 12.1672 177.6 17.9641Z" fill="#052256"/>
<path d="M48.9155 16.0957C48.9155 24.8805 41.791 31.9999 33.0001 31.9999C26.6256 31.9999 21.126 28.232 18.5845 22.8196C17.8763 21.2791 18.5429 19.4681 20.0636 18.7395C21.6051 18.0317 23.4383 18.6978 24.1466 20.2383C25.8548 25.2344 30.6044 28.8149 36.1873 28.8149C43.2076 28.8149 48.9155 23.1319 48.9155 16.0957Z" fill="#E9B3C4"/>
<path d="M29.8546 16.8034C29.438 15.2837 27.7923 14.2845 26.2715 14.5343C24.5217 14.8049 23.3551 16.4495 23.6259 18.1773C24.6258 24.2142 29.8754 28.8148 36.1874 28.8148C43.2077 28.8148 48.9156 23.1318 48.9156 16.0956C48.9156 21.3623 44.6451 25.6298 39.3747 25.6298C34.3334 25.6298 30.2087 21.737 29.8546 16.8034Z" fill="#9F6EE0"/>
<path d="M17.1055 16.0955C17.1055 10.8288 21.376 6.56128 26.6464 6.56128C31.9168 6.56128 36.1873 10.8288 36.1873 16.0955C36.1873 19.6136 39.0412 22.4655 42.5409 22.4655C46.0615 22.4655 48.9154 19.6136 48.9154 16.0955C48.9154 21.3622 44.6449 25.6297 39.3745 25.6297C34.1041 25.6297 29.8336 21.3622 29.8336 16.0955C29.8336 12.5982 26.9797 9.74628 23.4591 9.74628C19.9594 9.74628 17.1055 12.5982 17.1055 16.0955Z" fill="#4FBCC9"/>
<path d="M36.1664 15.4086C36.5831 16.9283 38.2079 17.9275 39.7495 17.6777C41.4785 17.3863 42.6659 15.7625 42.3743 14.0347C41.3952 7.99778 36.1456 3.39722 29.8336 3.39722C22.7925 3.39722 17.1055 9.08027 17.1055 16.0956C17.1055 10.8289 21.376 6.56141 26.6464 6.56141C31.6876 6.56141 35.8123 10.475 36.1664 15.4086Z" fill="#85E4D9"/>
<path d="M17.1055 16.0956C17.1055 7.33158 24.2299 0.212158 33 0.212158C39.3953 0.212158 44.8949 3.95922 47.4155 9.39247C48.1446 10.9121 47.478 12.744 45.9365 13.4518C44.4158 14.1804 42.5826 13.5142 41.8535 11.9738C40.1453 6.97769 35.4165 3.39716 29.8336 3.39716C22.7925 3.39716 17.1055 9.08021 17.1055 16.0956Z" fill="#F1E4B6"/>
</svg>
