<svg width="877" height="524" viewBox="0 0 877 524" fill="none" xmlns="http://www.w3.org/2000/svg">
<mask id="mask0_1_391" style="mask-type:alpha" maskUnits="userSpaceOnUse" x="0" y="0" width="883" height="525">
<rect x="883" y="524.002" width="883" height="524" transform="rotate(-180 883 524.002)" fill="url(#paint0_linear_1_391)"/>
</mask>
<g mask="url(#mask0_1_391)">
<path d="M194.992 375.999C194.992 179.697 354.691 19.9991 550.992 19.9991C694.138 19.9991 817.349 103.929 873.768 225.626C874.021 226.154 874.266 226.682 874.504 227.213C889.61 260.93 874.285 300.942 840.315 316.55C806.532 332.747 765.86 318.171 749.297 284.218C749.172 283.961 749.048 283.704 748.925 283.445C710.691 171.539 604.847 91.3392 479.885 91.3392C322.285 91.3392 194.992 218.864 194.992 375.999Z" fill="#F1E4B6"/>
<path d="M130.992 439.999C130.992 243.697 290.691 83.9991 486.992 83.9991C630.138 83.9991 753.349 167.929 809.768 289.626C810.021 290.154 810.266 290.682 810.504 291.213C825.61 324.93 810.285 364.942 776.315 380.55C742.532 396.747 701.86 382.171 685.297 348.218C685.172 347.961 685.048 347.704 684.925 347.445C646.691 235.539 540.847 155.339 415.885 155.339C258.285 155.339 130.992 282.864 130.992 439.999Z" fill="#85E4D9"/>
<path d="M66.9922 503.999C66.9922 307.697 226.691 147.999 422.992 147.999C566.138 147.999 689.349 231.929 745.768 353.626C746.021 354.154 746.266 354.682 746.504 355.213C761.61 388.93 746.285 428.942 712.315 444.55C678.532 460.747 637.86 446.171 621.297 412.218C621.172 411.961 621.048 411.704 620.925 411.445C582.691 299.539 476.847 219.339 351.885 219.339C194.285 219.339 66.9922 346.864 66.9922 503.999Z" fill="#9F6EE0"/>
<path d="M2.99219 568C2.99219 371.698 162.691 212 358.992 212C502.138 212 625.349 295.93 681.768 417.627C682.021 418.155 682.266 418.683 682.504 419.214C697.61 452.93 682.285 492.943 648.315 508.551C614.532 524.748 573.86 510.172 557.297 476.219C557.172 475.962 557.048 475.705 556.925 475.446C518.691 363.54 412.847 283.34 287.885 283.34C130.285 283.34 2.99219 410.865 2.99219 568Z" fill="#E9B3C4"/>
</g>
<defs>
<linearGradient id="paint0_linear_1_391" x1="1766" y1="1048" x2="827.898" y2="655.799" gradientUnits="userSpaceOnUse">
<stop offset="0.437732" stop-color="#D9D9D9"/>
<stop offset="1" stop-color="#D9D9D9" stop-opacity="0"/>
</linearGradient>
</defs>
</svg>
