<svg width="360" height="525" viewBox="0 0 360 525" fill="none" xmlns="http://www.w3.org/2000/svg">
<mask id="mask0_1_1817" style="mask-type:alpha" maskUnits="userSpaceOnUse" x="0" y="0" width="883" height="525">
<rect y="0.221191" width="883" height="524" fill="url(#paint0_linear_1_1817)"/>
</mask>
<g mask="url(#mask0_1_1817)">
<path d="M688.008 148.223C688.008 344.525 528.309 504.223 332.008 504.223C188.862 504.223 65.6506 420.294 9.23149 298.596C8.97874 298.069 8.73362 297.54 8.49595 297.009C-6.61043 263.293 8.71519 223.28 42.6851 207.672C76.4676 191.475 117.14 206.051 133.703 240.004C133.828 240.261 133.952 240.519 134.075 240.778C172.309 352.684 278.153 432.883 403.115 432.883C560.715 432.883 688.008 305.358 688.008 148.223Z" fill="#F1E4B6"/>
<path d="M752.008 84.2192C752.008 280.521 592.309 440.219 396.008 440.219C252.862 440.219 129.651 356.29 73.2315 234.592C72.9787 234.065 72.7336 233.536 72.496 233.006C57.3896 199.289 72.7152 159.276 106.685 143.668C140.468 127.471 181.14 142.047 197.703 176C197.828 176.257 197.952 176.515 198.075 176.774C236.309 288.68 342.153 368.879 467.115 368.879C624.715 368.879 752.008 241.354 752.008 84.2192Z" fill="#85E4D9"/>
<path d="M816.008 20.2192C816.008 216.521 656.309 376.219 460.008 376.219C316.862 376.219 193.651 292.29 137.231 170.592C136.979 170.065 136.734 169.536 136.496 169.006C121.39 135.289 136.715 95.2762 170.685 79.6684C204.468 63.4712 245.14 78.0473 261.703 112C261.828 112.257 261.952 112.515 262.075 112.774C300.309 224.68 406.153 304.879 531.115 304.879C688.715 304.879 816.008 177.354 816.008 20.2192Z" fill="#9F6EE0"/>
<path d="M880.012 -43.7729C880.012 152.529 720.313 312.227 524.012 312.227C380.866 312.227 257.655 228.298 201.235 106.6C200.983 106.073 200.738 105.544 200.5 105.013C185.393 71.2968 200.719 31.284 234.689 15.6762C268.471 -0.520943 309.143 14.0551 325.707 48.008C325.832 48.2648 325.956 48.5227 326.079 48.7817C364.313 160.688 470.157 240.887 595.118 240.887C752.719 240.887 880.012 113.362 880.012 -43.7729Z" fill="#E9B3C4"/>
</g>
<defs>
<linearGradient id="paint0_linear_1_1817" x1="883" y1="524.221" x2="-55.102" y2="132.019" gradientUnits="userSpaceOnUse">
<stop offset="0.437732" stop-color="#D9D9D9"/>
<stop offset="1" stop-color="#D9D9D9" stop-opacity="0"/>
</linearGradient>
</defs>
</svg>
