<svg width="883" height="524" viewBox="0 0 883 524" fill="none" xmlns="http://www.w3.org/2000/svg">
<mask id="mask0_1_398" style="mask-type:alpha" maskUnits="userSpaceOnUse" x="0" y="0" width="883" height="524">
<rect width="883" height="524" fill="url(#paint0_linear_1_398)"/>
</mask>
<g mask="url(#mask0_1_398)">
<path d="M688.008 148.002C688.008 344.304 528.309 504.002 332.008 504.002C188.862 504.002 65.6506 420.072 9.23149 298.375C8.97874 297.848 8.73362 297.319 8.49595 296.788C-6.61043 263.072 8.71519 223.059 42.6851 207.451C76.4676 191.254 117.14 205.83 133.703 239.783C133.828 240.04 133.952 240.298 134.075 240.557C172.309 352.463 278.153 432.662 403.115 432.662C560.715 432.662 688.008 305.137 688.008 148.002Z" fill="#F1E4B6"/>
<path d="M752.008 83.998C752.008 280.3 592.309 439.998 396.008 439.998C252.862 439.998 129.651 356.069 73.2315 234.371C72.9787 233.844 72.7336 233.315 72.496 232.784C57.3896 199.068 72.7152 159.055 106.685 143.447C140.468 127.25 181.14 141.826 197.703 175.779C197.828 176.036 197.952 176.294 198.075 176.553C236.309 288.459 342.153 368.658 467.115 368.658C624.715 368.658 752.008 241.133 752.008 83.998Z" fill="#85E4D9"/>
<path d="M816.008 19.998C816.008 216.3 656.309 375.998 460.008 375.998C316.862 375.998 193.651 292.069 137.231 170.371C136.979 169.844 136.734 169.315 136.496 168.784C121.39 135.068 136.715 95.055 170.685 79.4472C204.468 63.2501 245.14 77.8261 261.703 111.779C261.828 112.036 261.952 112.294 262.075 112.553C300.309 224.459 406.153 304.658 531.115 304.658C688.715 304.658 816.008 177.133 816.008 19.998Z" fill="#9F6EE0"/>
<path d="M880.012 -43.9941C880.012 152.308 720.313 312.006 524.012 312.006C380.866 312.006 257.655 228.076 201.235 106.379C200.983 105.851 200.738 105.323 200.5 104.792C185.393 71.0756 200.719 31.0628 234.689 15.455C268.471 -0.742134 309.143 13.8339 325.707 47.7868C325.832 48.0436 325.956 48.3015 326.079 48.5605C364.313 160.467 470.157 240.666 595.118 240.666C752.719 240.666 880.012 113.141 880.012 -43.9941Z" fill="#E9B3C4"/>
</g>
<defs>
<linearGradient id="paint0_linear_1_398" x1="883" y1="524" x2="-55.102" y2="131.797" gradientUnits="userSpaceOnUse">
<stop offset="0.437732" stop-color="#D9D9D9"/>
<stop offset="1" stop-color="#D9D9D9" stop-opacity="0"/>
</linearGradient>
</defs>
</svg>
