<svg width="84" height="84" viewBox="0 0 84 84" fill="none" xmlns="http://www.w3.org/2000/svg">
<rect x="0.666504" y="0.666748" width="82.6666" height="82.6666" rx="41.3333" fill="white"/>
<circle cx="41.875" cy="41.8752" r="27" fill="#CDF0F4"/>
<path d="M54.4804 40.4259C55.6174 41.1478 55.6174 42.853 54.4804 43.575L36.3974 55.0566C35.2036 55.8146 33.6665 54.9284 33.6665 53.4821L33.6665 30.5188C33.6665 29.0725 35.2036 28.1863 36.3974 28.9443L54.4804 40.4259Z" stroke="#1D7B86" stroke-width="1.66667" stroke-linejoin="round"/>
<path d="M41.9998 8.66675C23.5903 8.66675 8.6665 23.5906 8.6665 42.0001C8.6665 60.4095 23.5903 75.3334 41.9998 75.3334C60.4093 75.3334 75.3331 60.4095 75.3331 42.0001C75.3331 39.4252 75.0412 36.9185 74.4886 34.5113C73.9915 32.3459 73.2834 30.2609 72.3873 28.2793M55.4326 11.484C53.4852 10.6256 51.4402 9.94807 49.3188 9.47279M60.9112 14.547C62.5808 15.6992 64.1401 16.9999 65.57 18.4298C66.9648 19.8246 68.2366 21.3424 69.3676 22.9656" stroke="#1D7B86" stroke-width="1.66667" stroke-linecap="round" stroke-linejoin="round"/>
</svg>
