<svg width="16" height="17" viewBox="0 0 16 17" fill="none" xmlns="http://www.w3.org/2000/svg">
<path d="M8.66995 11.7465L7.46995 15.0028C7.43443 15.0985 7.37048 15.181 7.28669 15.2393C7.20289 15.2976 7.10327 15.3288 7.0012 15.3288C6.89913 15.3288 6.79951 15.2976 6.71572 15.2393C6.63192 15.181 6.56797 15.0985 6.53245 15.0028L5.33245 11.7465C5.30713 11.6778 5.26719 11.6154 5.2154 11.5636C5.1636 11.5118 5.10118 11.4719 5.03245 11.4465L1.7762 10.2465C1.68051 10.211 1.59799 10.1471 1.53971 10.0633C1.48143 9.97947 1.4502 9.87985 1.4502 9.77778C1.4502 9.67572 1.48143 9.57609 1.53971 9.4923C1.59799 9.4085 1.68051 9.34455 1.7762 9.30903L5.03245 8.10903C5.10118 8.08371 5.1636 8.04377 5.2154 7.99198C5.26719 7.94018 5.30713 7.87776 5.33245 7.80903L6.53245 4.55278C6.56797 4.45709 6.63192 4.37457 6.71572 4.31629C6.79951 4.25801 6.89913 4.22678 7.0012 4.22678C7.10327 4.22678 7.20289 4.25801 7.28669 4.31629C7.37048 4.37457 7.43443 4.45709 7.46995 4.55278L8.66995 7.80903C8.69528 7.87776 8.73522 7.94018 8.78701 7.99198C8.8388 8.04377 8.90122 8.08371 8.96995 8.10903L12.2262 9.30903C12.3219 9.34455 12.4044 9.4085 12.4627 9.4923C12.521 9.57609 12.5522 9.67572 12.5522 9.77778C12.5522 9.87985 12.521 9.97947 12.4627 10.0633C12.4044 10.1471 12.3219 10.211 12.2262 10.2465L8.96995 11.4465C8.90122 11.4719 8.8388 11.5118 8.78701 11.5636C8.73522 11.6154 8.69528 11.6778 8.66995 11.7465V11.7465Z" stroke="#6F2CC9" stroke-linecap="round" stroke-linejoin="round"/>
<path d="M11.001 1.7778V4.7778" stroke="#6F2CC9" stroke-linecap="round" stroke-linejoin="round"/>
<path d="M12.501 3.2778H9.50098" stroke="#6F2CC9" stroke-linecap="round" stroke-linejoin="round"/>
<path d="M14.001 5.2778V7.2778" stroke="#6F2CC9" stroke-linecap="round" stroke-linejoin="round"/>
<path d="M15.001 6.2778H13.001" stroke="#6F2CC9" stroke-linecap="round" stroke-linejoin="round"/>
</svg>
