<svg width="645" height="541" viewBox="0 0 645 541" fill="none" xmlns="http://www.w3.org/2000/svg">
<mask id="mask0_1_657" style="mask-type:alpha" maskUnits="userSpaceOnUse" x="0" y="0" width="694" height="606">
<rect x="516.793" y="605.021" width="596.706" height="354.104" transform="rotate(-150 516.793 605.021)" fill="url(#paint0_linear_1_657)"/>
</mask>
<g mask="url(#mask0_1_657)">
<path d="M164.153 285.939C230.48 171.056 377.902 131.555 492.784 197.883C576.558 246.25 620.307 336.999 612.205 427.285C612.175 427.678 612.14 428.071 612.1 428.462C609.548 453.298 587.06 471.536 561.905 469.193C536.662 467.257 517.784 444.984 519.563 419.517C519.576 419.325 519.591 419.132 519.607 418.939C535.042 340.529 500.197 257.83 427.065 215.607C334.832 162.356 217.246 193.978 164.153 285.939Z" fill="#F1E4B6"/>
<path d="M105.071 301.77C171.398 186.887 318.82 147.386 433.702 213.714C517.476 262.081 561.225 352.831 553.123 443.116C553.093 443.51 553.058 443.902 553.018 444.293C550.466 469.129 527.977 487.368 502.823 485.024C477.58 483.088 458.702 460.815 460.481 435.348C460.494 435.156 460.509 434.963 460.525 434.77C475.96 356.36 441.115 273.661 367.983 231.438C275.75 178.188 158.164 209.809 105.071 301.77Z" fill="#85E4D9"/>
<path d="M45.9927 317.6C112.32 202.717 259.741 163.216 374.624 229.544C458.398 277.911 502.147 368.661 494.045 458.946C494.015 459.34 493.98 459.732 493.94 460.123C491.388 484.959 468.899 503.198 443.745 500.854C418.502 498.918 399.624 476.646 401.403 451.179C401.416 450.986 401.431 450.793 401.447 450.6C416.882 372.19 382.037 289.491 308.905 247.269C216.671 194.018 99.0863 225.639 45.9927 317.6Z" fill="#9F6EE0"/>
<path d="M-13.0893 333.43C53.2383 218.548 200.659 179.046 315.542 245.374C399.316 293.741 443.065 384.491 434.963 474.776C434.933 475.17 434.898 475.562 434.858 475.953C432.306 500.789 409.817 519.028 384.663 516.684C359.42 514.748 340.542 492.476 342.321 467.009C342.334 466.816 342.349 466.623 342.365 466.43C357.8 388.02 322.955 305.321 249.823 263.099C157.589 209.848 40.0042 241.47 -13.0893 333.43Z" fill="#E9B3C4"/>
</g>
<defs>
<linearGradient id="paint0_linear_1_657" x1="1113.5" y1="959.125" x2="479.556" y2="694.086" gradientUnits="userSpaceOnUse">
<stop offset="0.437732" stop-color="#D9D9D9"/>
<stop offset="1" stop-color="#D9D9D9" stop-opacity="0"/>
</linearGradient>
</defs>
</svg>
