<svg width="253" height="479" viewBox="0 0 253 479" fill="none" xmlns="http://www.w3.org/2000/svg">
<mask id="mask0_1_2596" style="mask-type:alpha" maskUnits="userSpaceOnUse" x="0" y="0" width="284" height="479">
<rect y="478.209" width="477.365" height="283.283" transform="rotate(-90 0 478.209)" fill="url(#paint0_linear_1_2596)"/>
</mask>
<g mask="url(#mask0_1_2596)">
<path d="M80.009 106.264C186.133 106.264 272.469 192.6 272.469 298.723C272.469 376.111 227.095 442.721 161.303 473.222C161.018 473.358 160.732 473.491 160.445 473.619C142.218 481.786 120.586 473.501 112.148 455.136C103.392 436.873 111.272 414.885 129.627 405.93C129.766 405.863 129.906 405.796 130.046 405.729C190.544 385.059 233.901 327.838 233.901 260.282C233.901 175.08 164.959 106.264 80.009 106.264Z" fill="#F1E4B6"/>
<path d="M45.4084 71.6623C151.533 71.6622 237.868 157.998 237.868 264.122C237.868 341.509 192.494 408.119 126.702 438.62C126.417 438.757 126.132 438.889 125.845 439.018C107.617 447.185 85.9855 438.899 77.5476 420.535C68.7912 402.271 76.6712 380.283 95.0267 371.329C95.1656 371.261 95.305 371.194 95.445 371.128C155.943 350.458 199.3 293.236 199.3 225.68C199.3 140.479 130.358 71.6622 45.4084 71.6623Z" fill="#85E4D9"/>
<path d="M10.8098 37.0639C116.934 37.0638 203.27 123.4 203.27 229.523C203.27 306.911 157.896 373.521 92.1038 404.022C91.8188 404.158 91.5329 404.291 91.2462 404.419C73.0184 412.586 51.3868 404.301 42.949 385.936C34.1925 367.673 42.0726 345.685 60.4281 336.73C60.5669 336.663 60.7063 336.596 60.8464 336.529C121.345 315.859 164.702 258.638 164.702 191.082C164.702 105.88 95.7595 37.0638 10.8098 37.0639Z" fill="#9F6EE0"/>
<path d="M-23.7879 2.46206C82.3363 2.46198 168.672 88.7978 168.672 194.922C168.672 272.309 123.298 338.919 57.5062 369.42C57.2212 369.557 56.9353 369.689 56.6485 369.818C38.4208 377.984 16.7892 369.699 8.35132 351.334C-0.40512 333.071 7.47493 311.083 25.8304 302.129C25.9693 302.061 26.1087 301.994 26.2487 301.928C86.7471 281.257 130.104 224.036 130.104 156.48C130.104 71.2786 61.1619 2.462 -23.7879 2.46206Z" fill="#E9B3C4"/>
</g>
<defs>
<linearGradient id="paint0_linear_1_2596" x1="477.365" y1="761.492" x2="-29.7891" y2="549.461" gradientUnits="userSpaceOnUse">
<stop offset="0.437732" stop-color="#D9D9D9"/>
<stop offset="1" stop-color="#D9D9D9" stop-opacity="0"/>
</linearGradient>
</defs>
</svg>
