<svg width="196" height="479" viewBox="0 0 196 479" fill="none" xmlns="http://www.w3.org/2000/svg">
<mask id="mask0_1_2589" style="mask-type:alpha" maskUnits="userSpaceOnUse" x="-88" y="0" width="284" height="479">
<rect x="195.283" y="0.827393" width="477.365" height="283.283" transform="rotate(90 195.283 0.827393)" fill="url(#paint0_linear_1_2589)"/>
</mask>
<g mask="url(#mask0_1_2589)">
<path d="M115.283 372.777C9.15882 372.777 -77.1768 286.441 -77.1768 180.318C-77.1768 102.931 -31.803 36.3205 33.9889 5.81926C34.2739 5.68263 34.5598 5.5501 34.8465 5.42165C53.0743 -2.74515 74.7059 5.54011 83.1438 23.9048C91.9002 42.1682 84.0201 64.1561 65.6646 73.1107C65.5258 73.1784 65.3864 73.2454 65.2464 73.3116C4.74803 93.9818 -38.6091 151.203 -38.6091 218.759C-38.6091 303.961 30.3332 372.777 115.283 372.777Z" fill="#F1E4B6"/>
<path d="M149.885 407.385C43.7614 407.385 -42.5742 321.049 -42.5742 214.925C-42.5742 137.538 2.7995 70.9279 68.5914 40.4267C68.8764 40.2901 69.1623 40.1575 69.4491 40.0291C87.6768 31.8623 109.308 40.1475 117.746 58.5122C126.503 76.7756 118.623 98.7635 100.267 107.718C100.128 107.786 99.9889 107.853 99.8489 107.919C39.3506 128.589 -4.00655 185.81 -4.00655 253.367C-4.00655 338.568 64.9358 407.385 149.885 407.385Z" fill="#85E4D9"/>
<path d="M184.485 441.985C78.361 441.985 -7.97461 355.649 -7.97462 249.526C-7.97462 172.139 37.3991 105.528 103.191 75.0273C103.476 74.8906 103.762 74.7581 104.049 74.6297C122.276 66.4629 143.908 74.7481 152.346 93.1128C161.102 111.376 153.222 133.364 134.867 142.319C134.728 142.386 134.589 142.453 134.449 142.52C73.9502 163.19 30.5931 220.411 30.5931 287.967C30.5931 373.169 99.5354 441.985 184.485 441.985Z" fill="#9F6EE0"/>
<path d="M219.084 476.58C112.96 476.58 26.624 390.244 26.624 284.12C26.624 206.733 71.9977 140.123 137.79 109.622C138.075 109.485 138.361 109.353 138.647 109.224C156.875 101.058 178.507 109.343 186.945 127.708C195.701 145.971 187.821 167.959 169.465 176.913C169.327 176.981 169.187 177.048 169.047 177.114C108.549 197.785 65.1917 255.006 65.1917 322.562C65.1917 407.763 134.134 476.58 219.084 476.58Z" fill="#E9B3C4"/>
</g>
<defs>
<linearGradient id="paint0_linear_1_2589" x1="672.648" y1="284.111" x2="165.494" y2="72.0794" gradientUnits="userSpaceOnUse">
<stop offset="0.437732" stop-color="#D9D9D9"/>
<stop offset="1" stop-color="#D9D9D9" stop-opacity="0"/>
</linearGradient>
</defs>
</svg>
