<svg width="647" height="606" viewBox="0 0 647 606" fill="none" xmlns="http://www.w3.org/2000/svg">
<mask id="mask0_1_650" style="mask-type:alpha" maskUnits="userSpaceOnUse" x="-47" y="0" width="694" height="606">
<rect x="130.052" width="596.706" height="354.104" transform="rotate(30 130.052 0)" fill="url(#paint0_linear_1_650)"/>
</mask>
<g mask="url(#mask0_1_650)">
<path d="M482.704 319.08C416.376 433.963 268.955 473.464 154.072 407.136C70.2984 358.769 26.5495 268.02 34.651 177.735C34.6812 177.341 34.7164 176.948 34.7565 176.558C37.3081 151.721 59.7969 133.483 84.951 135.826C110.194 137.762 129.072 160.035 127.293 185.502C127.28 185.694 127.265 185.887 127.25 186.08C111.814 264.49 146.66 347.189 219.792 389.412C312.025 442.663 429.61 411.041 482.704 319.08Z" fill="#F1E4B6"/>
<path d="M541.79 303.25C475.462 418.133 328.041 457.634 213.158 391.306C129.384 342.939 85.6354 252.19 93.7369 161.905C93.7671 161.511 93.8023 161.118 93.8425 160.728C96.394 135.891 118.883 117.653 144.037 119.996C169.28 121.932 188.158 144.205 186.379 169.672C186.366 169.864 186.351 170.057 186.335 170.25C170.9 248.66 205.746 331.359 278.877 373.582C371.111 426.833 488.696 395.211 541.79 303.25Z" fill="#85E4D9"/>
<path d="M600.868 287.422C534.54 402.305 387.119 441.806 272.237 375.478C188.462 327.111 144.714 236.361 152.815 146.076C152.845 145.682 152.88 145.29 152.921 144.899C155.472 120.063 177.961 101.824 203.115 104.168C228.359 106.104 247.236 128.377 245.458 153.844C245.444 154.036 245.429 154.229 245.414 154.422C229.978 232.832 264.824 315.531 337.956 357.754C430.189 411.004 547.774 379.383 600.868 287.422Z" fill="#9F6EE0"/>
<path d="M659.946 271.589C593.618 386.472 446.197 425.973 331.315 359.645C247.541 311.278 203.792 220.528 211.893 130.243C211.923 129.849 211.959 129.457 211.999 129.066C214.55 104.23 237.039 85.9915 262.193 88.3352C287.437 90.2706 306.314 112.544 304.536 138.011C304.522 138.203 304.508 138.396 304.492 138.589C289.056 216.999 323.902 299.698 397.034 341.921C489.267 395.171 606.852 363.55 659.946 271.589Z" fill="#E9B3C4"/>
</g>
<defs>
<linearGradient id="paint0_linear_1_650" x1="726.758" y1="354.104" x2="92.8159" y2="89.0649" gradientUnits="userSpaceOnUse">
<stop offset="0.437732" stop-color="#D9D9D9"/>
<stop offset="1" stop-color="#D9D9D9" stop-opacity="0"/>
</linearGradient>
</defs>
</svg>
