<svg width="218" height="372" viewBox="0 0 218 372" fill="none" xmlns="http://www.w3.org/2000/svg">
<path d="M355.997 686.008C159.695 686.008 -0.00292969 526.309 -0.00292969 330.008C-0.00292969 186.862 83.9266 63.6506 205.624 7.23151C206.152 6.97876 206.68 6.73364 207.211 6.49597C240.927 -8.61041 280.94 6.71521 296.548 40.6851C312.745 74.4676 298.169 115.14 264.216 131.703C263.959 131.828 263.702 131.952 263.443 132.075C151.536 170.309 71.3372 276.153 71.3372 401.115C71.3372 558.715 198.862 686.008 355.997 686.008Z" fill="#F1E4B6"/>
<path d="M419.997 750.008C223.695 750.008 63.9971 590.309 63.9971 394.008C63.9971 250.862 147.927 127.651 269.624 71.2315C270.152 70.9788 270.68 70.7336 271.211 70.496C304.927 55.3896 344.94 70.7152 360.548 104.685C376.745 138.468 362.169 179.14 328.216 195.703C327.959 195.828 327.702 195.952 327.443 196.075C215.536 234.309 135.337 340.153 135.337 465.115C135.337 622.715 262.862 750.008 419.997 750.008Z" fill="#85E4D9"/>
<path d="M483.997 814.008C287.695 814.008 127.997 654.309 127.997 458.008C127.997 314.862 211.927 191.651 333.624 135.232C334.152 134.979 334.68 134.734 335.211 134.496C368.927 119.39 408.94 134.715 424.548 168.685C440.745 202.468 426.169 243.14 392.216 259.703C391.959 259.828 391.702 259.952 391.443 260.075C279.536 298.309 199.337 404.153 199.337 529.115C199.337 686.715 326.862 814.008 483.997 814.008Z" fill="#9F6EE0"/>
<path d="M547.998 878.008C351.696 878.008 191.998 718.309 191.998 522.008C191.998 378.862 275.928 255.651 397.625 199.232C398.153 198.979 398.681 198.734 399.212 198.496C432.928 183.39 472.941 198.715 488.549 232.685C504.746 266.468 490.17 307.14 456.217 323.703C455.96 323.828 455.702 323.952 455.443 324.075C343.537 362.309 263.338 468.153 263.338 593.115C263.338 750.715 390.863 878.008 547.998 878.008Z" fill="#E9B3C4"/>
</svg>
