<svg width="80" height="80" viewBox="0 0 80 80" fill="none" xmlns="http://www.w3.org/2000/svg">
<ellipse cx="40" cy="39.8135" rx="32" ry="31.8135" fill="#CDF0F4"/>
<path d="M59.6593 72C59.5447 71.9991 59.4351 71.9542 59.3543 71.875C59.2736 71.7958 59.2283 71.6888 59.2283 71.5773V56.4543C59.2478 51.7504 60.5429 47.1348 62.9829 43.0739C65.9621 38.0271 66.8724 32.0717 65.5315 26.3999C64.2948 21.3325 61.3118 16.83 57.0791 13.6417C52.8464 10.4533 47.6191 8.77133 42.2672 8.87567C36.9154 8.98001 31.7616 10.8644 27.6635 14.2152C23.5655 17.5659 20.7703 22.1811 19.7431 27.2926C18.4964 32.8147 16.6732 38.1985 14.3018 43.3601L14.0875 43.8595H22.7088C22.824 43.8595 22.9345 43.904 23.016 43.9833C23.0975 44.0625 23.1432 44.1701 23.1432 44.2822V65.3904L42.5985 60.0803C42.6544 60.0625 42.7133 60.0559 42.7718 60.0609C42.8304 60.0659 42.8872 60.0824 42.939 60.1094C42.9908 60.1364 43.0364 60.1734 43.0731 60.218C43.1098 60.2627 43.1368 60.3141 43.1525 60.3692C43.1682 60.4243 43.1722 60.4819 43.1644 60.5385C43.1565 60.5952 43.1369 60.6497 43.1068 60.6987C43.0767 60.7478 43.0366 60.7904 42.9891 60.824C42.9416 60.8576 42.8875 60.8815 42.8302 60.8941L22.8235 66.353C22.759 66.3705 22.6911 66.3733 22.6253 66.3611C22.5594 66.3489 22.4974 66.3221 22.444 66.2827C22.3906 66.2433 22.3473 66.1924 22.3175 66.134C22.2876 66.0756 22.2721 66.0113 22.2721 65.9461V44.7048H13.4341C13.3625 44.7047 13.292 44.6874 13.229 44.6543C13.1659 44.6213 13.1122 44.5736 13.0727 44.5155C13.0329 44.4577 13.0086 44.3911 13.0019 44.3218C12.9952 44.2525 13.0064 44.1827 13.0345 44.1187L13.4978 43.0333C15.8423 37.9245 17.6445 32.5963 18.8766 27.1314C19.9362 21.8237 22.8338 17.0299 27.0863 13.5493C31.3389 10.0687 36.6892 8.1117 42.2452 8.00464C47.8011 7.89758 53.2269 9.64693 57.6177 12.961C62.0085 16.275 65.099 20.9535 66.3738 26.2161C67.764 32.0946 66.8206 38.2671 63.7324 43.4977C61.3699 47.4301 60.1156 51.8994 60.096 56.4543V71.5773C60.096 71.633 60.0847 71.6882 60.0627 71.7396C60.0408 71.791 60.0085 71.8377 59.968 71.877C59.9274 71.9163 59.8792 71.9474 59.8262 71.9685C59.7733 71.9896 59.7165 72.0003 59.6593 72Z" fill="#1D7B86" stroke="#1D7B86" stroke-width="1.12715"/>
<path d="M31.3182 72.0003C31.203 72.0003 31.0925 71.9557 31.011 71.8765C30.9296 71.7972 30.8838 71.6897 30.8838 71.5776V63.5985C30.8838 63.4864 30.9296 63.3788 31.011 63.2996C31.0925 63.2203 31.203 63.1758 31.3182 63.1758C31.4334 63.1758 31.5439 63.2203 31.6254 63.2996C31.7069 63.3788 31.7526 63.4864 31.7526 63.5985V71.5776C31.7526 71.6897 31.7069 71.7972 31.6254 71.8765C31.5439 71.9557 31.4334 72.0003 31.3182 72.0003Z" fill="#1D7B86" stroke="#1D7B86" stroke-width="1.12715"/>
<path d="M61.5784 30.3537C61.4719 30.3535 61.3692 30.3153 61.2898 30.2463C61.2103 30.1774 61.1597 30.0824 61.1475 29.9795C60.6904 26.0858 58.8911 22.4576 56.043 19.6865C53.1949 16.9154 49.466 15.1648 45.4641 14.7201C45.4075 14.7136 45.3527 14.6964 45.3028 14.6693C45.253 14.6423 45.2092 14.606 45.1738 14.5624C45.1384 14.5189 45.1121 14.469 45.0966 14.4156C45.081 14.3622 45.0764 14.3063 45.083 14.2512C45.0975 14.1403 45.1561 14.0394 45.2462 13.9701C45.3363 13.9007 45.4507 13.8685 45.5649 13.8803C49.761 14.347 53.6709 16.1828 56.6572 19.0886C59.6435 21.9944 61.5301 25.7987 62.0094 29.8814C62.016 29.9365 62.0114 29.9924 61.9958 30.0458C61.9803 30.0992 61.954 30.1491 61.9186 30.1926C61.8832 30.2362 61.8394 30.2725 61.7896 30.2996C61.7397 30.3266 61.6849 30.3439 61.6282 30.3503C61.6117 30.3525 61.5951 30.3536 61.5784 30.3537Z" fill="#1D7B86" stroke="#1D7B86" stroke-width="1.12715"/>
<path d="M61.577 30.3543C61.5133 30.3542 61.4504 30.3405 61.3928 30.3142C61.3351 30.2879 61.2841 30.2496 61.2433 30.2021L59.8369 28.5576C59.7879 28.5006 59.7552 28.4321 59.7422 28.3589C59.7292 28.2857 59.7362 28.2105 59.7627 28.1408C59.7891 28.0711 59.8341 28.0095 59.8929 27.9621C59.9517 27.9148 60.0223 27.8834 60.0976 27.8711L62.2639 27.5071C62.3391 27.4945 62.4164 27.5015 62.488 27.5272C62.5596 27.5529 62.6229 27.5966 62.6717 27.6537C62.7204 27.7108 62.7528 27.7795 62.7656 27.8526C62.7784 27.9258 62.7712 28.001 62.7447 28.0706L61.9847 30.0781C61.9585 30.1478 61.9139 30.2095 61.8553 30.257C61.7967 30.3045 61.7263 30.3361 61.6511 30.3486C61.6266 30.3527 61.6018 30.3546 61.577 30.3543ZM60.9861 28.5801L61.4298 29.0975L61.6696 28.4651L60.9861 28.5801Z" fill="#1D7B86" stroke="#1D7B86" stroke-width="1.12715"/>
<path d="M45.5136 50.1762C45.4035 50.1751 45.298 50.1333 45.2184 50.0593C45.1388 49.9854 45.091 49.8848 45.0847 49.7779C45.0784 49.671 45.114 49.5657 45.1844 49.4834C45.2547 49.401 45.3546 49.3477 45.4638 49.3343C49.4656 48.8895 53.1945 47.1389 56.0427 44.3678C58.8908 41.5967 60.69 37.9685 61.1471 34.0749C61.1605 33.9635 61.2188 33.8619 61.3091 33.7923C61.3995 33.7228 61.5146 33.691 61.629 33.704C61.7435 33.717 61.8479 33.7737 61.9194 33.8617C61.9909 33.9496 62.0235 34.0616 62.0102 34.1729C61.5316 38.2573 59.6446 42.0633 56.6571 44.9701C53.6695 47.8769 49.7578 49.7129 45.5599 50.1785L45.5136 50.1762Z" fill="#1D7B86" stroke="#1D7B86" stroke-width="1.12715"/>
<path d="M47.5767 50.915C47.5253 50.9151 47.4743 50.9064 47.4261 50.889L45.3629 50.1496C45.2916 50.1237 45.2286 50.08 45.1801 50.023C45.1316 49.9659 45.0993 49.8975 45.0864 49.8245C45.0735 49.7516 45.0805 49.6766 45.1066 49.6071C45.1328 49.5375 45.1772 49.4759 45.2355 49.4283L46.9257 48.0599C46.9847 48.0131 47.0552 47.9818 47.1303 47.9692C47.2054 47.9566 47.2825 47.963 47.3543 47.9878C47.4256 48.0139 47.4886 48.0577 47.5372 48.1149C47.5857 48.172 47.6181 48.2405 47.6312 48.3135L48.0054 50.4213C48.0162 50.482 48.0132 50.5443 47.9967 50.6037C47.9801 50.6632 47.9503 50.7184 47.9095 50.7655C47.8686 50.8125 47.8176 50.8503 47.7601 50.8761C47.7027 50.902 47.6401 50.9152 47.5767 50.915ZM46.3696 49.6097L47.0207 49.843L46.9048 49.178L46.3696 49.6097Z" fill="#1D7B86" stroke="#1D7B86" stroke-width="1.12715"/>
<path d="M41.2034 50.1765H41.1524C36.9546 49.7109 33.0428 47.8749 30.0552 44.9682C27.0677 42.0614 25.1807 38.2553 24.7022 34.171C24.6888 34.0596 24.7214 33.9477 24.7929 33.8597C24.8644 33.7718 24.9688 33.7151 25.0833 33.7021C25.1977 33.6891 25.3128 33.7208 25.4032 33.7904C25.4936 33.8599 25.5518 33.9616 25.5652 34.0729C26.022 37.9676 27.8217 41.5968 30.6708 44.3685C33.5199 47.1402 37.2502 48.8907 41.2532 49.3346C41.3624 49.348 41.4622 49.4013 41.5326 49.4837C41.603 49.566 41.6386 49.6713 41.6322 49.7782C41.6259 49.8851 41.5781 49.9857 41.4985 50.0596C41.4189 50.1336 41.3134 50.1754 41.2034 50.1765Z" fill="#1D7B86" stroke="#1D7B86" stroke-width="1.12715"/>
<path d="M24.3794 36.5524C24.31 36.5524 24.2415 36.5361 24.1799 36.505C24.1183 36.4738 24.0653 36.4287 24.0253 36.3735C23.9853 36.3182 23.9596 36.2545 23.9502 36.1875C23.9409 36.1206 23.9482 36.0524 23.9716 35.9888L24.7304 33.9813C24.7568 33.9118 24.8016 33.8502 24.8602 33.8027C24.9188 33.7553 24.9892 33.7238 25.0644 33.7112C25.1395 33.6986 25.2167 33.7055 25.2882 33.7312C25.3597 33.7568 25.4231 33.8003 25.4718 33.8573L26.8794 35.5007C26.9282 35.5576 26.9608 35.626 26.9738 35.699C26.9868 35.772 26.9798 35.8471 26.9535 35.9167C26.9269 35.9864 26.8821 36.0482 26.8233 36.0959C26.7646 36.1436 26.694 36.1754 26.6187 36.1883L24.4524 36.5512C24.4281 36.5533 24.4037 36.5537 24.3794 36.5524ZM25.2865 34.9563L25.0467 35.5887L25.7302 35.4759L25.2865 34.9563Z" fill="#1D7B86" stroke="#1D7B86" stroke-width="1.12715"/>
<path d="M25.14 30.353H25.089C24.9747 30.3397 24.8704 30.2829 24.799 30.1951C24.7276 30.1072 24.6948 29.9954 24.7079 29.8841C25.1869 25.8005 27.0737 21.9952 30.0607 19.089C33.0478 16.1827 36.9587 14.3468 41.1558 13.8808C41.2125 13.8743 41.2699 13.8788 41.3248 13.894C41.3797 13.9091 41.431 13.9347 41.4757 13.9691C41.5205 14.0035 41.5578 14.0462 41.5856 14.0947C41.6134 14.1431 41.6311 14.1965 41.6377 14.2516C41.6443 14.3068 41.6397 14.3626 41.6242 14.416C41.6086 14.4694 41.5824 14.5193 41.547 14.5629C41.5116 14.6064 41.4677 14.6427 41.4179 14.6698C41.3681 14.6968 41.3133 14.7141 41.2566 14.7205C37.2534 15.1648 33.5231 16.916 30.6744 19.6883C27.8257 22.4606 26.0267 26.0905 25.571 29.9856C25.5569 30.0872 25.5056 30.1804 25.4263 30.2479C25.3471 30.3155 25.2454 30.3528 25.14 30.353Z" fill="#1D7B86" stroke="#1D7B86" stroke-width="1.12715"/>
<path d="M39.5162 16.0917C39.4649 16.0919 39.4138 16.0831 39.3656 16.0658C39.2942 16.0401 39.2309 15.9966 39.1821 15.9396C39.1333 15.8827 39.1007 15.8142 39.0876 15.7412L38.7146 13.6334C38.7019 13.5602 38.7091 13.4851 38.7355 13.4155C38.762 13.3459 38.8067 13.2842 38.8652 13.2366C38.9242 13.1898 38.9947 13.1586 39.0698 13.146C39.1449 13.1333 39.222 13.1397 39.2938 13.1645L41.3559 13.9051C41.4274 13.9307 41.4907 13.9743 41.5394 14.0313C41.5882 14.0884 41.6206 14.1569 41.6335 14.23C41.6465 14.3031 41.6394 14.3782 41.613 14.4478C41.5866 14.5174 41.5419 14.579 41.4833 14.6264L39.7943 15.9948C39.716 16.0576 39.6177 16.0919 39.5162 16.0917ZM39.6993 14.2116L39.8151 14.8767L40.348 14.445L39.6993 14.2116Z" fill="#1D7B86" stroke="#1D7B86" stroke-width="1.12715"/>
<path d="M52.1456 43.8621C51.9418 43.8621 51.7332 43.852 51.5189 43.8317C50.4803 43.8093 49.492 43.3922 48.7655 42.6696C48.0391 41.947 47.6323 40.9764 47.6323 39.9656C47.5303 37.6628 49.0525 34.9013 51.4819 34.4628C54.7429 33.8733 54.5819 32.2818 54.5738 32.2085C54.5615 32.1096 54.5851 32.0096 54.6405 31.9259C54.6959 31.8421 54.7797 31.7798 54.8773 31.7498C54.9746 31.7201 55.0794 31.7248 55.1735 31.7629C55.2676 31.801 55.3448 31.8702 55.3917 31.9583C57.2904 35.5787 57.4908 39.7176 55.8759 42.0215C55.4675 42.6128 54.9102 43.0924 54.2572 43.4146C53.6042 43.7368 52.8772 43.8909 52.1456 43.8621ZM55.116 33.4123C54.7134 33.9543 54.1936 34.4037 53.5931 34.7289C52.9926 35.0542 52.3261 35.2473 51.6406 35.2947C49.6851 35.6475 48.4165 38.0201 48.5 39.9295C48.4965 40.7352 48.8211 41.5095 49.4026 42.0831C49.9841 42.6568 50.7754 42.9831 51.6035 42.9909C52.2754 43.106 52.9672 43.0316 53.5971 42.7763C54.2269 42.521 54.7685 42.0956 55.1577 41.5504C56.4285 39.7368 56.381 36.45 55.116 33.4123Z" fill="#1D7B86" stroke="#1D7B86" stroke-width="1.12715"/>
<path d="M45.596 45.386C45.4874 45.3864 45.3826 45.3471 45.3022 45.276C45.2219 45.2049 45.1718 45.1071 45.162 45.0018C45.1521 44.8966 45.1831 44.7916 45.2488 44.7075C45.3146 44.6233 45.4103 44.5663 45.5172 44.5474C47.1526 44.2112 48.6882 43.5183 50.0086 42.521C51.329 41.5237 52.3996 40.248 53.1399 38.7899C53.1615 38.7374 53.1938 38.6896 53.2348 38.6494C53.2757 38.6092 53.3246 38.5775 53.3784 38.556C53.4322 38.5345 53.4899 38.5238 53.5481 38.5244C53.6063 38.5251 53.6637 38.5371 53.717 38.5597C53.7703 38.5824 53.8184 38.6152 53.8585 38.6563C53.8985 38.6974 53.9296 38.7459 53.95 38.7989C53.9704 38.8519 53.9797 38.9083 53.9772 38.9649C53.9748 39.0214 53.9607 39.0769 53.9358 39.1281C53.1479 40.7197 51.992 42.1122 50.5586 43.1966C49.1252 44.2809 47.4532 45.0276 45.6736 45.3781C45.6481 45.3833 45.6221 45.386 45.596 45.386Z" fill="#1D7B86" stroke="#1D7B86" stroke-width="1.12715"/>
<path d="M44.2072 31.2888C43.8277 31.2883 43.4504 31.2321 43.0882 31.1219C42.2513 30.8614 41.4904 30.4105 40.8685 29.8065C40.5769 29.5352 40.3177 29.2327 40.0958 28.9048C39.797 28.4641 39.5867 27.9722 39.4761 27.4553C39.2298 26.2928 39.2847 25.0888 39.6359 23.9521C39.7231 23.615 39.8315 23.2833 39.9603 22.9591C40.796 20.9117 42.0313 19.0411 43.5979 17.4507C43.6383 17.4083 43.6872 17.3744 43.7416 17.3512C43.796 17.3279 43.8547 17.3157 43.9142 17.3154C43.9734 17.316 44.0319 17.328 44.0864 17.3506C44.1408 17.3733 44.1902 17.4061 44.2316 17.4473C45.2965 18.519 46.2267 19.7101 47.0026 20.9956C47.4348 21.7045 47.7993 22.4504 48.0916 23.224C48.387 23.9924 48.5714 24.7969 48.6395 25.6147C48.7261 26.4811 48.6072 27.3552 48.292 28.1699C48.2283 28.33 48.1634 28.4686 48.0858 28.6208C47.7653 29.2773 47.2968 29.855 46.7151 30.3111C46.1335 30.7671 45.4537 31.0897 44.7262 31.2549C44.5543 31.2785 44.3809 31.2898 44.2072 31.2888ZM43.9211 18.3614C42.5729 19.7933 41.5053 21.4531 40.7712 23.2589C40.6543 23.5535 40.5557 23.8546 40.4758 24.1606C40.1655 25.1666 40.1134 26.2313 40.3241 27.2614C40.4115 27.679 40.5802 28.0766 40.821 28.4325C41.0082 28.7097 41.227 28.9653 41.4733 29.1945C41.9962 29.7045 42.6363 30.0863 43.3407 30.3081C43.7486 30.4329 44.1799 30.468 44.6034 30.4107C45.1922 30.2648 45.7403 29.9935 46.2081 29.6163C46.676 29.2391 47.0518 28.7655 47.3085 28.2297C47.3725 28.1084 47.4297 27.9838 47.4799 27.8566C47.7486 27.16 47.8489 26.4125 47.773 25.6721V25.6654C47.7098 24.9254 47.5418 24.1975 47.2737 23.5024C46.9994 22.7791 46.6574 22.0818 46.2519 21.4194C45.591 20.321 44.8094 19.2957 43.9211 18.3614Z" fill="#1D7B86" stroke="#1D7B86" stroke-width="1.12715"/>
<path d="M33.3522 45.3858C33.2819 45.3855 33.2127 45.3686 33.1505 45.3366C33.0884 45.3046 33.0351 45.2585 32.9953 45.2021C32.9554 45.1457 32.9302 45.0808 32.9217 45.0129C32.9133 44.945 32.9219 44.8761 32.9468 44.8121L34.9011 39.8379H30.1977C30.1118 39.8379 30.0279 39.813 29.9566 39.7666C29.8852 39.7201 29.8296 39.6541 29.7967 39.577C29.7639 39.4998 29.7553 39.4148 29.772 39.3329C29.7887 39.2509 29.83 39.1757 29.8907 39.1166L37.3501 31.8588C37.4183 31.7926 37.5072 31.7503 37.6028 31.7386C37.6984 31.727 37.7953 31.7465 37.8782 31.7943C37.9612 31.8421 38.0254 31.9153 38.0609 32.0025C38.0963 32.0896 38.101 32.1858 38.0741 32.2759L36.7894 36.5703H41.5391C41.6251 36.5702 41.7091 36.5948 41.7807 36.6412C41.8522 36.6876 41.908 36.7535 41.941 36.8308C41.974 36.908 41.9827 36.993 41.966 37.0751C41.9493 37.1571 41.908 37.2325 41.8473 37.2917L33.6557 45.2618C33.5751 45.3401 33.4661 45.3846 33.3522 45.3858ZM31.245 38.9926H35.5313C35.6018 38.9923 35.6713 39.0089 35.7338 39.0407C35.7962 39.0725 35.8498 39.1187 35.8897 39.1753C35.9297 39.2318 35.9548 39.297 35.963 39.3651C35.9712 39.4332 35.9622 39.5023 35.9368 39.5663L34.484 43.2622L40.4942 37.4157H36.2078C36.1405 37.4155 36.0741 37.4001 36.0139 37.3707C35.9538 37.3413 35.9014 37.2986 35.8611 37.2462C35.8208 37.1937 35.7935 37.1328 35.7815 37.0683C35.7695 37.0039 35.7731 36.9376 35.792 36.8746L36.7639 33.6217L31.245 38.9926Z" fill="#1D7B86" stroke="#1D7B86" stroke-width="1.12715"/>
</svg>
