<svg width="360" height="1214" viewBox="0 0 360 1214" fill="none" xmlns="http://www.w3.org/2000/svg">
<path d="M242.975 480.69C256.118 528.663 307.378 560.208 356.009 552.322C410.554 543.121 448.013 491.862 438.813 437.316C435.251 415.338 429.897 393.963 422.907 373.344C369.284 215.169 219.354 101.499 43.1938 101.499C-178.931 101.499 -358.34 281.233 -358.34 502.702C-358.34 336.436 -223.619 201.39 -57.354 201.39C63.2484 201.39 167.222 272.439 215.305 374.701C230.628 407.29 240.275 443.05 242.975 480.69Z" fill="url(#paint0_linear_1_2284)"/>
<path d="M-358.34 502.702C-358.34 226.031 -133.258 0.949219 143.413 0.949219C345.165 0.949219 518.821 119.241 598.34 290.764C598.696 291.507 599.041 292.252 599.376 293C620.667 340.521 599.067 396.915 551.19 418.913C503.576 441.742 446.252 421.198 422.907 373.344C422.731 372.982 422.556 372.619 422.383 372.254C368.495 214.532 219.316 101.497 43.1938 101.497C-178.931 101.497 -358.34 281.234 -358.34 502.702Z" fill="url(#paint1_linear_1_2284)"/>
<path d="M117.685 733.314C104.542 685.34 53.2823 653.796 4.65142 661.682C-49.8941 670.882 -87.3529 722.142 -78.1525 776.688C-74.5905 798.666 -69.237 820.041 -62.247 840.659C-8.62352 998.835 141.306 1112.51 317.466 1112.51C539.591 1112.51 719 932.77 719 711.302C719 877.568 584.279 1012.61 418.014 1012.61C297.412 1012.61 193.438 941.565 145.355 839.303C130.032 806.713 120.385 770.954 117.685 733.314Z" fill="url(#paint2_linear_1_2284)"/>
<path d="M719 711.302C719 987.973 493.918 1213.05 217.247 1213.05C15.4947 1213.05 -158.161 1094.76 -237.679 923.24C-238.036 922.497 -238.381 921.751 -238.716 921.004C-260.007 873.483 -238.407 817.088 -190.529 795.09C-142.916 772.262 -85.5919 792.806 -62.247 840.659C-62.0704 841.021 -61.8958 841.385 -61.7232 841.75C-7.83488 999.472 141.344 1112.51 317.466 1112.51C539.591 1112.51 719 932.77 719 711.302Z" fill="url(#paint3_linear_1_2284)"/>
<defs>
<linearGradient id="paint0_linear_1_2284" x1="124.619" y1="0.949219" x2="124.619" y2="553.529" gradientUnits="userSpaceOnUse">
<stop stop-color="#85E4D9"/>
<stop offset="1" stop-color="#85E4D9" stop-opacity="0"/>
</linearGradient>
<linearGradient id="paint1_linear_1_2284" x1="124.619" y1="0.949219" x2="124.619" y2="553.529" gradientUnits="userSpaceOnUse">
<stop stop-color="#F1E4B6"/>
<stop offset="1" stop-color="#F1E4B6" stop-opacity="0"/>
</linearGradient>
<linearGradient id="paint2_linear_1_2284" x1="236.041" y1="1213.05" x2="236.041" y2="660.475" gradientUnits="userSpaceOnUse">
<stop stop-color="#9F6EE0"/>
<stop offset="1" stop-color="#9F6EE0" stop-opacity="0"/>
</linearGradient>
<linearGradient id="paint3_linear_1_2284" x1="236.041" y1="1213.05" x2="236.041" y2="660.475" gradientUnits="userSpaceOnUse">
<stop stop-color="#E9B3C4"/>
<stop offset="1" stop-color="#E9B3C4" stop-opacity="0"/>
</linearGradient>
</defs>
</svg>
