<svg width="80" height="80" viewBox="0 0 80 80" fill="none" xmlns="http://www.w3.org/2000/svg">
<ellipse cx="40" cy="39.8135" rx="32" ry="31.8135" fill="#CDF0F4"/>
<path d="M61.1108 18.4138H18.854C18.7404 18.4138 18.6315 18.3695 18.5512 18.2907C18.4709 18.2118 18.4258 18.1049 18.4258 17.9934V8.793C18.4258 8.68149 18.4709 8.57455 18.5512 8.4957C18.6315 8.41685 18.7404 8.37256 18.854 8.37256H61.1108C61.2244 8.37256 61.3333 8.41685 61.4136 8.4957C61.4939 8.57455 61.539 8.68149 61.539 8.793V17.9934C61.539 18.1049 61.4939 18.2118 61.4136 18.2907C61.3333 18.3695 61.2244 18.4138 61.1108 18.4138ZM19.2822 17.5729H60.6826V9.21344H19.2822V17.5729Z" fill="#1D7B86" stroke="#1D7B86"/>
<path d="M65.8946 71.9997H56.3567C56.2485 71.9994 56.1444 71.9591 56.0653 71.8867C55.9861 71.8144 55.9376 71.7154 55.9296 71.6095C54.194 48.2173 55.756 30.6305 60.7049 17.8446C60.7419 17.7717 60.7989 17.7103 60.8695 17.6673C60.9401 17.6244 61.0215 17.6017 61.1045 17.6017C61.1875 17.6017 61.2689 17.6244 61.3395 17.6673C61.4101 17.7103 61.4671 17.7717 61.5042 17.8446C66.4381 30.5913 68.0128 48.178 66.3228 71.6084C66.3158 71.7149 66.2676 71.8148 66.1879 71.8876C66.1083 71.9604 66.0034 72.0005 65.8946 71.9997ZM56.7517 71.1588H65.4915C67.0821 48.6949 65.6445 31.6777 61.0977 19.2091C56.5416 31.7125 55.1189 48.7297 56.7517 71.1588Z" fill="#1D7B86" stroke="#1D7B86"/>
<path d="M56.3579 71.9989H14.0851C13.9769 71.9986 13.8729 71.9583 13.7937 71.8859C13.7145 71.8136 13.6661 71.7146 13.658 71.6087C11.9292 48.3062 13.4913 30.7194 18.4344 17.845C18.4649 17.765 18.5195 17.6961 18.5909 17.6474C18.6623 17.5987 18.7471 17.5726 18.8341 17.5725H61.1034C61.1728 17.5727 61.2411 17.5893 61.3025 17.621C61.3639 17.6526 61.4167 17.6983 61.4563 17.7541C61.4957 17.8101 61.5207 17.8747 61.5291 17.9423C61.5375 18.0099 61.5289 18.0784 61.5042 18.1421C56.5942 30.8113 55.055 48.2804 56.7815 71.5481C56.7852 71.6055 56.777 71.6631 56.7572 71.7172C56.7375 71.7714 56.7067 71.821 56.6667 71.863C56.6267 71.905 56.5783 71.9385 56.5246 71.9615C56.4709 71.9845 56.413 71.9964 56.3545 71.9966L56.3579 71.9989ZM14.487 71.158H55.8943C54.2363 48.3342 55.7401 31.0681 60.4857 18.4134H19.1332C14.3431 31.0759 12.8222 48.3364 14.4836 71.158H14.487Z" fill="#1D7B86" stroke="#1D7B86"/>
<path d="M35.8938 47.7777C35.3675 47.7777 35.0363 47.7564 34.9804 47.7531C34.8779 47.7455 34.7817 47.7021 34.7091 47.6307C34.6366 47.5593 34.5927 47.4646 34.5853 47.364C34.5624 47.0568 34.0783 39.7994 38.4333 35.5233C42.7884 31.2471 50.1808 31.7225 50.4925 31.7438C50.595 31.751 50.6914 31.7942 50.7641 31.8654C50.8368 31.9366 50.8811 32.0312 50.8888 32.1317C50.9104 32.4389 51.3935 39.6974 47.0395 43.9725C43.5295 47.4122 38.0611 47.7777 35.8938 47.7777ZM35.4188 46.929C36.9603 46.9593 42.8912 46.8494 46.4275 43.3782C49.9673 39.9026 50.0815 34.0927 50.0438 32.5679C48.5011 32.5309 42.5703 32.6463 39.034 36.1186C35.4976 39.5909 35.3834 45.4042 35.4188 46.929Z" fill="#1D7B86" stroke="#1D7B86"/>
<path d="M34.0719 47.7772C31.9023 47.7772 26.4374 47.4117 22.9319 43.9719C18.578 39.6969 19.061 32.4384 19.0827 32.1312C19.0902 32.0311 19.134 31.9371 19.206 31.8659C19.2781 31.7948 19.3736 31.7513 19.4755 31.7433C19.7883 31.7208 27.1785 31.2466 31.5335 35.5227C35.8886 39.7989 35.409 47.0563 35.3873 47.3612C35.3794 47.4618 35.3351 47.5564 35.2625 47.6277C35.1898 47.6991 35.0935 47.7425 34.9911 47.7503C34.9294 47.7559 34.5983 47.7772 34.0719 47.7772ZM23.5394 43.3777C27.0791 46.8533 32.994 46.9655 34.5469 46.9285C34.5811 45.4037 34.467 39.5892 30.9306 36.1181C27.3943 32.6469 21.4772 32.5303 19.9231 32.5673C19.8877 34.091 20.003 39.9065 23.5394 43.3777Z" fill="#1D7B86" stroke="#1D7B86"/>
<path d="M34.9829 63.4273C34.8693 63.4273 34.7604 63.383 34.6801 63.3041C34.5998 63.2253 34.5547 63.1183 34.5547 63.0068V38.5473C34.5547 38.4358 34.5998 38.3288 34.6801 38.25C34.7604 38.1711 34.8693 38.1268 34.9829 38.1268C35.0965 38.1268 35.2054 38.1711 35.2857 38.25C35.366 38.3288 35.4111 38.4358 35.4111 38.5473V63.0068C35.4111 63.1183 35.366 63.2253 35.2857 63.3041C35.2054 63.383 35.0965 63.4273 34.9829 63.4273Z" fill="#1D7B86" stroke="#1D7B86"/>
<path d="M56.3583 71.9996C56.2709 72.0001 56.1854 71.9738 56.1139 71.9245C56.0207 71.8608 55.957 71.7635 55.9366 71.6538C55.9163 71.5441 55.941 71.431 56.0055 71.3392L60.7545 64.6121C60.7942 64.5568 60.8469 64.5115 60.908 64.4801C60.9692 64.4487 61.0371 64.4321 61.1061 64.4316C61.1751 64.4319 61.243 64.4483 61.3041 64.4795C61.3653 64.5107 61.418 64.5558 61.4578 64.611L66.2536 71.3381C66.3188 71.4295 66.3442 71.5426 66.3244 71.6525C66.3046 71.7623 66.2411 71.86 66.148 71.9239C66.0549 71.9878 65.9397 72.0128 65.8278 71.9934C65.716 71.9739 65.6165 71.9116 65.5514 71.8202L61.1107 65.5876L56.7123 71.8191C56.6726 71.8751 56.6197 71.9208 56.558 71.9523C56.4963 71.9837 56.4278 71.9999 56.3583 71.9996Z" fill="#1D7B86" stroke="#1D7B86"/>
<path d="M61.104 65.2718C60.9904 65.2718 60.8815 65.2275 60.8012 65.1486C60.7209 65.0698 60.6758 64.9629 60.6758 64.8514V17.993C60.6758 17.8814 60.7209 17.7745 60.8012 17.6957C60.8815 17.6168 60.9904 17.5725 61.104 17.5725C61.2175 17.5725 61.3265 17.6168 61.4068 17.6957C61.4871 17.7745 61.5322 17.8814 61.5322 17.993V64.8514C61.5322 64.9629 61.4871 65.0698 61.4068 65.1486C61.3265 65.2275 61.2175 65.2718 61.104 65.2718Z" fill="#1D7B86" stroke="#1D7B86"/>
</svg>
