<svg width="81" height="80" viewBox="0 0 81 80" fill="none" xmlns="http://www.w3.org/2000/svg">
<ellipse cx="40.623" cy="40" rx="32" ry="31.8135" fill="#CDF0F4"/>
<path d="M58.291 29.1508H50.4346C50.3224 29.1508 50.2149 29.1068 50.1356 29.0284C50.0563 28.95 50.0117 28.8437 50.0117 28.7329C50.0117 28.622 50.0563 28.5157 50.1356 28.4373C50.2149 28.3589 50.3224 28.3149 50.4346 28.3149H58.291C58.9601 28.3149 59.6142 28.1188 60.1705 27.7514C60.7268 27.384 61.1604 26.8619 61.4165 26.2509C61.6725 25.64 61.7395 24.9677 61.609 24.3191C61.4785 23.6705 61.1563 23.0748 60.6831 22.6072C60.21 22.1396 59.6072 21.8211 58.951 21.6921C58.2948 21.5631 57.6146 21.6293 56.9964 21.8824C56.3782 22.1354 55.8499 22.564 55.4782 23.1138C55.1064 23.6637 54.908 24.3101 54.908 24.9714C54.908 25.0822 54.8635 25.1885 54.7842 25.2669C54.7049 25.3453 54.5973 25.3893 54.4851 25.3893C54.373 25.3893 54.2654 25.3453 54.1861 25.2669C54.1068 25.1885 54.0623 25.0822 54.0623 24.9714C54.0618 24.1435 54.3098 23.3342 54.7749 22.6456C55.2399 21.9571 55.9012 21.4203 56.6749 21.1033C57.4487 20.7862 58.3002 20.7031 59.1218 20.8644C59.9433 21.0257 60.698 21.4242 61.2904 22.0095C61.8828 22.5948 62.2862 23.3406 62.4496 24.1526C62.6131 24.9645 62.5292 25.8061 62.2086 26.5709C61.888 27.3358 61.3451 27.9894 60.6485 28.4492C59.952 28.909 59.1331 29.1544 58.2955 29.1541L58.291 29.1508Z" fill="#1D7B86" stroke="#1D7B86"/>
<path d="M36.4564 29.1503H16.9287C16.8166 29.1503 16.709 29.1063 16.6297 29.0279C16.5504 28.9495 16.5059 28.8432 16.5059 28.7324C16.5059 28.6215 16.5504 28.5152 16.6297 28.4369C16.709 28.3585 16.8166 28.3145 16.9287 28.3145H36.4564C36.5686 28.3145 36.6761 28.3585 36.7555 28.4369C36.8348 28.5152 36.8793 28.6215 36.8793 28.7324C36.8793 28.8432 36.8348 28.9495 36.7555 29.0279C36.6761 29.1063 36.5686 29.1503 36.4564 29.1503Z" fill="#1D7B86" stroke="#1D7B86"/>
<path d="M67.7626 42.4784H52.6201C52.508 42.4784 52.4004 42.4344 52.3211 42.356C52.2418 42.2776 52.1973 42.1713 52.1973 42.0604C52.1973 41.9496 52.2418 41.8433 52.3211 41.7649C52.4004 41.6865 52.508 41.6425 52.6201 41.6425H67.7626C68.4317 41.6425 69.0858 41.4464 69.6421 41.079C70.1984 40.7116 70.632 40.1894 70.8881 39.5785C71.1441 38.9675 71.2111 38.2953 71.0806 37.6467C70.9501 36.9981 70.6279 36.4023 70.1547 35.9347C69.6816 35.4671 69.0788 35.1487 68.4226 35.0197C67.7664 34.8907 67.0862 34.9569 66.468 35.21C65.8498 35.463 65.3215 35.8916 64.9498 36.4414C64.578 36.9913 64.3796 37.6377 64.3796 38.299C64.3796 38.4098 64.3351 38.5161 64.2558 38.5945C64.1765 38.6729 64.0689 38.7169 63.9567 38.7169C63.8446 38.7169 63.737 38.6729 63.6577 38.5945C63.5784 38.5161 63.5339 38.4098 63.5339 38.299C63.5339 37.4715 63.7822 36.6626 64.2473 35.9745C64.7125 35.2865 65.3736 34.7503 66.1471 34.4336C66.9207 34.1169 67.7718 34.0341 68.593 34.1955C69.4141 34.3569 70.1684 34.7554 70.7605 35.3405C71.3525 35.9257 71.7557 36.6712 71.919 37.4827C72.0824 38.2943 71.9985 39.1356 71.6781 39.9001C71.3577 40.6646 70.8151 41.318 70.119 41.7777C69.4228 42.2375 68.6044 42.4828 67.7671 42.4828L67.7626 42.4784Z" fill="#1D7B86" stroke="#1D7B86"/>
<path d="M49.7866 58.8114H8.42287C8.31072 58.8114 8.20316 58.7673 8.12386 58.689C8.04455 58.6106 8 58.5043 8 58.3934C8 58.2826 8.04455 58.1763 8.12386 58.0979C8.20316 58.0195 8.31072 57.9755 8.42287 57.9755H49.7866C50.4557 57.9755 51.1098 57.7794 51.6661 57.412C52.2224 57.0446 52.656 56.5224 52.9121 55.9115C53.1681 55.3005 53.2351 54.6282 53.1046 53.9797C52.9741 53.3311 52.6519 52.7353 52.1787 52.2677C51.7056 51.8001 51.1028 51.4817 50.4466 51.3527C49.7904 51.2237 49.1102 51.2899 48.492 51.5429C47.8738 51.796 47.3455 52.2246 46.9738 52.7744C46.602 53.3242 46.4036 53.9707 46.4036 54.632C46.4036 54.7428 46.3591 54.8491 46.2798 54.9275C46.2005 55.0059 46.0929 55.0499 45.9808 55.0499C45.8686 55.0499 45.761 55.0059 45.6817 54.9275C45.6024 54.8491 45.5579 54.7428 45.5579 54.632C45.5568 53.8038 45.8043 52.9939 46.2691 52.3048C46.734 51.6157 47.3953 51.0785 48.1692 50.761C48.9432 50.4436 49.795 50.3602 50.6169 50.5215C51.4389 50.6829 52.1939 51.0815 52.7864 51.6672C53.3789 52.2528 53.7823 52.999 53.9455 53.8113C54.1087 54.6236 54.0244 55.4655 53.7032 56.2305C53.382 56.9954 52.8384 57.649 52.1412 58.1084C51.444 58.5678 50.6246 58.8125 49.7866 58.8114Z" fill="#1D7B86" stroke="#1D7B86"/>
<path d="M50.5803 26.6178H37.0484L34.8833 33.3048H28.1173L23.7871 46.6789H30.5531L28.388 53.366H41.9199L44.085 46.679H50.851L55.1812 33.3048L48.4152 33.3048L50.5803 26.6178Z" stroke="#1D7B86" stroke-width="2" stroke-linejoin="round"/>
<path d="M19.5802 42.4793H11.628C11.5158 42.4793 11.4082 42.4353 11.3289 42.3569C11.2496 42.2785 11.2051 42.1722 11.2051 42.0614C11.2051 41.9505 11.2496 41.8442 11.3289 41.7658C11.4082 41.6875 11.5158 41.6434 11.628 41.6434H19.5802C19.6924 41.6434 19.7999 41.6875 19.8792 41.7658C19.9585 41.8442 20.0031 41.9505 20.0031 42.0614C20.0031 42.1722 19.9585 42.2785 19.8792 42.3569C19.7999 42.4353 19.6924 42.4793 19.5802 42.4793Z" fill="#1D7B86" stroke="#1D7B86"/>
<path d="M57.3517 63.8164H29.9326C29.8205 63.8164 29.7129 63.7723 29.6336 63.6939C29.5543 63.6156 29.5098 63.5093 29.5098 63.3984C29.5098 63.2876 29.5543 63.1813 29.6336 63.1029C29.7129 63.0245 29.8205 62.9805 29.9326 62.9805H57.3517C57.4639 62.9805 57.5714 63.0245 57.6507 63.1029C57.73 63.1813 57.7746 63.2876 57.7746 63.3984C57.7746 63.5093 57.73 63.6156 57.6507 63.6939C57.5714 63.7723 57.4639 63.8164 57.3517 63.8164Z" fill="#1D7B86" stroke="#1D7B86"/>
<path d="M25.789 63.8164H21.8975C21.7853 63.8164 21.6778 63.7723 21.5985 63.6939C21.5192 63.6156 21.4746 63.5093 21.4746 63.3984C21.4746 63.2876 21.5192 63.1813 21.5985 63.1029C21.6778 63.0245 21.7853 62.9805 21.8975 62.9805H25.789C25.9012 62.9805 26.0088 63.0245 26.0881 63.1029C26.1674 63.1813 26.2119 63.2876 26.2119 63.3984C26.2119 63.5093 26.1674 63.6156 26.0881 63.6939C26.0088 63.7723 25.9012 63.8164 25.789 63.8164Z" fill="#1D7B86" stroke="#1D7B86"/>
<path d="M28.3342 51.7812H22.8447C22.7326 51.7812 22.625 51.7372 22.5457 51.6588C22.4664 51.5804 22.4219 51.4741 22.4219 51.3633C22.4219 51.2524 22.4664 51.1461 22.5457 51.0677C22.625 50.9893 22.7326 50.9453 22.8447 50.9453H28.3342C28.4464 50.9453 28.5539 50.9893 28.6332 51.0677C28.7125 51.1461 28.7571 51.2524 28.7571 51.3633C28.7571 51.4741 28.7125 51.5804 28.6332 51.6588C28.5539 51.7372 28.4464 51.7812 28.3342 51.7812Z" fill="#1D7B86" stroke="#1D7B86"/>
<path d="M49.4781 19.6523H33.4112C33.299 19.6523 33.1914 19.6083 33.1121 19.5299C33.0328 19.4515 32.9883 19.3452 32.9883 19.2343C32.9883 19.1235 33.0328 19.0172 33.1121 18.9388C33.1914 18.8604 33.299 18.8164 33.4112 18.8164H49.4781C49.5902 18.8164 49.6978 18.8604 49.7771 18.9388C49.8564 19.0172 49.9009 19.1235 49.9009 19.2343C49.9009 19.3452 49.8564 19.4515 49.7771 19.5299C49.6978 19.6083 49.5902 19.6523 49.4781 19.6523Z" fill="#1D7B86" stroke="#1D7B86"/>
</svg>
