<svg width="80" height="80" viewBox="0 0 80 80" fill="none" xmlns="http://www.w3.org/2000/svg">
<ellipse cx="40" cy="39.7209" rx="32" ry="31.8135" fill="#CDF0F4"/>
<path d="M27.5871 72.0926H22.3706C21.7028 72.092 21.0625 71.8251 20.5904 71.3504C20.1182 70.8757 19.8526 70.2321 19.8521 69.5608V50.1975C19.8544 49.5278 20.1209 48.8864 20.593 48.4139C21.0651 47.9414 21.7044 47.6764 22.3706 47.677H27.5871C28.2533 47.6764 28.8925 47.9414 29.3647 48.4139C29.8368 48.8864 30.1032 49.5278 30.1056 50.1975V69.5608C30.105 70.2321 29.8395 70.8757 29.3673 71.3504C28.8951 71.8251 28.2549 72.092 27.5871 72.0926ZM22.3706 48.5228C22.1507 48.5216 21.9327 48.564 21.7291 48.6475C21.5255 48.7311 21.3403 48.8541 21.184 49.0096C21.0277 49.1652 20.9035 49.3501 20.8183 49.5539C20.7332 49.7578 20.6888 49.9764 20.6878 50.1975V69.5608C20.6893 70.0085 20.8672 70.4373 21.1827 70.7533C21.4981 71.0694 21.9252 71.2468 22.3706 71.2468H27.5871C28.0324 71.2468 28.4596 71.0694 28.775 70.7533C29.0904 70.4373 29.2684 70.0085 29.2698 69.5608V50.1975C29.2688 49.9764 29.2245 49.7578 29.1393 49.5539C29.0542 49.3501 28.9299 49.1652 28.7737 49.0096C28.6174 48.8541 28.4322 48.7311 28.2286 48.6475C28.025 48.564 27.807 48.5216 27.5871 48.5228H22.3706Z" fill="#1D7B86" stroke="#1D7B86"/>
<path d="M20.6954 69.6738H12.8594V50.094H20.6954V69.6738ZM13.7007 68.828H19.854V50.9398H13.7007V68.828Z" fill="#1D7B86" stroke="#1D7B86"/>
<path d="M54.5535 69.6679H41.0915C39.5298 69.6678 37.9692 69.588 36.4157 69.4289L29.2617 68.6665V50.2595L29.6757 50.034C32.3038 48.6513 34.5564 46.6444 36.2378 44.1878C37.9191 41.7311 38.9783 38.8989 39.3234 35.9372L39.7946 31.8897C39.8599 31.333 40.0769 30.8052 40.4215 30.3645C40.7662 29.9238 41.2251 29.5872 41.7479 29.392C42.2706 29.1968 42.8369 29.1504 43.3841 29.258C43.9314 29.3656 44.4385 29.6231 44.8496 30.0019C46.3923 31.4185 47.453 33.2867 47.8818 35.3424C48.3106 37.3981 48.0857 39.5372 47.2391 41.4575L46.3439 43.4761C46.2655 43.6575 46.2334 43.8557 46.2506 44.0526C46.2679 44.2496 46.3339 44.4391 46.4426 44.6039C46.5472 44.7686 46.6915 44.904 46.8622 44.9974C47.0328 45.0909 47.2243 45.1394 47.4186 45.1384H55.8436C56.4895 45.14 57.1213 45.3284 57.6636 45.6812C58.206 46.0339 58.6358 46.5361 58.902 47.1277C59.1681 47.7194 59.2592 48.3755 59.1645 49.0179C59.0698 49.6602 58.7932 50.2615 58.3677 50.7501C58.3201 50.8072 58.2695 50.8618 58.2163 50.9136C58.1501 50.9801 58.0816 51.0433 58.011 51.1042C58.0502 51.1042 58.0884 51.1155 58.1231 51.1234C58.8862 51.2807 59.5723 51.697 60.0662 52.3026C60.5601 52.9081 60.8318 53.666 60.8357 54.4491C60.8362 54.8925 60.7492 55.3316 60.5797 55.741C60.4103 56.1505 60.1618 56.522 59.8485 56.8342C59.3823 57.3015 58.7917 57.6234 58.1478 57.7612L58.0154 57.7827C58.1411 57.8921 58.2589 58.0104 58.3677 58.1368C58.9057 58.752 59.2025 59.5432 59.2025 60.3624C59.2025 61.1816 58.9057 61.9727 58.3677 62.588C58.3202 62.6452 58.2697 62.6998 58.2163 62.7515C57.7907 63.1889 57.2523 63.4982 56.6614 63.6447C57.0556 63.9617 57.3738 64.3638 57.5925 64.8211C57.8111 65.2785 57.9246 65.7795 57.9246 66.287C57.9246 66.4302 57.9134 66.561 57.901 66.6918C57.8001 67.5129 57.4041 68.2687 56.7875 68.8168C56.171 69.3649 55.3765 69.6676 54.5535 69.6679ZM30.1031 67.9064L36.4975 68.5831C38.0224 68.739 39.5542 68.8173 41.087 68.8176H54.549C55.1619 68.8173 55.7539 68.5937 56.2155 68.1884C56.677 67.7831 56.9769 67.2234 57.0596 66.6129C57.0686 66.5091 57.0787 66.402 57.0787 66.2859C57.0766 65.6132 56.8099 64.9687 56.3368 64.4931C55.8637 64.0175 55.2226 63.7494 54.5535 63.7473V62.9015H55.8436C56.1737 62.904 56.501 62.8397 56.8059 62.7124C57.1108 62.5851 57.3871 62.3975 57.6183 62.1606C57.6526 62.1281 57.6852 62.0939 57.7159 62.0579C58.04 61.6932 58.2524 61.2421 58.3276 60.7589C58.4028 60.2757 58.3376 59.7809 58.1399 59.3341C57.9421 58.8872 57.6202 58.5073 57.2129 58.2399C56.8056 57.9725 56.3301 57.829 55.8436 57.8267V56.9808H57.459C57.6336 56.9793 57.8078 56.9627 57.9795 56.9312C58.4599 56.8264 58.9002 56.5853 59.2483 56.2365C59.483 56.0024 59.6692 55.724 59.7963 55.4172C59.9233 55.1104 59.9888 54.7814 59.9887 54.4491C59.9865 53.8637 59.7849 53.2968 59.4175 52.8427C59.0501 52.3886 58.5391 52.0748 57.9694 51.9534C57.8017 51.9231 57.6317 51.9073 57.4613 51.906H55.8436V51.0602C56.1742 51.0605 56.5016 50.9948 56.8068 50.8671C57.112 50.7393 57.389 50.552 57.6217 50.3159C57.658 50.2804 57.6921 50.2428 57.7238 50.2031C58.1401 49.7397 58.3679 49.1359 58.3621 48.5115C58.3615 47.8402 58.096 47.1966 57.6238 46.7219C57.1516 46.2473 56.5113 45.9803 55.8436 45.9797H47.4186C47.0842 45.9779 46.7555 45.8927 46.462 45.7316C46.1686 45.5706 45.9194 45.3388 45.737 45.0571C45.5547 44.7753 45.4447 44.4525 45.4171 44.1175C45.3895 43.7825 45.445 43.4459 45.5788 43.1378L46.4763 41.1158C46.991 39.9431 47.2584 38.676 47.2615 37.3942C47.2606 36.121 46.996 34.8619 46.4848 33.697C45.9736 32.5321 45.2268 31.4869 44.292 30.6278C43.9953 30.3541 43.6292 30.1681 43.234 30.0901C42.8389 30.0122 42.43 30.0453 42.0524 30.186C41.6747 30.3266 41.343 30.5692 41.0937 30.8871C40.8444 31.205 40.6872 31.5859 40.6394 31.9878L40.1682 36.0364C39.8084 39.1288 38.7044 42.0865 36.9516 44.6534C35.1988 47.2204 32.85 49.3191 30.1087 50.7681L30.1031 67.9064Z" fill="#1D7B86" stroke="#1D7B86"/>
<path d="M50.647 33.0693C50.1731 33.0677 49.7002 33.0255 49.2335 32.943C47.8347 32.8093 46.5435 32.1307 45.6361 31.0522C44.7287 29.9738 44.2772 28.5811 44.3782 27.1723C44.4758 23.9267 46.8182 20.1995 50.1511 19.8273C55.0053 19.2849 54.8628 16.7429 54.8628 16.717C54.8545 16.6165 54.8822 16.5164 54.9408 16.4346C54.9995 16.3528 55.0853 16.2948 55.1827 16.271C55.2802 16.2472 55.3829 16.2592 55.4723 16.3047C55.5618 16.3503 55.6321 16.4266 55.6706 16.5197C57.8761 21.7783 57.728 27.8095 55.3183 30.86C54.7664 31.5705 54.056 32.1406 53.2446 32.5244C52.4332 32.9082 51.5434 33.0948 50.647 33.0693ZM55.352 18.0613C54.8247 19.0672 53.5077 20.3032 50.2442 20.6675C47.3881 20.9878 45.3082 24.3654 45.2195 27.1982C45.1264 28.4019 45.5105 29.5937 46.2881 30.5138C47.0657 31.4339 48.1737 32.0075 49.3703 32.1096C50.3261 32.3517 51.331 32.3131 52.2656 31.9983C53.2002 31.6834 54.0253 31.1056 54.643 30.3334C56.706 27.7373 56.9539 22.7267 55.352 18.0613Z" fill="#1D7B86" stroke="#1D7B86"/>
<path d="M46.2942 32.8402C46.2022 32.8385 46.1134 32.8065 46.0412 32.7491C45.969 32.6918 45.9175 32.6122 45.8946 32.5227C45.8717 32.4331 45.8786 32.3385 45.9143 32.2532C45.95 32.168 46.0125 32.0969 46.0923 32.0508C48.5976 30.6504 50.6881 28.6065 52.1502 26.1279C52.2038 26.032 52.2925 25.961 52.3974 25.9297C52.5023 25.8985 52.6152 25.9096 52.7121 25.9607C52.809 26.0117 52.8823 26.0987 52.9165 26.2032C52.9506 26.3077 52.943 26.4214 52.8951 26.5203C51.3669 29.1562 49.1542 31.3244 46.4939 32.7928C46.4324 32.8252 46.3637 32.8415 46.2942 32.8402Z" fill="#1D7B86" stroke="#1D7B86"/>
<path d="M41.1749 30.2981C40.5064 30.2883 39.851 30.1112 39.2678 29.7827C37.3382 28.7452 35.8013 26.1852 36.5866 24.0313C37.6276 21.1724 36.2758 20.5353 36.2175 20.5093C36.1269 20.4691 36.0531 20.3982 36.0091 20.309C35.965 20.2198 35.9534 20.1179 35.9763 20.021C35.998 19.9244 36.0534 19.8388 36.1324 19.7797C36.2114 19.7205 36.3088 19.6917 36.4071 19.6985C40.2494 19.9398 43.7147 21.7904 44.8354 24.1959C45.16 24.9032 45.2782 25.6886 45.1764 26.4608C45.0745 27.233 44.7567 27.9602 44.2599 28.558C43.9237 29.0769 43.4675 29.5063 42.9302 29.8093C42.3929 30.1124 41.7907 30.2801 41.1749 30.2981ZM37.4941 20.6661C37.7361 21.2482 37.8513 21.8757 37.832 22.5064C37.8126 23.137 37.6592 23.7562 37.382 24.3222C36.7571 26.0386 38.0865 28.1847 39.6705 29.0373C40.3195 29.4279 41.096 29.544 41.83 29.3603C42.564 29.1767 43.1957 28.7081 43.5868 28.0573C43.9944 27.5824 44.2575 26.9997 44.3448 26.3786C44.4322 25.7576 44.34 25.1244 44.0793 24.5545C43.2009 22.6814 40.5332 21.1375 37.4941 20.6661Z" fill="#1D7B86" stroke="#1D7B86"/>
<path d="M42.9451 30.0571C42.8395 30.0569 42.7378 30.0168 42.6603 29.9447C42.5828 29.8726 42.5351 29.7739 42.5266 29.668C42.3814 27.9438 41.8166 26.282 40.882 24.8289C40.8487 24.7839 40.8247 24.7328 40.8112 24.6784C40.7978 24.624 40.7952 24.5675 40.8037 24.5121C40.8122 24.4567 40.8316 24.4035 40.8607 24.3557C40.8898 24.3079 40.928 24.2664 40.9732 24.2336C41.0184 24.2008 41.0697 24.1773 41.124 24.1646C41.1783 24.1519 41.2345 24.1501 41.2895 24.1595C41.3445 24.1688 41.3971 24.189 41.4442 24.2189C41.4913 24.2489 41.5321 24.2879 41.5641 24.3338C42.596 25.9089 43.2157 27.7204 43.3657 29.6004C43.3732 29.7114 43.3369 29.821 43.2647 29.9054C43.1925 29.9898 43.0902 30.0423 42.9798 30.0515L42.9451 30.0571Z" fill="#1D7B86" stroke="#1D7B86"/>
<path d="M60.9689 42.7351C60.868 42.7351 60.7704 42.6986 60.694 42.6324C60.6176 42.5661 60.5675 42.4745 60.5527 42.3742C59.9413 38.2342 59.5587 37.8497 55.4405 37.2339C55.3406 37.2191 55.2493 37.1688 55.1833 37.0919C55.1174 37.0151 55.0811 36.917 55.0811 36.8155C55.0811 36.7141 55.1174 36.616 55.1833 36.5391C55.2493 36.4623 55.3406 36.4119 55.4405 36.3971C59.5587 35.7825 59.9413 35.398 60.5527 31.258C60.5674 31.1576 60.6175 31.0659 60.6939 30.9996C60.7703 30.9332 60.8679 30.8967 60.9689 30.8967C61.0698 30.8967 61.1674 30.9332 61.2438 30.9996C61.3202 31.0659 61.3704 31.1576 61.3851 31.258C61.9976 35.398 62.3801 35.7825 66.4995 36.3971C66.5994 36.4119 66.6906 36.4623 66.7566 36.5391C66.8226 36.616 66.8589 36.7141 66.8589 36.8155C66.8589 36.917 66.8226 37.0151 66.7566 37.0919C66.6906 37.1688 66.5994 37.2191 66.4995 37.2339C62.3801 37.8497 61.9976 38.2342 61.3851 42.3742C61.3703 42.4745 61.3201 42.5661 61.2437 42.6324C61.1673 42.6986 61.0698 42.7351 60.9689 42.7351ZM57.7784 36.8155C58.5859 36.9264 59.335 37.3001 59.9112 37.8795C60.4874 38.4589 60.8589 39.2122 60.9689 40.024C61.0795 39.212 61.4515 38.4589 62.028 37.8795C62.6045 37.3001 63.3539 36.9264 64.1616 36.8155C63.3538 36.7048 62.6044 36.3312 62.0278 35.7518C61.4512 35.1724 61.0793 34.4191 60.9689 33.6071C60.8591 34.419 60.4877 35.1723 59.9114 35.7518C59.3352 36.3312 58.5859 36.7049 57.7784 36.8155Z" fill="#1D7B86" stroke="#1D7B86"/>
<path d="M24.9779 36.4114C24.8771 36.4111 24.7797 36.3746 24.7033 36.3084C24.627 36.2422 24.5767 36.1507 24.5617 36.0505C24.168 33.3901 23.9559 33.1759 21.3084 32.78C21.209 32.7644 21.1184 32.7136 21.053 32.6368C20.9876 32.56 20.9517 32.4622 20.9517 32.3611C20.9517 32.2599 20.9876 32.1622 21.053 32.0853C21.1184 32.0085 21.209 31.9577 21.3084 31.9421C23.9548 31.5463 24.1668 31.3331 24.5617 28.6717C24.5767 28.5714 24.627 28.4799 24.7033 28.4137C24.7797 28.3475 24.8771 28.311 24.9779 28.3108C25.0788 28.3108 25.1764 28.3472 25.2528 28.4135C25.3292 28.4797 25.3793 28.5713 25.3941 28.6717C25.7879 31.332 26.001 31.5452 28.6474 31.9421C28.7468 31.9577 28.8374 32.0085 28.9028 32.0853C28.9682 32.1622 29.0042 32.2599 29.0042 32.3611C29.0042 32.4622 28.9682 32.56 28.9028 32.6368C28.8374 32.7136 28.7468 32.7644 28.6474 32.78C26.001 33.1747 25.7879 33.389 25.3941 36.0505C25.3793 36.1508 25.3292 36.2424 25.2528 36.3087C25.1764 36.3749 25.0788 36.4114 24.9779 36.4114ZM23.3692 32.3628C23.7533 32.4725 24.103 32.6791 24.3854 32.963C24.6677 33.2468 24.8732 33.5984 24.9824 33.9845C25.0918 33.5985 25.2974 33.247 25.5797 32.9632C25.862 32.6794 26.2117 32.4727 26.5956 32.3628C26.2116 32.2525 25.862 32.0456 25.5797 31.7616C25.2974 31.4777 25.0918 31.126 24.9824 30.7399C24.873 31.126 24.6674 31.4777 24.3851 31.7616C24.1029 32.0456 23.7532 32.2525 23.3692 32.3628Z" fill="#1D7B86" stroke="#1D7B86"/>
<path d="M41.2218 16.1925C41.121 16.1922 41.0236 16.1557 40.9472 16.0895C40.8708 16.0233 40.8206 15.9318 40.8056 15.8316C40.4118 13.1712 40.1998 12.9581 37.5523 12.5611C37.4524 12.5463 37.3611 12.4959 37.2952 12.4191C37.2292 12.3423 37.1929 12.2442 37.1929 12.1427C37.1929 12.0413 37.2292 11.9431 37.2952 11.8663C37.3611 11.7895 37.4524 11.7391 37.5523 11.7243C40.1998 11.3296 40.4118 11.1154 40.8056 8.45389C40.8206 8.35367 40.8708 8.26216 40.9472 8.19596C41.0236 8.12975 41.121 8.09324 41.2218 8.09302C41.3227 8.093 41.4202 8.12944 41.4966 8.19568C41.573 8.26193 41.6232 8.35357 41.638 8.45389C42.0318 11.1142 42.2438 11.3285 44.8913 11.7243C44.9912 11.7391 45.0825 11.7895 45.1484 11.8663C45.2144 11.9431 45.2507 12.0413 45.2507 12.1427C45.2507 12.2442 45.2144 12.3423 45.1484 12.4191C45.0825 12.4959 44.9912 12.5463 44.8913 12.5611C42.2438 12.9581 42.0318 13.1712 41.638 15.8316C41.6232 15.9319 41.573 16.0235 41.4966 16.0898C41.4202 16.156 41.3227 16.1925 41.2218 16.1925ZM39.6086 12.1427C39.9922 12.2537 40.3415 12.4608 40.6237 12.7447C40.9059 13.0285 41.1117 13.3798 41.2218 13.7656C41.3312 13.3795 41.5368 13.0278 41.8191 12.7439C42.1013 12.4599 42.451 12.253 42.835 12.1427C42.451 12.0328 42.1014 11.8261 41.8191 11.5423C41.5368 11.2585 41.3312 10.907 41.2218 10.521C41.1126 10.9071 40.9071 11.2587 40.6248 11.5426C40.3424 11.8264 39.9926 12.033 39.6086 12.1427Z" fill="#1D7B86" stroke="#1D7B86"/>
<path d="M55.8445 51.9066H54.1438C54.0323 51.9066 53.9253 51.862 53.8464 51.7827C53.7675 51.7034 53.7231 51.5959 53.7231 51.4837C53.7231 51.3715 53.7675 51.264 53.8464 51.1847C53.9253 51.1053 54.0323 51.0608 54.1438 51.0608H55.8445C55.9561 51.0608 56.0631 51.1053 56.142 51.1847C56.2209 51.264 56.2652 51.3715 56.2652 51.4837C56.2652 51.5959 56.2209 51.7034 56.142 51.7827C56.0631 51.862 55.9561 51.9066 55.8445 51.9066Z" fill="#1D7B86" stroke="#1D7B86"/>
<path d="M55.8445 57.8275H54.1438C54.0323 57.8275 53.9253 57.7829 53.8464 57.7036C53.7675 57.6243 53.7231 57.5168 53.7231 57.4046C53.7231 57.2924 53.7675 57.1849 53.8464 57.1056C53.9253 57.0262 54.0323 56.9817 54.1438 56.9817H55.8445C55.9561 56.9817 56.0631 57.0262 56.142 57.1056C56.2209 57.1849 56.2652 57.2924 56.2652 57.4046C56.2652 57.5168 56.2209 57.6243 56.142 57.7036C56.0631 57.7829 55.9561 57.8275 55.8445 57.8275Z" fill="#1D7B86" stroke="#1D7B86"/>
<path d="M54.5544 63.7474H54.1438C54.0323 63.7474 53.9253 63.7029 53.8464 63.6236C53.7675 63.5442 53.7231 63.4367 53.7231 63.3245C53.7231 63.2124 53.7675 63.1048 53.8464 63.0255C53.9253 62.9462 54.0323 62.9016 54.1438 62.9016H54.5544C54.666 62.9016 54.773 62.9462 54.8519 63.0255C54.9308 63.1048 54.9751 63.2124 54.9751 63.3245C54.9751 63.4367 54.9308 63.5442 54.8519 63.6236C54.773 63.7029 54.666 63.7474 54.5544 63.7474Z" fill="#1D7B86" stroke="#1D7B86"/>
</svg>
