<svg width="32" height="33" viewBox="0 0 32 33" fill="none" xmlns="http://www.w3.org/2000/svg">
<path d="M30.6668 4.80564C29.39 5.70628 27.9763 6.39512 26.4802 6.84564C25.6772 5.92233 24.6099 5.2679 23.4229 4.97088C22.2358 4.67386 20.9862 4.74857 19.8429 5.18492C18.6997 5.62126 17.7181 6.39818 17.0308 7.4106C16.3435 8.42302 15.9838 9.62209 16.0002 10.8456V12.179C13.657 12.2397 11.3352 11.7201 9.24151 10.6662C7.14782 9.61242 5.34725 8.05716 4.00016 6.13898C4.00016 6.13898 -1.33317 18.139 10.6668 23.4723C7.92087 25.3363 4.64971 26.2709 1.3335 26.139C13.3335 32.8056 28.0002 26.139 28.0002 10.8056C27.9989 10.4342 27.9632 10.0638 27.8935 9.69898C29.2543 8.35697 30.2146 6.66259 30.6668 4.80564Z" fill="#4FBCC9"/>
</svg>
