<svg width="24" height="25" viewBox="0 0 24 25" fill="none" xmlns="http://www.w3.org/2000/svg">
<path d="M23 3.80571C22.0424 4.48119 20.9821 4.99782 19.86 5.33571C19.2577 4.64322 18.4573 4.1524 17.567 3.92964C16.6767 3.70687 15.7395 3.76291 14.8821 4.09016C14.0247 4.41742 13.2884 5.00011 12.773 5.75943C12.2575 6.51874 11.9877 7.41805 12 8.33571V9.33571C10.2426 9.38128 8.50127 8.99152 6.93101 8.20116C5.36074 7.41079 4.01032 6.24435 3 4.80571C3 4.80571 -1 13.8057 8 17.8057C5.94053 19.2037 3.48716 19.9046 1 19.8057C10 24.8057 21 19.8057 21 8.30571C20.9991 8.02716 20.9723 7.7493 20.92 7.47571C21.9406 6.4692 22.6608 5.19842 23 3.80571Z" fill="#4FBCC9"/>
</svg>
