<svg width="360" height="1532" viewBox="0 0 360 1532" fill="none" xmlns="http://www.w3.org/2000/svg">
<path d="M-120.849 80.8026C-81.0903 57.8478 -30.2508 71.4702 -7.29603 111.229C15.6588 150.988 2.03636 201.827 -37.7225 224.782L-349.678 404.89L-432.805 260.91L-120.849 80.8026Z" fill="#E9B3C4"/>
<path d="M-93.1402 186.389C-53.3813 163.434 -2.54185 177.056 20.413 216.815C43.3678 256.574 29.7453 307.413 -10.0135 330.368L-321.969 510.476L-405.096 366.496L-93.1402 186.389Z" fill="#9F6EE0"/>
<path d="M-65.4288 291.973C-25.6699 269.018 25.1696 282.641 48.1244 322.4C71.0792 362.159 57.4568 412.998 17.6979 435.953L-294.258 616.061L-377.385 472.081L-65.4288 291.973Z" fill="#4FBCC9"/>
<path d="M17.6997 397.543C57.4586 374.588 108.298 388.21 131.253 427.969C154.208 467.728 140.585 518.567 100.826 541.522L-211.13 721.63L-294.256 577.65L17.6997 397.543Z" fill="#85E4D9"/>
<path d="M289.115 1336.19C40.2379 1336.19 -161.938 1134.01 -161.938 885.14C-161.938 703.657 -55.5296 547.593 98.7625 476.063C141.917 455.373 193.939 474.29 214.038 518.035C234.729 561.189 215.812 613.211 172.066 633.901C30.1883 682.375 -71.4908 816.567 -71.4909 974.995C-71.4909 1174.8 89.8951 1336.19 289.115 1336.19Z" fill="url(#paint0_linear_1_1690)"/>
<defs>
<linearGradient id="paint0_linear_1_1690" x1="63.462" y1="467.659" x2="63.4619" y2="1336.33" gradientUnits="userSpaceOnUse">
<stop offset="0.233886" stop-color="#F1E4B6"/>
<stop offset="1" stop-color="#F1E4B6" stop-opacity="0"/>
</linearGradient>
</defs>
</svg>
