<svg width="1049" height="2211" viewBox="0 0 1049 2211" fill="none" xmlns="http://www.w3.org/2000/svg">
<path d="M-86.0676 116.645C-28.6725 83.5074 44.7184 103.172 77.8555 160.568C110.993 217.963 91.3275 291.354 33.9324 324.491L-416.401 584.491L-536.401 376.645L-86.0676 116.645Z" fill="#E9B3C4"/>
<path d="M-46.0676 269.066C11.3275 235.929 84.7184 255.594 117.855 312.989C150.993 370.385 131.328 443.775 73.9324 476.913L-376.401 736.912L-496.401 529.066L-46.0676 269.066Z" fill="#9F6EE0"/>
<path d="M-6.06368 421.486C51.3314 388.349 124.722 408.014 157.859 465.409C190.996 522.804 171.331 596.195 113.936 629.332L-336.397 889.332L-456.397 681.486L-6.06368 421.486Z" fill="#4FBCC9"/>
<path d="M113.932 573.885C171.328 540.748 244.718 560.413 277.855 617.808C310.993 675.203 291.328 748.594 233.932 781.731L-216.401 1041.73L-336.401 833.885L113.932 573.885Z" fill="#85E4D9"/>
<path d="M505.748 1928.89C146.474 1928.89 -145.383 1637.04 -145.383 1277.77C-145.383 1015.78 8.22621 790.493 230.959 687.235C293.256 657.367 368.354 684.675 397.369 747.825C427.237 810.121 399.929 885.218 336.779 915.086C131.967 985.063 -14.8152 1178.78 -14.8152 1407.48C-14.8152 1695.92 218.158 1928.89 505.748 1928.89Z" fill="url(#paint0_linear_1_270)"/>
<defs>
<linearGradient id="paint0_linear_1_270" x1="180" y1="675.102" x2="180" y2="1929.1" gradientUnits="userSpaceOnUse">
<stop offset="0.233886" stop-color="#F1E4B6"/>
<stop offset="1" stop-color="#F1E4B6" stop-opacity="0"/>
</linearGradient>
</defs>
</svg>
