<svg width="80" height="80" viewBox="0 0 80 80" fill="none" xmlns="http://www.w3.org/2000/svg">
<ellipse cx="40" cy="40" rx="32" ry="31.8135" fill="#DECDF4"/>
<path d="M58.2919 27.5498H43.669C43.5568 27.5498 43.4493 27.5047 43.37 27.4245C43.2906 27.3443 43.2461 27.2356 43.2461 27.1221C43.2461 27.0087 43.2906 26.8999 43.37 26.8197C43.4493 26.7395 43.5568 26.6945 43.669 26.6945H58.2919C58.961 26.6945 59.6151 26.4938 60.1714 26.1179C60.7278 25.742 61.1614 25.2076 61.4174 24.5825C61.6735 23.9573 61.7405 23.2694 61.61 22.6057C61.4794 21.9421 61.1572 21.3325 60.6841 20.854C60.2109 20.3755 59.6081 20.0497 58.9519 19.9177C58.2956 19.7857 57.6154 19.8534 56.9972 20.1124C56.379 20.3713 55.8507 20.8098 55.4789 21.3724C55.1072 21.9351 54.9088 22.5965 54.9088 23.2732C54.9088 23.3866 54.8642 23.4954 54.7849 23.5756C54.7056 23.6558 54.598 23.7009 54.4859 23.7009C54.3737 23.7009 54.2662 23.6558 54.1869 23.5756C54.1075 23.4954 54.063 23.3866 54.063 23.2732C54.0625 22.4261 54.3105 21.5979 54.7756 20.8933C55.2407 20.1888 55.9019 19.6396 56.6757 19.3151C57.4495 18.9907 58.3011 18.9056 59.1226 19.0707C59.9442 19.2358 60.699 19.6436 61.2914 20.2425C61.8837 20.8414 62.2872 21.6045 62.4506 22.4353C62.6141 23.2662 62.5302 24.1274 62.2096 24.91C61.889 25.6926 61.346 26.3614 60.6495 26.8319C59.9529 27.3024 59.134 27.5535 58.2964 27.5532L58.2919 27.5498Z" fill="#4A1D86" stroke="#4A1D86"/>
<path d="M40.9699 27.5492H16.9307C16.8185 27.5492 16.711 27.5042 16.6317 27.424C16.5524 27.3438 16.5078 27.235 16.5078 27.1216C16.5078 27.0081 16.5524 26.8994 16.6317 26.8192C16.711 26.739 16.8185 26.6939 16.9307 26.6939H40.9699C41.082 26.6939 41.1896 26.739 41.2689 26.8192C41.3482 26.8994 41.3928 27.0081 41.3928 27.1216C41.3928 27.235 41.3482 27.3438 41.2689 27.424C41.1896 27.5042 41.082 27.5492 40.9699 27.5492Z" fill="#4A1D86" stroke="#4A1D86"/>
<path d="M67.763 42.2103H45.9815C45.8693 42.2103 45.7618 42.1653 45.6825 42.0851C45.6031 42.0049 45.5586 41.8961 45.5586 41.7827C45.5586 41.6692 45.6031 41.5605 45.6825 41.4803C45.7618 41.4001 45.8693 41.355 45.9815 41.355H67.763C68.4321 41.355 69.0862 41.1544 69.6426 40.7784C70.1989 40.4025 70.6325 39.8681 70.8886 39.243C71.1446 38.6178 71.2116 37.9299 71.0811 37.2663C70.9506 36.6026 70.6284 35.993 70.1552 35.5145C69.6821 35.036 69.0793 34.7102 68.423 34.5782C67.7668 34.4462 67.0865 34.5139 66.4683 34.7729C65.8502 35.0318 65.3218 35.4703 64.9501 36.033C64.5783 36.5956 64.3799 37.2571 64.3799 37.9337C64.3799 38.0471 64.3354 38.1559 64.256 38.2361C64.1767 38.3163 64.0692 38.3614 63.957 38.3614C63.8449 38.3614 63.7373 38.3163 63.658 38.2361C63.5787 38.1559 63.5341 38.0471 63.5341 37.9337C63.5341 37.087 63.7824 36.2593 64.2476 35.5552C64.7128 34.8512 65.3739 34.3025 66.1475 33.9784C66.921 33.6544 67.7722 33.5696 68.5934 33.7348C69.4146 33.9 70.1689 34.3078 70.761 34.9065C71.353 35.5052 71.7562 36.268 71.9196 37.0985C72.0829 37.929 71.9991 38.7898 71.6787 39.5721C71.3582 40.3543 70.8156 41.023 70.1195 41.4934C69.4233 41.9638 68.6048 42.2149 67.7675 42.2149L67.763 42.2103Z" fill="#4A1D86" stroke="#4A1D86"/>
<path d="M39.3789 42.2112H24.1065C23.9943 42.2112 23.8868 42.1662 23.8075 42.086C23.7281 42.0058 23.6836 41.897 23.6836 41.7836C23.6836 41.6701 23.7281 41.5614 23.8075 41.4812C23.8868 41.401 23.9943 41.3559 24.1065 41.3559H39.3789C39.4911 41.3559 39.5986 41.401 39.6779 41.4812C39.7573 41.5614 39.8018 41.6701 39.8018 41.7836C39.8018 41.897 39.7573 42.0058 39.6779 42.086C39.5986 42.1662 39.4911 42.2112 39.3789 42.2112Z" fill="#4A1D86" stroke="#4A1D86"/>
<path d="M49.788 56.8772H8.42289C8.31073 56.8772 8.20317 56.8321 8.12386 56.7519C8.04455 56.6717 8 56.563 8 56.4495C8 56.3361 8.04455 56.2273 8.12386 56.1471C8.20317 56.0669 8.31073 56.0219 8.42289 56.0219H49.788C50.4572 56.0219 51.1112 55.8212 51.6676 55.4453C52.2239 55.0694 52.6576 54.535 52.9136 53.9099C53.1697 53.2847 53.2367 52.5968 53.1061 51.9331C52.9756 51.2695 52.6534 50.6599 52.1803 50.1814C51.7071 49.7029 51.1043 49.3771 50.4481 49.2451C49.7918 49.113 49.1116 49.1808 48.4934 49.4397C47.8752 49.6987 47.3468 50.1372 46.9751 50.6998C46.6034 51.2625 46.4049 51.9239 46.4049 52.6006C46.4049 52.714 46.3604 52.8228 46.2811 52.903C46.2018 52.9832 46.0942 53.0283 45.9821 53.0283C45.8699 53.0283 45.7623 52.9832 45.683 52.903C45.6037 52.8228 45.5592 52.714 45.5592 52.6006C45.5581 51.7531 45.8056 50.9244 46.2705 50.2193C46.7353 49.5142 47.3966 48.9645 48.1706 48.6397C48.9446 48.3148 49.7965 48.2295 50.6184 48.3946C51.4403 48.5597 52.1954 48.9676 52.7879 49.5668C53.3805 50.1661 53.7839 50.9296 53.9471 51.7609C54.1103 52.5921 54.026 53.4536 53.7048 54.2363C53.3836 55.019 52.84 55.6878 52.1427 56.1579C51.4455 56.628 50.626 56.8783 49.788 56.8772Z" fill="#4A1D86" stroke="#4A1D86"/>
<path d="M35.2994 53.0198C35.2192 53.019 35.1409 52.9948 35.0739 52.9502C34.993 52.8968 34.9324 52.8171 34.9023 52.7242C34.8722 52.6313 34.8742 52.5309 34.9081 52.4393L39.4888 40.3166H28.3494C28.2657 40.3167 28.1839 40.2918 28.1143 40.2449C28.0446 40.198 27.9903 40.1312 27.9582 40.0531C27.9261 39.9749 27.9176 39.8889 27.9338 39.8059C27.9501 39.7229 27.9903 39.6466 28.0495 39.5867L44.4823 22.9684C44.549 22.9016 44.6356 22.8591 44.7288 22.8474C44.8219 22.8358 44.9162 22.8557 44.9969 22.9041C45.0776 22.9525 45.1402 23.0266 45.1748 23.1148C45.2095 23.203 45.2142 23.3003 45.1882 23.3915L42.1581 33.9154H53.3449C53.4286 33.9152 53.5104 33.9402 53.5801 33.9871C53.6497 34.034 53.704 34.1007 53.7362 34.1789C53.7683 34.257 53.7767 34.3431 53.7605 34.4261C53.7442 34.5091 53.704 34.5854 53.6449 34.6452L35.6017 52.8921C35.5216 52.9733 35.4129 53.0193 35.2994 53.0198ZM29.37 39.4613H40.0989C40.1675 39.4614 40.235 39.4783 40.2956 39.5106C40.3563 39.5429 40.4083 39.5896 40.4472 39.6466C40.4861 39.7037 40.5108 39.7695 40.5191 39.8383C40.5273 39.9071 40.519 39.9769 40.4948 40.0417L36.4023 50.8758L52.3243 34.7707H41.5943C41.5286 34.7707 41.4639 34.7552 41.4051 34.7255C41.3464 34.6958 41.2953 34.6527 41.2559 34.5996C41.2166 34.5465 41.1899 34.4848 41.1782 34.4195C41.1665 34.3542 41.1699 34.287 41.1883 34.2233L43.9151 24.7577L29.37 39.4613Z" fill="#4A1D86" stroke="#4A1D86"/>
<path d="M19.5786 42.2112H11.626C11.5139 42.2112 11.4063 42.1662 11.327 42.086C11.2477 42.0058 11.2031 41.897 11.2031 41.7836C11.2031 41.6701 11.2477 41.5614 11.327 41.4812C11.4063 41.401 11.5139 41.3559 11.626 41.3559H19.5786C19.6907 41.3559 19.7983 41.401 19.8776 41.4812C19.9569 41.5614 20.0014 41.6701 20.0014 41.7836C20.0014 41.897 19.9569 42.0058 19.8776 42.086C19.7983 42.1662 19.6907 42.2112 19.5786 42.2112Z" fill="#4A1D86" stroke="#4A1D86"/>
<path d="M57.3546 61.9989H29.9346C29.8224 61.9989 29.7149 61.9538 29.6356 61.8736C29.5563 61.7934 29.5117 61.6846 29.5117 61.5712C29.5117 61.4578 29.5563 61.349 29.6356 61.2688C29.7149 61.1886 29.8224 61.1436 29.9346 61.1436H57.3546C57.4668 61.1436 57.5743 61.1886 57.6537 61.2688C57.733 61.349 57.7775 61.4578 57.7775 61.5712C57.7775 61.6846 57.733 61.7934 57.6537 61.8736C57.5743 61.9538 57.4668 61.9989 57.3546 61.9989Z" fill="#4A1D86" stroke="#4A1D86"/>
<path d="M25.7911 61.9989H21.8994C21.7873 61.9989 21.6797 61.9538 21.6004 61.8736C21.5211 61.7934 21.4766 61.6846 21.4766 61.5712C21.4766 61.4578 21.5211 61.349 21.6004 61.2688C21.6797 61.1886 21.7873 61.1436 21.8994 61.1436H25.7911C25.9033 61.1436 26.0109 61.1886 26.0902 61.2688C26.1695 61.349 26.214 61.4578 26.214 61.5712C26.214 61.6846 26.1695 61.7934 26.0902 61.8736C26.0109 61.9538 25.9033 61.9989 25.7911 61.9989Z" fill="#4A1D86" stroke="#4A1D86"/>
<path d="M31.5898 49.6834H23.8448C23.7326 49.6834 23.625 49.6384 23.5457 49.5582C23.4664 49.478 23.4219 49.3692 23.4219 49.2558C23.4219 49.1424 23.4664 49.0336 23.5457 48.9534C23.625 48.8732 23.7326 48.8281 23.8448 48.8281H31.5898C31.702 48.8281 31.8095 48.8732 31.8888 48.9534C31.9681 49.0336 32.0127 49.1424 32.0127 49.2558C32.0127 49.3692 31.9681 49.478 31.8888 49.5582C31.8095 49.6384 31.702 49.6834 31.5898 49.6834Z" fill="#4A1D86" stroke="#4A1D86"/>
<path d="M49.4786 18.8543H33.4112C33.299 18.8543 33.1914 18.8093 33.1121 18.7291C33.0328 18.6489 32.9883 18.5401 32.9883 18.4267C32.9883 18.3133 33.0328 18.2045 33.1121 18.1243C33.1914 18.0441 33.299 17.999 33.4112 17.999H49.4786C49.5908 17.999 49.6984 18.0441 49.7777 18.1243C49.857 18.2045 49.9015 18.3133 49.9015 18.4267C49.9015 18.5401 49.857 18.6489 49.7777 18.7291C49.6984 18.8093 49.5908 18.8543 49.4786 18.8543Z" fill="#4A1D86" stroke="#4A1D86"/>
</svg>
