<svg width="81" height="80" viewBox="0 0 81 80" fill="none" xmlns="http://www.w3.org/2000/svg">
<path d="M30.8869 27.5017C30.8283 27.5014 30.7704 27.4895 30.7165 27.4667C25.8532 25.3371 22.7437 21.434 23.4836 18.3883C23.8975 16.6982 25.7551 14.2373 27.7277 14.2373C28.3233 14.2379 28.9121 14.3634 29.4561 14.6056C30.0001 14.8479 30.4871 15.2014 30.8857 15.6435C31.2843 15.2013 31.7713 14.8477 32.3153 14.6055C32.8593 14.3632 33.4481 14.2378 34.0437 14.2373C36.0175 14.2373 37.8784 16.6959 38.2856 18.3883C39.0277 21.4306 35.9171 25.336 31.0538 27.4667C31.001 27.4892 30.9443 27.5011 30.8869 27.5017ZM27.7289 15.0824C26.2401 15.0824 24.6521 17.1771 24.3069 18.5889C23.7644 20.8188 25.8859 24.3715 30.888 26.6172C35.8867 24.3715 38.0104 20.8188 37.4679 18.5889C37.1296 17.1759 35.5359 15.0824 34.0471 15.0824C33.493 15.0842 32.9476 15.2208 32.4581 15.4804C31.9686 15.7399 31.5497 16.1145 31.2376 16.572C31.1966 16.6253 31.144 16.6684 31.0836 16.6981C31.0233 16.7278 30.9569 16.7433 30.8897 16.7433C30.8224 16.7433 30.7561 16.7278 30.6957 16.6981C30.6354 16.6684 30.5827 16.6253 30.5417 16.572C30.229 16.1143 29.8093 15.7398 29.3189 15.4808C28.8286 15.2218 28.2824 15.0862 27.7277 15.0858L27.7289 15.0824Z" fill="#4A1D86" stroke="#4A1D86"/>
<path d="M67.6834 66.1911H64.1115C62.8681 66.1899 61.676 65.6959 60.7968 64.8175C59.9175 63.9391 59.4231 62.7482 59.4219 61.5059V46.6325C59.4231 45.3902 59.9175 44.1991 60.7967 43.3206C61.6759 42.442 62.868 41.9478 64.1115 41.9463H67.6834C68.9269 41.9478 70.1191 42.442 70.9983 43.3206C71.8774 44.1991 72.3719 45.3902 72.3731 46.6325V61.5059C72.3719 62.7482 71.8774 63.9391 70.9982 64.8175C70.119 65.6959 68.9268 66.1899 67.6834 66.1911ZM64.1115 42.7947C63.0923 42.7962 62.1154 43.2014 61.3948 43.9215C60.6743 44.6416 60.269 45.6177 60.2678 46.6359V61.5093C60.269 62.5274 60.6743 63.5034 61.3949 64.2233C62.1155 64.9432 63.0925 65.3482 64.1115 65.3494H67.6834C68.7025 65.3482 69.6795 64.9432 70.4001 64.2233C71.1206 63.5034 71.526 62.5274 71.5272 61.5093V46.6359C71.526 45.6177 71.1207 44.6416 70.4001 43.9215C69.6796 43.2014 68.7026 42.7962 67.6834 42.7947H64.1115Z" fill="#4A1D86" stroke="#4A1D86"/>
<path d="M43.6756 52.2143H22.4718C21.8562 52.2122 21.2643 51.9774 20.8148 51.5572C20.3654 51.137 20.0917 50.5624 20.0489 49.9489C20.006 49.3354 20.1972 48.7284 20.5838 48.2498C20.9705 47.7713 21.5242 47.4567 22.1335 47.3692L49.8912 43.5652C51.9634 43.279 54.0743 43.5825 55.9816 44.4407L60.0239 46.2514C60.0745 46.2742 60.1201 46.3066 60.1581 46.3469C60.1961 46.3872 60.2258 46.4347 60.2455 46.4865C60.2652 46.5382 60.2745 46.5934 60.2729 46.6488C60.2712 46.7042 60.2587 46.7587 60.2359 46.8092C60.2132 46.8597 60.1807 46.9053 60.1403 46.9433C60.1 46.9813 60.0525 47.011 60.0007 47.0306C59.9488 47.0503 59.8936 47.0596 59.8382 47.0579C59.7828 47.0563 59.7282 47.0437 59.6776 47.021L55.6388 45.2092C53.8755 44.4174 51.9249 44.1367 50.0096 44.399L22.253 48.203C21.8547 48.2595 21.4924 48.4644 21.2392 48.7768C20.9859 49.0891 20.8604 49.4857 20.8878 49.8867C20.9152 50.2878 21.0936 50.6636 21.387 50.9386C21.6805 51.2136 22.0672 51.3675 22.4696 51.3693H43.6733C43.7855 51.3693 43.8931 51.4138 43.9724 51.493C44.0517 51.5723 44.0963 51.6797 44.0963 51.7918C44.0963 51.9039 44.0517 52.0113 43.9724 52.0906C43.8931 52.1698 43.7855 52.2143 43.6733 52.2143H43.6756Z" fill="#4A1D86" stroke="#4A1D86"/>
<path d="M38.1228 66.2366C32.1552 66.2344 26.3676 64.1949 21.7192 60.4562L9.63198 50.7874C9.08997 50.3539 8.6961 49.7629 8.50478 49.0961C8.31345 48.4293 8.33411 47.7196 8.5639 47.065C8.79369 46.4104 9.22127 45.8433 9.78757 45.442C10.3539 45.0406 11.031 44.8249 11.7253 44.8245C12.5254 44.8249 13.2991 45.1111 13.9066 45.6313L19.0564 50.037C20.0613 50.8982 21.3415 51.3718 22.6655 51.3722H23.8836C23.9958 51.3722 24.1033 51.4167 24.1827 51.496C24.262 51.5752 24.3065 51.6827 24.3065 51.7947C24.3065 51.9068 24.262 52.0143 24.1827 52.0935C24.1033 52.1728 23.9958 52.2173 23.8836 52.2173H22.6655C21.1393 52.2167 19.6634 51.6717 18.5037 50.6804L13.3584 46.2736C12.9035 45.8841 12.3243 45.6699 11.7253 45.6696C11.2064 45.6702 10.7004 45.8316 10.2773 46.1317C9.8542 46.4318 9.53475 46.8557 9.36307 47.3449C9.19138 47.8341 9.17593 48.3645 9.31885 48.8629C9.46177 49.3612 9.756 49.803 10.1609 50.1271L22.2482 59.796C25.2428 62.2046 28.7466 63.901 32.4944 64.7568C36.2423 65.6126 40.1359 65.6054 43.8805 64.7357L59.7529 61.0951C59.8597 61.0761 59.9698 61.0988 60.0604 61.1586C60.151 61.2184 60.215 61.3106 60.2394 61.4163C60.2637 61.522 60.2465 61.633 60.1912 61.7263C60.1359 61.8196 60.0468 61.8882 59.9424 61.9177L44.07 65.5594C42.1195 66.0085 40.1244 66.2357 38.1228 66.2366Z" fill="#4A1D86" stroke="#4A1D86"/>
<path d="M63.6679 49.6146C63.2159 49.6146 62.7741 49.4807 62.3984 49.2299C62.0226 48.979 61.7297 48.6225 61.5568 48.2054C61.3838 47.7882 61.3386 47.3292 61.4267 46.8864C61.5149 46.4436 61.7325 46.0368 62.0521 45.7176C62.3717 45.3983 62.7788 45.1809 63.2221 45.0928C63.6653 45.0047 64.1248 45.0499 64.5423 45.2227C64.9598 45.3955 65.3167 45.6881 65.5678 46.0635C65.8189 46.4389 65.9529 46.8803 65.9529 47.3318C65.9523 47.937 65.7114 48.5173 65.283 48.9453C64.8546 49.3733 64.2737 49.614 63.6679 49.6146ZM63.6679 45.8963C63.3831 45.8963 63.1048 45.9806 62.8681 46.1387C62.6314 46.2968 62.4469 46.5215 62.338 46.7843C62.2292 47.0472 62.2008 47.3364 62.2565 47.6153C62.3122 47.8943 62.4495 48.1505 62.651 48.3515C62.8525 48.5525 63.1092 48.6892 63.3885 48.7444C63.6678 48.7997 63.9572 48.7709 64.2202 48.6617C64.4831 48.5525 64.7077 48.3679 64.8656 48.1312C65.0234 47.8944 65.1074 47.6162 65.107 47.3318C65.1064 46.9506 64.9546 46.5853 64.6848 46.3158C64.4151 46.0463 64.0494 45.8946 63.6679 45.894V45.8963Z" fill="#4A1D86" stroke="#4A1D86"/>
<path d="M20.7317 44.1157C20.2514 44.1154 19.7738 44.0428 19.3151 43.9005C18.2448 43.5573 17.2717 42.9644 16.4763 42.1709C16.1036 41.8132 15.7719 41.4152 15.4872 40.9844C15.1069 40.4084 14.839 39.7657 14.6977 39.0903C14.3871 37.5536 14.4584 35.9643 14.9052 34.4615C15.0171 34.0142 15.1568 33.5742 15.3236 33.1443C16.4092 30.4184 18.0128 27.9282 20.046 25.8113C20.0852 25.769 20.1326 25.7352 20.1854 25.712C20.2381 25.6887 20.2951 25.6765 20.3527 25.6761C20.4681 25.6809 20.5776 25.7278 20.6606 25.8079C22.0434 27.2374 23.2512 28.826 24.2585 30.5403C24.8187 31.4834 25.2913 32.4758 25.6706 33.5049C26.0511 34.5227 26.2887 35.5882 26.3766 36.6711C26.4868 37.8112 26.3324 38.9614 25.9255 40.0323C25.8486 40.2339 25.7613 40.4313 25.6638 40.6238C25.2547 41.4798 24.6588 42.2332 23.9198 42.8287C23.1809 43.4242 22.3177 43.8467 21.3938 44.065C21.1746 44.0976 20.9533 44.1146 20.7317 44.1157ZM20.3584 26.7127C18.5382 28.6745 17.0987 30.957 16.1131 33.444C15.9576 33.8448 15.8277 34.255 15.724 34.6722C15.3113 36.0437 15.2423 37.4955 15.5232 38.8999C15.6434 39.4767 15.8731 40.0252 16.2 40.5157C16.4496 40.8961 16.7417 41.2469 17.0707 41.5613C17.7691 42.2615 18.6248 42.785 19.5666 43.0881C20.1194 43.2614 20.7038 43.3099 21.2776 43.2301C22.0678 43.0309 22.8039 42.6588 23.4326 42.1406C24.0612 41.6225 24.5668 40.9712 24.9127 40.234C24.9969 40.0668 25.0722 39.8953 25.1382 39.7202C25.4944 38.7656 25.6286 37.7426 25.5307 36.7286V36.7207C25.4478 35.7155 25.2262 34.7266 24.8721 33.7821C24.5088 32.8009 24.0557 31.8553 23.5186 30.9572C22.6259 29.4298 21.5659 28.0062 20.3584 26.7127Z" fill="#4A1D86" stroke="#4A1D86"/>
<path d="M53.6255 38.3339H53.6165C43.724 38.1266 38.8066 33.2082 39.0017 23.7162C39.004 23.6073 39.0483 23.5034 39.1255 23.4264C39.2026 23.3493 39.3065 23.305 39.4156 23.3027C48.9246 23.1517 53.8387 28.0183 54.0484 37.9035C54.0497 37.9603 54.0394 38.0169 54.0183 38.0698C53.9972 38.1226 53.9656 38.1707 53.9255 38.2111C53.8454 38.2897 53.7377 38.3338 53.6255 38.3339ZM39.8419 24.1422C39.7991 32.7856 44.1707 37.153 53.1901 37.4775C52.8664 28.5107 48.5355 24.1422 39.9716 24.1422H39.8419Z" fill="#4A1D86" stroke="#4A1D86"/>
<path d="M57.0264 41.7318C56.9708 41.732 56.9157 41.7213 56.8642 41.7002C56.8127 41.6792 56.7659 41.6482 56.7264 41.609L39.1318 24.0313C39.0524 23.952 39.0078 23.8444 39.0078 23.7322C39.0078 23.62 39.0524 23.5123 39.1318 23.433C39.2113 23.3537 39.319 23.3091 39.4313 23.3091C39.5436 23.3091 39.6513 23.3537 39.7307 23.433L57.3253 41.0163C57.3844 41.0754 57.4246 41.1506 57.4409 41.2326C57.4572 41.3145 57.4488 41.3994 57.4168 41.4765C57.3849 41.5537 57.3307 41.6197 57.2612 41.6661C57.1917 41.7125 57.11 41.7374 57.0264 41.7374V41.7318Z" fill="#4A1D86" stroke="#4A1D86"/>
<path d="M51.2433 35.9524C51.1311 35.9524 51.0235 35.9079 50.9442 35.8287C50.8649 35.7494 50.8203 35.642 50.8203 35.5299V31.8375C50.8203 31.7254 50.8649 31.6179 50.9442 31.5387C51.0235 31.4594 51.1311 31.4149 51.2433 31.4149C51.3554 31.4149 51.463 31.4594 51.5423 31.5387C51.6216 31.6179 51.6662 31.7254 51.6662 31.8375V35.5321C51.6656 35.6438 51.6208 35.7507 51.5415 35.8295C51.4623 35.9082 51.355 35.9524 51.2433 35.9524Z" fill="#4A1D86" stroke="#4A1D86"/>
<path d="M51.2395 35.9527H47.5401C47.428 35.9527 47.3204 35.9082 47.2411 35.8289C47.1617 35.7495 47.1172 35.642 47.1172 35.5298C47.1172 35.4176 47.1617 35.3101 47.2411 35.2307C47.3204 35.1514 47.428 35.1069 47.5401 35.1069H51.2395C51.3517 35.1069 51.4593 35.1514 51.5386 35.2307C51.6179 35.3101 51.6625 35.4176 51.6625 35.5298C51.6625 35.642 51.6179 35.7495 51.5386 35.8289C51.4593 35.9082 51.3517 35.9527 51.2395 35.9527Z" fill="#4A1D86" stroke="#4A1D86"/>
<path d="M48.38 33.0899C48.2678 33.0899 48.1602 33.0454 48.0809 32.9662C48.0016 32.8869 47.957 32.7795 47.957 32.6674V28.9671C47.957 28.855 48.0016 28.7475 48.0809 28.6683C48.1602 28.589 48.2678 28.5445 48.38 28.5445C48.4922 28.5445 48.5997 28.589 48.679 28.6683C48.7584 28.7475 48.8029 28.855 48.8029 28.9671V32.6629C48.8035 32.7187 48.793 32.7742 48.772 32.826C48.751 32.8777 48.72 32.9249 48.6807 32.9646C48.6413 33.0043 48.5945 33.0358 48.5429 33.0573C48.4913 33.0789 48.4359 33.0899 48.38 33.0899Z" fill="#4A1D86" stroke="#4A1D86"/>
<path d="M48.3801 33.0901H44.6808C44.5686 33.0901 44.461 33.0456 44.3817 32.9662C44.3024 32.8869 44.2578 32.7794 44.2578 32.6672C44.2578 32.555 44.3024 32.4474 44.3817 32.3681C44.461 32.2888 44.5686 32.2443 44.6808 32.2443H48.3801C48.4923 32.2443 48.5999 32.2888 48.6792 32.3681C48.7585 32.4474 48.8031 32.555 48.8031 32.6672C48.8031 32.7794 48.7585 32.8869 48.6792 32.9662C48.5999 33.0456 48.4923 33.0901 48.3801 33.0901Z" fill="#4A1D86" stroke="#4A1D86"/>
<path d="M45.505 30.2236C45.3928 30.2236 45.2852 30.1791 45.2059 30.0998C45.1266 30.0206 45.082 29.9131 45.082 29.8011V26.1064C45.082 25.9943 45.1266 25.8868 45.2059 25.8076C45.2852 25.7284 45.3928 25.6838 45.505 25.6838C45.6172 25.6838 45.7247 25.7284 45.804 25.8076C45.8834 25.8868 45.9279 25.9943 45.9279 26.1064V29.8011C45.9279 29.9131 45.8834 30.0206 45.804 30.0998C45.7247 30.1791 45.6172 30.2236 45.505 30.2236Z" fill="#4A1D86" stroke="#4A1D86"/>
<path d="M45.5051 30.2236H41.8058C41.6936 30.2236 41.586 30.179 41.5067 30.0997C41.4274 30.0204 41.3828 29.9128 41.3828 29.8007C41.3828 29.6885 41.4274 29.5809 41.5067 29.5016C41.586 29.4223 41.6936 29.3777 41.8058 29.3777H45.5051C45.6173 29.3777 45.7249 29.4223 45.8042 29.5016C45.8835 29.5809 45.9281 29.6885 45.9281 29.8007C45.9281 29.9128 45.8835 30.0204 45.8042 30.0997C45.7249 30.179 45.6173 30.2236 45.5051 30.2236Z" fill="#4A1D86" stroke="#4A1D86"/>
</svg>
