<svg width="80" height="80" viewBox="0 0 80 80" fill="none" xmlns="http://www.w3.org/2000/svg">
<path d="M59.6593 72C59.5447 71.9991 59.4351 71.9542 59.3543 71.875C59.2736 71.7958 59.2283 71.6888 59.2283 71.5773V56.4543C59.2478 51.7504 60.5429 47.1348 62.9829 43.0739C65.9621 38.0271 66.8724 32.0717 65.5315 26.3999C64.2948 21.3325 61.3118 16.83 57.0791 13.6417C52.8464 10.4533 47.6191 8.77133 42.2672 8.87567C36.9154 8.98001 31.7616 10.8644 27.6635 14.2152C23.5655 17.5659 20.7703 22.1811 19.7431 27.2926C18.4964 32.8147 16.6732 38.1985 14.3018 43.3601L14.0875 43.8595H22.7088C22.824 43.8595 22.9345 43.904 23.016 43.9833C23.0975 44.0625 23.1432 44.1701 23.1432 44.2822V65.3904L42.5985 60.0803C42.6544 60.0625 42.7133 60.0559 42.7718 60.0609C42.8304 60.0659 42.8872 60.0824 42.939 60.1094C42.9908 60.1364 43.0364 60.1734 43.0731 60.218C43.1098 60.2627 43.1368 60.3141 43.1525 60.3692C43.1682 60.4243 43.1722 60.4819 43.1644 60.5385C43.1565 60.5952 43.1369 60.6497 43.1068 60.6987C43.0767 60.7478 43.0366 60.7904 42.9891 60.824C42.9416 60.8576 42.8875 60.8815 42.8302 60.8941L22.8235 66.353C22.759 66.3705 22.6911 66.3733 22.6253 66.3611C22.5594 66.3489 22.4974 66.3221 22.444 66.2827C22.3906 66.2433 22.3473 66.1924 22.3175 66.134C22.2876 66.0756 22.2721 66.0113 22.2721 65.9461V44.7048H13.4341C13.3625 44.7047 13.292 44.6874 13.229 44.6543C13.1659 44.6213 13.1122 44.5736 13.0727 44.5155C13.0329 44.4577 13.0086 44.3911 13.0019 44.3218C12.9952 44.2525 13.0064 44.1827 13.0345 44.1187L13.4978 43.0333C15.8423 37.9245 17.6445 32.5963 18.8766 27.1314C19.9362 21.8237 22.8338 17.0299 27.0863 13.5493C31.3389 10.0687 36.6892 8.1117 42.2452 8.00464C47.8011 7.89758 53.2269 9.64693 57.6177 12.961C62.0085 16.275 65.099 20.9535 66.3738 26.2161C67.764 32.0946 66.8206 38.2671 63.7324 43.4977C61.3699 47.4301 60.1156 51.8994 60.096 56.4543V71.5773C60.096 71.633 60.0847 71.6882 60.0627 71.7396C60.0408 71.791 60.0085 71.8377 59.968 71.877C59.9274 71.9163 59.8792 71.9474 59.8262 71.9685C59.7733 71.9896 59.7165 72.0003 59.6593 72Z" fill="#4A1D86" stroke="#4A1D86"/>
<path d="M31.3182 72.0003C31.203 72.0003 31.0925 71.9557 31.011 71.8765C30.9296 71.7972 30.8838 71.6897 30.8838 71.5776V63.5985C30.8838 63.4864 30.9296 63.3788 31.011 63.2996C31.0925 63.2203 31.203 63.1758 31.3182 63.1758C31.4334 63.1758 31.5439 63.2203 31.6254 63.2996C31.7069 63.3788 31.7526 63.4864 31.7526 63.5985V71.5776C31.7526 71.6897 31.7069 71.7972 31.6254 71.8765C31.5439 71.9557 31.4334 72.0003 31.3182 72.0003Z" fill="#4A1D86" stroke="#4A1D86"/>
<path d="M61.5784 30.3537C61.4719 30.3535 61.3692 30.3153 61.2898 30.2463C61.2103 30.1774 61.1597 30.0824 61.1475 29.9795C60.6904 26.0858 58.8911 22.4576 56.043 19.6865C53.1949 16.9154 49.466 15.1648 45.4641 14.7201C45.4075 14.7136 45.3527 14.6964 45.3028 14.6693C45.253 14.6423 45.2092 14.606 45.1738 14.5624C45.1384 14.5189 45.1121 14.469 45.0966 14.4156C45.081 14.3622 45.0764 14.3063 45.083 14.2512C45.0975 14.1403 45.1561 14.0394 45.2462 13.9701C45.3363 13.9007 45.4507 13.8685 45.5649 13.8803C49.761 14.347 53.6709 16.1828 56.6572 19.0886C59.6435 21.9944 61.5301 25.7987 62.0094 29.8814C62.016 29.9365 62.0114 29.9924 61.9958 30.0458C61.9803 30.0992 61.954 30.1491 61.9186 30.1926C61.8832 30.2362 61.8394 30.2725 61.7896 30.2996C61.7397 30.3266 61.6849 30.3439 61.6282 30.3503C61.6117 30.3525 61.5951 30.3536 61.5784 30.3537Z" fill="#4A1D86" stroke="#4A1D86"/>
<path d="M61.5772 30.3543C61.5135 30.3542 61.4507 30.3405 61.393 30.3142C61.3354 30.2879 61.2844 30.2496 61.2436 30.2021L59.8372 28.5576C59.7882 28.5006 59.7555 28.4321 59.7424 28.3589C59.7294 28.2857 59.7365 28.2105 59.7629 28.1408C59.7894 28.0711 59.8343 28.0095 59.8931 27.9621C59.9519 27.9148 60.0225 27.8834 60.0978 27.8711L62.2642 27.5071C62.3394 27.4945 62.4167 27.5015 62.4882 27.5272C62.5598 27.5529 62.6232 27.5966 62.6719 27.6537C62.7206 27.7108 62.7531 27.7795 62.7659 27.8526C62.7787 27.9258 62.7715 28.001 62.7449 28.0706L61.985 30.0781C61.9588 30.1478 61.9141 30.2095 61.8555 30.257C61.7969 30.3045 61.7265 30.3361 61.6513 30.3486C61.6269 30.3527 61.602 30.3546 61.5772 30.3543ZM60.9864 28.5801L61.4301 29.0975L61.6699 28.4651L60.9864 28.5801Z" fill="#4A1D86" stroke="#4A1D86"/>
<path d="M45.5136 50.1762C45.4035 50.1751 45.298 50.1333 45.2184 50.0593C45.1388 49.9854 45.091 49.8848 45.0847 49.7779C45.0784 49.671 45.114 49.5657 45.1844 49.4834C45.2547 49.401 45.3546 49.3477 45.4638 49.3343C49.4656 48.8895 53.1945 47.1389 56.0427 44.3678C58.8908 41.5967 60.69 37.9685 61.1471 34.0749C61.1605 33.9635 61.2188 33.8619 61.3091 33.7923C61.3995 33.7228 61.5146 33.691 61.629 33.704C61.7435 33.717 61.8479 33.7737 61.9194 33.8617C61.9909 33.9496 62.0235 34.0616 62.0102 34.1729C61.5316 38.2573 59.6446 42.0633 56.6571 44.9701C53.6695 47.8769 49.7578 49.7129 45.5599 50.1785L45.5136 50.1762Z" fill="#4A1D86" stroke="#4A1D86"/>
<path d="M47.5767 50.915C47.5253 50.9151 47.4743 50.9064 47.4261 50.889L45.3629 50.1496C45.2916 50.1237 45.2286 50.08 45.1801 50.023C45.1316 49.9659 45.0993 49.8975 45.0864 49.8245C45.0735 49.7516 45.0805 49.6766 45.1066 49.6071C45.1328 49.5375 45.1772 49.4759 45.2355 49.4283L46.9257 48.0599C46.9847 48.0131 47.0552 47.9818 47.1303 47.9692C47.2054 47.9566 47.2825 47.963 47.3543 47.9878C47.4256 48.0139 47.4886 48.0577 47.5372 48.1149C47.5857 48.172 47.6181 48.2405 47.6312 48.3135L48.0054 50.4213C48.0162 50.482 48.0132 50.5443 47.9967 50.6037C47.9801 50.6632 47.9503 50.7184 47.9095 50.7655C47.8686 50.8125 47.8176 50.8503 47.7601 50.8761C47.7027 50.902 47.6401 50.9152 47.5767 50.915ZM46.3696 49.6097L47.0207 49.843L46.9048 49.178L46.3696 49.6097Z" fill="#4A1D86" stroke="#4A1D86"/>
<path d="M41.2031 50.1765H41.1521C36.9543 49.7109 33.0425 47.8749 30.055 44.9682C27.0675 42.0614 25.1805 38.2553 24.7019 34.171C24.6885 34.0596 24.7212 33.9477 24.7927 33.8597C24.8641 33.7718 24.9686 33.7151 25.083 33.7021C25.1975 33.6891 25.3126 33.7208 25.4029 33.7904C25.4933 33.8599 25.5516 33.9616 25.565 34.0729C26.0217 37.9676 27.8215 41.5968 30.6706 44.3685C33.5196 47.1402 37.2499 48.8907 41.2529 49.3346C41.3621 49.348 41.462 49.4013 41.5323 49.4837C41.6027 49.566 41.6383 49.6713 41.632 49.7782C41.6257 49.8851 41.5779 49.9857 41.4983 50.0596C41.4187 50.1336 41.3132 50.1754 41.2031 50.1765Z" fill="#4A1D86" stroke="#4A1D86"/>
<path d="M24.3794 36.5524C24.31 36.5524 24.2415 36.5361 24.1799 36.505C24.1183 36.4738 24.0653 36.4287 24.0253 36.3735C23.9853 36.3182 23.9596 36.2545 23.9502 36.1875C23.9409 36.1206 23.9482 36.0524 23.9716 35.9888L24.7304 33.9813C24.7568 33.9118 24.8016 33.8502 24.8602 33.8027C24.9188 33.7553 24.9892 33.7238 25.0644 33.7112C25.1395 33.6986 25.2167 33.7055 25.2882 33.7312C25.3597 33.7568 25.4231 33.8003 25.4718 33.8573L26.8794 35.5007C26.9282 35.5576 26.9608 35.626 26.9738 35.699C26.9868 35.772 26.9798 35.8471 26.9535 35.9167C26.9269 35.9864 26.8821 36.0482 26.8233 36.0959C26.7646 36.1436 26.694 36.1754 26.6187 36.1883L24.4524 36.5512C24.4281 36.5533 24.4037 36.5537 24.3794 36.5524ZM25.2865 34.9563L25.0467 35.5887L25.7302 35.4759L25.2865 34.9563Z" fill="#4A1D86" stroke="#4A1D86"/>
<path d="M25.14 30.353H25.089C24.9747 30.3397 24.8704 30.2829 24.799 30.1951C24.7276 30.1072 24.6948 29.9954 24.7079 29.8841C25.1869 25.8005 27.0737 21.9952 30.0607 19.089C33.0478 16.1827 36.9587 14.3468 41.1558 13.8808C41.2125 13.8743 41.2699 13.8788 41.3248 13.894C41.3797 13.9091 41.431 13.9347 41.4757 13.9691C41.5205 14.0035 41.5578 14.0462 41.5856 14.0947C41.6134 14.1431 41.6311 14.1965 41.6377 14.2516C41.6443 14.3068 41.6397 14.3626 41.6242 14.416C41.6086 14.4694 41.5824 14.5193 41.547 14.5629C41.5116 14.6064 41.4677 14.6427 41.4179 14.6698C41.3681 14.6968 41.3133 14.7141 41.2566 14.7205C37.2534 15.1648 33.5231 16.916 30.6744 19.6883C27.8257 22.4606 26.0267 26.0905 25.571 29.9856C25.5569 30.0872 25.5056 30.1804 25.4263 30.2479C25.3471 30.3155 25.2454 30.3528 25.14 30.353Z" fill="#4A1D86" stroke="#4A1D86"/>
<path d="M39.5165 16.0917C39.4651 16.0919 39.4141 16.0831 39.3659 16.0658C39.2944 16.0401 39.2311 15.9966 39.1823 15.9396C39.1335 15.8827 39.101 15.8142 39.0879 15.7412L38.7148 13.6334C38.7021 13.5602 38.7094 13.4851 38.7358 13.4155C38.7622 13.3459 38.8069 13.2842 38.8654 13.2366C38.9245 13.1898 38.995 13.1586 39.07 13.146C39.1451 13.1333 39.2223 13.1397 39.2941 13.1645L41.3561 13.9051C41.4276 13.9307 41.4909 13.9743 41.5397 14.0313C41.5884 14.0884 41.6209 14.1569 41.6338 14.23C41.6467 14.3031 41.6396 14.3782 41.6132 14.4478C41.5869 14.5174 41.5421 14.579 41.4836 14.6264L39.7945 15.9948C39.7163 16.0576 39.6179 16.0919 39.5165 16.0917ZM39.6995 14.2116L39.8154 14.8767L40.3483 14.445L39.6995 14.2116Z" fill="#4A1D86" stroke="#4A1D86"/>
<path d="M52.1456 43.8621C51.9418 43.8621 51.7332 43.852 51.5189 43.8317C50.4803 43.8093 49.492 43.3922 48.7655 42.6696C48.0391 41.947 47.6323 40.9764 47.6323 39.9656C47.5303 37.6628 49.0525 34.9013 51.4819 34.4628C54.7429 33.8733 54.5819 32.2818 54.5738 32.2085C54.5615 32.1096 54.5851 32.0096 54.6405 31.9259C54.6959 31.8421 54.7797 31.7798 54.8773 31.7498C54.9746 31.7201 55.0794 31.7248 55.1735 31.7629C55.2676 31.801 55.3448 31.8702 55.3917 31.9583C57.2904 35.5787 57.4908 39.7176 55.8759 42.0215C55.4675 42.6128 54.9102 43.0924 54.2572 43.4146C53.6042 43.7368 52.8772 43.8909 52.1456 43.8621ZM55.116 33.4123C54.7134 33.9543 54.1936 34.4037 53.5931 34.7289C52.9926 35.0542 52.3261 35.2473 51.6406 35.2947C49.6851 35.6475 48.4165 38.0201 48.5 39.9295C48.4965 40.7352 48.8211 41.5095 49.4026 42.0831C49.9841 42.6568 50.7754 42.9831 51.6035 42.9909C52.2754 43.106 52.9672 43.0316 53.5971 42.7763C54.2269 42.521 54.7685 42.0956 55.1577 41.5504C56.4285 39.7368 56.381 36.45 55.116 33.4123Z" fill="#4A1D86" stroke="#4A1D86"/>
<path d="M45.5962 45.386C45.4876 45.3864 45.3828 45.3471 45.3025 45.276C45.2221 45.2049 45.1721 45.1071 45.1622 45.0018C45.1523 44.8966 45.1833 44.7916 45.2491 44.7075C45.3148 44.6233 45.4106 44.5663 45.5174 44.5474C47.1528 44.2112 48.6885 43.5183 50.0088 42.521C51.3292 41.5237 52.3998 40.248 53.1402 38.7899C53.1618 38.7374 53.194 38.6896 53.235 38.6494C53.276 38.6092 53.3248 38.5775 53.3786 38.556C53.4325 38.5345 53.4902 38.5238 53.5484 38.5244C53.6065 38.5251 53.664 38.5371 53.7173 38.5597C53.7706 38.5824 53.8187 38.6152 53.8587 38.6563C53.8987 38.6974 53.9299 38.7459 53.9503 38.7989C53.9707 38.8519 53.9799 38.9083 53.9775 38.9649C53.975 39.0214 53.9609 39.0769 53.936 39.1281C53.1482 40.7197 51.9922 42.1122 50.5588 43.1966C49.1254 44.2809 47.4534 45.0276 45.6738 45.3781C45.6483 45.3833 45.6223 45.386 45.5962 45.386Z" fill="#4A1D86" stroke="#4A1D86"/>
<path d="M44.2075 31.2888C43.828 31.2883 43.4507 31.2321 43.0884 31.1219C42.2516 30.8614 41.4906 30.4105 40.8688 29.8065C40.5772 29.5352 40.318 29.2327 40.0961 28.9048C39.7972 28.4641 39.5869 27.9722 39.4763 27.4553C39.23 26.2928 39.285 25.0888 39.6362 23.9521C39.7234 23.615 39.8317 23.2833 39.9605 22.9591C40.7962 20.9117 42.0315 19.0411 43.5981 17.4507C43.6385 17.4083 43.6875 17.3744 43.7419 17.3512C43.7963 17.3279 43.855 17.3157 43.9144 17.3154C43.9736 17.316 44.0321 17.328 44.0866 17.3506C44.1411 17.3733 44.1904 17.4061 44.2318 17.4473C45.2968 18.519 46.227 19.7101 47.0029 20.9956C47.435 21.7045 47.7995 22.4504 48.0918 23.224C48.3873 23.9924 48.5717 24.7969 48.6398 25.6147C48.7263 26.4811 48.6074 27.3552 48.2922 28.1699C48.2285 28.33 48.1637 28.4686 48.086 28.6208C47.7655 29.2773 47.297 29.855 46.7154 30.3111C46.1337 30.7671 45.4539 31.0897 44.7265 31.2549C44.5546 31.2785 44.3811 31.2898 44.2075 31.2888ZM43.9213 18.3614C42.5731 19.7933 41.5056 21.4531 40.7715 23.2589C40.6545 23.5535 40.5559 23.8546 40.4761 24.1606C40.1657 25.1666 40.1136 26.2313 40.3243 27.2614C40.4118 27.679 40.5804 28.0766 40.8213 28.4325C41.0084 28.7097 41.2272 28.9653 41.4735 29.1945C41.9964 29.7045 42.6365 30.0863 43.341 30.3081C43.7489 30.4329 44.1802 30.468 44.6037 30.4107C45.1925 30.2648 45.7406 29.9935 46.2084 29.6163C46.6762 29.2391 47.052 28.7655 47.3087 28.2297C47.3727 28.1084 47.4299 27.9838 47.4802 27.8566C47.7489 27.16 47.8492 26.4125 47.7733 25.6721V25.6654C47.7101 24.9254 47.5421 24.1975 47.274 23.5024C46.9997 22.7791 46.6576 22.0818 46.2522 21.4194C45.5912 20.321 44.8097 19.2957 43.9213 18.3614Z" fill="#4A1D86" stroke="#4A1D86"/>
<path d="M33.3522 45.3858C33.2819 45.3855 33.2127 45.3686 33.1505 45.3366C33.0884 45.3046 33.0351 45.2585 32.9953 45.2021C32.9554 45.1457 32.9302 45.0808 32.9217 45.0129C32.9133 44.945 32.9219 44.8761 32.9468 44.8121L34.9011 39.8379H30.1977C30.1118 39.8379 30.0279 39.813 29.9566 39.7666C29.8852 39.7201 29.8296 39.6541 29.7967 39.577C29.7639 39.4998 29.7553 39.4148 29.772 39.3329C29.7887 39.2509 29.83 39.1757 29.8907 39.1166L37.3501 31.8588C37.4183 31.7926 37.5072 31.7503 37.6028 31.7386C37.6984 31.727 37.7953 31.7465 37.8782 31.7943C37.9612 31.8421 38.0254 31.9153 38.0609 32.0025C38.0963 32.0896 38.101 32.1858 38.0741 32.2759L36.7894 36.5703H41.5391C41.6251 36.5702 41.7091 36.5948 41.7807 36.6412C41.8522 36.6876 41.908 36.7535 41.941 36.8308C41.974 36.908 41.9827 36.993 41.966 37.0751C41.9493 37.1571 41.908 37.2325 41.8473 37.2917L33.6557 45.2618C33.5751 45.3401 33.4661 45.3846 33.3522 45.3858ZM31.245 38.9926H35.5313C35.6018 38.9923 35.6713 39.0089 35.7338 39.0407C35.7962 39.0725 35.8498 39.1187 35.8897 39.1753C35.9297 39.2318 35.9548 39.297 35.963 39.3651C35.9712 39.4332 35.9622 39.5023 35.9368 39.5663L34.484 43.2622L40.4942 37.4157H36.2078C36.1405 37.4155 36.0741 37.4001 36.0139 37.3707C35.9538 37.3413 35.9014 37.2986 35.8611 37.2462C35.8208 37.1937 35.7935 37.1328 35.7815 37.0683C35.7695 37.0039 35.7731 36.9376 35.792 36.8746L36.7639 33.6217L31.245 38.9926Z" fill="#4A1D86" stroke="#4A1D86"/>
</svg>
